<svg width="68" height="82" viewBox="0 0 68 82" fill="none" xmlns="http://www.w3.org/2000/svg">
<mask id="path-1-outside-1_43_38225" maskUnits="userSpaceOnUse" x="0" y="0" width="68" height="82" fill="black">
<rect fill="white" width="68" height="82"/>
<path d="M8.56763 80.9998C12.7332 80.9998 16.1221 77.3353 16.1221 72.8315C16.1221 68.6342 13.1887 65.169 9.42689 64.7049V58.779C9.42689 56.2116 11.3584 54.1232 13.7321 54.1232H32.8431V64.7552C29.2222 65.3636 26.4393 68.7483 26.4393 72.8317C26.4393 77.3355 29.8338 81 34.0069 81C38.1725 81 41.5614 77.3355 41.5614 72.8317C41.5614 68.744 38.7773 65.3564 35.157 64.7533V54.1232H53.9788C56.3525 54.1232 58.284 56.2117 58.284 58.779V64.7547C54.662 65.3621 51.8779 68.7474 51.8779 72.8315C51.8779 77.3353 55.2725 80.9998 59.4455 80.9998C63.6111 80.9998 67 77.3353 67 72.8315C67 68.7446 64.217 65.3577 60.5979 64.7534V58.7788C60.5979 54.8321 57.6288 51.6209 53.9788 51.6209H35.1569V41.115H58.2071C60.3548 41.115 62.1026 39.225 62.1026 36.9026V14.8962C62.1026 14.565 61.9778 14.2429 61.7633 14.0113L50.0698 1.36692C49.856 1.13539 49.5581 1 49.2515 1H9.79295C7.64521 1 5.89737 2.88996 5.89737 5.21235V36.9026C5.89737 39.225 7.64521 41.115 9.79295 41.115H32.8431V51.6209H13.7321C10.0822 51.6209 7.11297 54.8321 7.11297 58.7788V64.803C3.63414 65.5389 1 68.8572 1 72.8314C1 77.3353 4.3946 80.9998 8.56763 80.9998ZM39.2473 72.8315C39.2473 75.9561 36.8961 78.4977 34.0066 78.4977C31.1097 78.4977 28.7529 75.9561 28.7529 72.8315C28.7529 69.6984 31.1097 67.1501 34.0066 67.1501C36.8963 67.1501 39.2473 69.6984 39.2473 72.8315ZM64.6859 72.8315C64.6859 75.9561 62.3347 78.4977 59.4452 78.4977C56.5483 78.4977 54.1915 75.9561 54.1915 72.8315C54.1915 69.6984 56.5483 67.1501 59.4452 67.1501C62.3347 67.1501 64.6859 69.6984 64.6859 72.8315ZM50.4083 5.27102L58.1526 13.6451H51.9901C51.1179 13.6451 50.4083 12.8778 50.4083 11.9347V5.27102ZM8.21113 36.9026V5.21253C8.21113 4.26938 8.92073 3.50209 9.79295 3.50209H48.0945V11.9348C48.0945 14.2572 49.8424 16.1472 51.9901 16.1472H59.7887V36.9026C59.7887 37.8458 59.0791 38.6131 58.2069 38.6131H9.79295C8.92073 38.6131 8.21113 37.8458 8.21113 36.9026ZM8.56763 67.1501C11.4572 67.1501 13.8084 69.6986 13.8084 72.8315C13.8084 75.9561 11.4572 78.4977 8.56763 78.4977C5.67077 78.4977 3.31392 75.9561 3.31392 72.8315C3.31392 69.6984 5.67077 67.1501 8.56763 67.1501Z"/>
<path d="M14.3048 15.4815H15.903C16.5352 15.4815 17.174 14.7951 17.174 14.1071C17.174 13.4162 16.656 12.8561 16.017 12.8561H14.4189C13.7867 12.8561 13.1479 13.5425 13.1479 14.2304C13.1479 14.9212 13.6659 15.4815 14.3048 15.4815Z"/>
<path d="M24.2534 14.107C24.2534 13.416 23.7355 12.8559 23.0965 12.8559H21.4978C20.8588 12.8559 20.3409 13.416 20.3409 14.107C20.3409 14.7979 20.8588 15.358 21.4978 15.358H23.0965C23.7355 15.358 24.2534 14.7979 24.2534 14.107Z"/>
<path d="M31.3329 14.107C31.3329 13.416 30.8149 12.8559 30.1759 12.8559H28.5773C27.9383 12.8559 27.4203 13.416 27.4203 14.107C27.4203 14.7979 27.9383 15.358 28.5773 15.358H30.1759C30.8149 15.358 31.3329 14.7979 31.3329 14.107Z"/>
<path d="M35.6567 15.358H37.2554C37.8944 15.358 38.4123 14.7979 38.4123 14.107C38.4123 13.416 37.8944 12.8559 37.2554 12.8559H35.6567C35.0177 12.8559 34.4998 13.416 34.4998 14.107C34.4999 14.7979 35.0179 15.358 35.6567 15.358Z"/>
<path d="M16.9124 21.7456H14.4781C14.0692 21.7456 13.1477 22.1882 13.1477 23.12C13.1477 23.8109 13.6657 24.371 14.3047 24.371H16.7383C17.1484 24.371 18.0692 23.9272 18.0692 22.9967C18.0694 22.3057 17.5514 21.7456 16.9124 21.7456Z"/>
<path d="M27.6921 21.7456H25.2578C24.6188 21.7456 24.1009 22.3057 24.1009 22.9967C24.1009 23.6876 24.6188 24.2477 25.2578 24.2477H27.6921C28.3311 24.2477 28.8491 23.6876 28.8491 22.9967C28.8491 22.3057 28.3311 21.7456 27.6921 21.7456Z"/>
<path d="M38.4718 21.7456H36.0375C35.3985 21.7456 34.8806 22.3057 34.8806 22.9967C34.8806 23.6876 35.3985 24.2477 36.0375 24.2477H38.4718C39.1108 24.2477 39.6288 23.6876 39.6288 22.9967C39.6288 22.3057 39.1106 21.7456 38.4718 21.7456Z"/>
<path d="M49.2515 21.7456H46.8172C46.1782 21.7456 45.6602 22.3057 45.6602 22.9967C45.6602 23.6876 46.1782 24.2477 46.8172 24.2477H49.2515C49.8905 24.2477 50.4084 23.6876 50.4084 22.9967C50.4083 22.3057 49.8903 21.7456 49.2515 21.7456Z"/>
<path d="M16.4351 30.1808H14.4466C13.8319 30.1808 13.1479 30.8369 13.1479 31.5552C13.1479 32.2461 13.6659 32.8062 14.3048 32.8062H16.2927C16.9032 32.8062 17.592 32.154 17.592 31.4319C17.592 30.7409 17.0741 30.1808 16.4351 30.1808Z"/>
<path d="M25.2399 30.1808H23.252C22.613 30.1808 22.095 30.7409 22.095 31.4319C22.095 32.1228 22.613 32.6829 23.252 32.6829H25.2399C25.8788 32.6829 26.3968 32.1228 26.3968 31.4319C26.3968 30.7409 25.8787 30.1808 25.2399 30.1808Z"/>
<path d="M34.0451 30.1808H32.0572C31.4183 30.1808 30.9003 30.7409 30.9003 31.4319C30.9003 32.1228 31.4183 32.6829 32.0572 32.6829H34.0451C34.6841 32.6829 35.2021 32.1228 35.2021 31.4319C35.2021 30.7409 34.6841 30.1808 34.0451 30.1808Z"/>
<path d="M42.8504 30.1808H40.8618C40.2229 30.1808 39.7049 30.7409 39.7049 31.4319C39.7049 32.1228 40.2229 32.6829 40.8618 32.6829H42.8504C43.4893 32.6829 44.0073 32.1228 44.0073 31.4319C44.0073 30.7409 43.4893 30.1808 42.8504 30.1808Z"/>
</mask>
<path d="M8.56763 80.9998C12.7332 80.9998 16.1221 77.3353 16.1221 72.8315C16.1221 68.6342 13.1887 65.169 9.42689 64.7049V58.779C9.42689 56.2116 11.3584 54.1232 13.7321 54.1232H32.8431V64.7552C29.2222 65.3636 26.4393 68.7483 26.4393 72.8317C26.4393 77.3355 29.8338 81 34.0069 81C38.1725 81 41.5614 77.3355 41.5614 72.8317C41.5614 68.744 38.7773 65.3564 35.157 64.7533V54.1232H53.9788C56.3525 54.1232 58.284 56.2117 58.284 58.779V64.7547C54.662 65.3621 51.8779 68.7474 51.8779 72.8315C51.8779 77.3353 55.2725 80.9998 59.4455 80.9998C63.6111 80.9998 67 77.3353 67 72.8315C67 68.7446 64.217 65.3577 60.5979 64.7534V58.7788C60.5979 54.8321 57.6288 51.6209 53.9788 51.6209H35.1569V41.115H58.2071C60.3548 41.115 62.1026 39.225 62.1026 36.9026V14.8962C62.1026 14.565 61.9778 14.2429 61.7633 14.0113L50.0698 1.36692C49.856 1.13539 49.5581 1 49.2515 1H9.79295C7.64521 1 5.89737 2.88996 5.89737 5.21235V36.9026C5.89737 39.225 7.64521 41.115 9.79295 41.115H32.8431V51.6209H13.7321C10.0822 51.6209 7.11297 54.8321 7.11297 58.7788V64.803C3.63414 65.5389 1 68.8572 1 72.8314C1 77.3353 4.3946 80.9998 8.56763 80.9998ZM39.2473 72.8315C39.2473 75.9561 36.8961 78.4977 34.0066 78.4977C31.1097 78.4977 28.7529 75.9561 28.7529 72.8315C28.7529 69.6984 31.1097 67.1501 34.0066 67.1501C36.8963 67.1501 39.2473 69.6984 39.2473 72.8315ZM64.6859 72.8315C64.6859 75.9561 62.3347 78.4977 59.4452 78.4977C56.5483 78.4977 54.1915 75.9561 54.1915 72.8315C54.1915 69.6984 56.5483 67.1501 59.4452 67.1501C62.3347 67.1501 64.6859 69.6984 64.6859 72.8315ZM50.4083 5.27102L58.1526 13.6451H51.9901C51.1179 13.6451 50.4083 12.8778 50.4083 11.9347V5.27102ZM8.21113 36.9026V5.21253C8.21113 4.26938 8.92073 3.50209 9.79295 3.50209H48.0945V11.9348C48.0945 14.2572 49.8424 16.1472 51.9901 16.1472H59.7887V36.9026C59.7887 37.8458 59.0791 38.6131 58.2069 38.6131H9.79295C8.92073 38.6131 8.21113 37.8458 8.21113 36.9026ZM8.56763 67.1501C11.4572 67.1501 13.8084 69.6986 13.8084 72.8315C13.8084 75.9561 11.4572 78.4977 8.56763 78.4977C5.67077 78.4977 3.31392 75.9561 3.31392 72.8315C3.31392 69.6984 5.67077 67.1501 8.56763 67.1501Z" fill="url(#paint0_linear_43_38225)"/>
<path d="M14.3048 15.4815H15.903C16.5352 15.4815 17.174 14.7951 17.174 14.1071C17.174 13.4162 16.656 12.8561 16.017 12.8561H14.4189C13.7867 12.8561 13.1479 13.5425 13.1479 14.2304C13.1479 14.9212 13.6659 15.4815 14.3048 15.4815Z" fill="url(#paint1_linear_43_38225)"/>
<path d="M24.2534 14.107C24.2534 13.416 23.7355 12.8559 23.0965 12.8559H21.4978C20.8588 12.8559 20.3409 13.416 20.3409 14.107C20.3409 14.7979 20.8588 15.358 21.4978 15.358H23.0965C23.7355 15.358 24.2534 14.7979 24.2534 14.107Z" fill="url(#paint2_linear_43_38225)"/>
<path d="M31.3329 14.107C31.3329 13.416 30.8149 12.8559 30.1759 12.8559H28.5773C27.9383 12.8559 27.4203 13.416 27.4203 14.107C27.4203 14.7979 27.9383 15.358 28.5773 15.358H30.1759C30.8149 15.358 31.3329 14.7979 31.3329 14.107Z" fill="url(#paint3_linear_43_38225)"/>
<path d="M35.6567 15.358H37.2554C37.8944 15.358 38.4123 14.7979 38.4123 14.107C38.4123 13.416 37.8944 12.8559 37.2554 12.8559H35.6567C35.0177 12.8559 34.4998 13.416 34.4998 14.107C34.4999 14.7979 35.0179 15.358 35.6567 15.358Z" fill="url(#paint4_linear_43_38225)"/>
<path d="M16.9124 21.7456H14.4781C14.0692 21.7456 13.1477 22.1882 13.1477 23.12C13.1477 23.8109 13.6657 24.371 14.3047 24.371H16.7383C17.1484 24.371 18.0692 23.9272 18.0692 22.9967C18.0694 22.3057 17.5514 21.7456 16.9124 21.7456Z" fill="url(#paint5_linear_43_38225)"/>
<path d="M27.6921 21.7456H25.2578C24.6188 21.7456 24.1009 22.3057 24.1009 22.9967C24.1009 23.6876 24.6188 24.2477 25.2578 24.2477H27.6921C28.3311 24.2477 28.8491 23.6876 28.8491 22.9967C28.8491 22.3057 28.3311 21.7456 27.6921 21.7456Z" fill="url(#paint6_linear_43_38225)"/>
<path d="M38.4718 21.7456H36.0375C35.3985 21.7456 34.8806 22.3057 34.8806 22.9967C34.8806 23.6876 35.3985 24.2477 36.0375 24.2477H38.4718C39.1108 24.2477 39.6288 23.6876 39.6288 22.9967C39.6288 22.3057 39.1106 21.7456 38.4718 21.7456Z" fill="url(#paint7_linear_43_38225)"/>
<path d="M49.2515 21.7456H46.8172C46.1782 21.7456 45.6602 22.3057 45.6602 22.9967C45.6602 23.6876 46.1782 24.2477 46.8172 24.2477H49.2515C49.8905 24.2477 50.4084 23.6876 50.4084 22.9967C50.4083 22.3057 49.8903 21.7456 49.2515 21.7456Z" fill="url(#paint8_linear_43_38225)"/>
<path d="M16.4351 30.1808H14.4466C13.8319 30.1808 13.1479 30.8369 13.1479 31.5552C13.1479 32.2461 13.6659 32.8062 14.3048 32.8062H16.2927C16.9032 32.8062 17.592 32.154 17.592 31.4319C17.592 30.7409 17.0741 30.1808 16.4351 30.1808Z" fill="url(#paint9_linear_43_38225)"/>
<path d="M25.2399 30.1808H23.252C22.613 30.1808 22.095 30.7409 22.095 31.4319C22.095 32.1228 22.613 32.6829 23.252 32.6829H25.2399C25.8788 32.6829 26.3968 32.1228 26.3968 31.4319C26.3968 30.7409 25.8787 30.1808 25.2399 30.1808Z" fill="url(#paint10_linear_43_38225)"/>
<path d="M34.0451 30.1808H32.0572C31.4183 30.1808 30.9003 30.7409 30.9003 31.4319C30.9003 32.1228 31.4183 32.6829 32.0572 32.6829H34.0451C34.6841 32.6829 35.2021 32.1228 35.2021 31.4319C35.2021 30.7409 34.6841 30.1808 34.0451 30.1808Z" fill="url(#paint11_linear_43_38225)"/>
<path d="M42.8504 30.1808H40.8618C40.2229 30.1808 39.7049 30.7409 39.7049 31.4319C39.7049 32.1228 40.2229 32.6829 40.8618 32.6829H42.8504C43.4893 32.6829 44.0073 32.1228 44.0073 31.4319C44.0073 30.7409 43.4893 30.1808 42.8504 30.1808Z" fill="url(#paint12_linear_43_38225)"/>
<path d="M8.56763 80.9998C12.7332 80.9998 16.1221 77.3353 16.1221 72.8315C16.1221 68.6342 13.1887 65.169 9.42689 64.7049V58.779C9.42689 56.2116 11.3584 54.1232 13.7321 54.1232H32.8431V64.7552C29.2222 65.3636 26.4393 68.7483 26.4393 72.8317C26.4393 77.3355 29.8338 81 34.0069 81C38.1725 81 41.5614 77.3355 41.5614 72.8317C41.5614 68.744 38.7773 65.3564 35.157 64.7533V54.1232H53.9788C56.3525 54.1232 58.284 56.2117 58.284 58.779V64.7547C54.662 65.3621 51.8779 68.7474 51.8779 72.8315C51.8779 77.3353 55.2725 80.9998 59.4455 80.9998C63.6111 80.9998 67 77.3353 67 72.8315C67 68.7446 64.217 65.3577 60.5979 64.7534V58.7788C60.5979 54.8321 57.6288 51.6209 53.9788 51.6209H35.1569V41.115H58.2071C60.3548 41.115 62.1026 39.225 62.1026 36.9026V14.8962C62.1026 14.565 61.9778 14.2429 61.7633 14.0113L50.0698 1.36692C49.856 1.13539 49.5581 1 49.2515 1H9.79295C7.64521 1 5.89737 2.88996 5.89737 5.21235V36.9026C5.89737 39.225 7.64521 41.115 9.79295 41.115H32.8431V51.6209H13.7321C10.0822 51.6209 7.11297 54.8321 7.11297 58.7788V64.803C3.63414 65.5389 1 68.8572 1 72.8314C1 77.3353 4.3946 80.9998 8.56763 80.9998ZM39.2473 72.8315C39.2473 75.9561 36.8961 78.4977 34.0066 78.4977C31.1097 78.4977 28.7529 75.9561 28.7529 72.8315C28.7529 69.6984 31.1097 67.1501 34.0066 67.1501C36.8963 67.1501 39.2473 69.6984 39.2473 72.8315ZM64.6859 72.8315C64.6859 75.9561 62.3347 78.4977 59.4452 78.4977C56.5483 78.4977 54.1915 75.9561 54.1915 72.8315C54.1915 69.6984 56.5483 67.1501 59.4452 67.1501C62.3347 67.1501 64.6859 69.6984 64.6859 72.8315ZM50.4083 5.27102L58.1526 13.6451H51.9901C51.1179 13.6451 50.4083 12.8778 50.4083 11.9347V5.27102ZM8.21113 36.9026V5.21253C8.21113 4.26938 8.92073 3.50209 9.79295 3.50209H48.0945V11.9348C48.0945 14.2572 49.8424 16.1472 51.9901 16.1472H59.7887V36.9026C59.7887 37.8458 59.0791 38.6131 58.2069 38.6131H9.79295C8.92073 38.6131 8.21113 37.8458 8.21113 36.9026ZM8.56763 67.1501C11.4572 67.1501 13.8084 69.6986 13.8084 72.8315C13.8084 75.9561 11.4572 78.4977 8.56763 78.4977C5.67077 78.4977 3.31392 75.9561 3.31392 72.8315C3.31392 69.6984 5.67077 67.1501 8.56763 67.1501Z" stroke="url(#paint13_linear_43_38225)" stroke-width="0.6" mask="url(#path-1-outside-1_43_38225)"/>
<path d="M14.3048 15.4815H15.903C16.5352 15.4815 17.174 14.7951 17.174 14.1071C17.174 13.4162 16.656 12.8561 16.017 12.8561H14.4189C13.7867 12.8561 13.1479 13.5425 13.1479 14.2304C13.1479 14.9212 13.6659 15.4815 14.3048 15.4815Z" stroke="url(#paint14_linear_43_38225)" stroke-width="0.6" mask="url(#path-1-outside-1_43_38225)"/>
<path d="M24.2534 14.107C24.2534 13.416 23.7355 12.8559 23.0965 12.8559H21.4978C20.8588 12.8559 20.3409 13.416 20.3409 14.107C20.3409 14.7979 20.8588 15.358 21.4978 15.358H23.0965C23.7355 15.358 24.2534 14.7979 24.2534 14.107Z" stroke="url(#paint15_linear_43_38225)" stroke-width="0.6" mask="url(#path-1-outside-1_43_38225)"/>
<path d="M31.3329 14.107C31.3329 13.416 30.8149 12.8559 30.1759 12.8559H28.5773C27.9383 12.8559 27.4203 13.416 27.4203 14.107C27.4203 14.7979 27.9383 15.358 28.5773 15.358H30.1759C30.8149 15.358 31.3329 14.7979 31.3329 14.107Z" stroke="url(#paint16_linear_43_38225)" stroke-width="0.6" mask="url(#path-1-outside-1_43_38225)"/>
<path d="M35.6567 15.358H37.2554C37.8944 15.358 38.4123 14.7979 38.4123 14.107C38.4123 13.416 37.8944 12.8559 37.2554 12.8559H35.6567C35.0177 12.8559 34.4998 13.416 34.4998 14.107C34.4999 14.7979 35.0179 15.358 35.6567 15.358Z" stroke="url(#paint17_linear_43_38225)" stroke-width="0.6" mask="url(#path-1-outside-1_43_38225)"/>
<path d="M16.9124 21.7456H14.4781C14.0692 21.7456 13.1477 22.1882 13.1477 23.12C13.1477 23.8109 13.6657 24.371 14.3047 24.371H16.7383C17.1484 24.371 18.0692 23.9272 18.0692 22.9967C18.0694 22.3057 17.5514 21.7456 16.9124 21.7456Z" stroke="url(#paint18_linear_43_38225)" stroke-width="0.6" mask="url(#path-1-outside-1_43_38225)"/>
<path d="M27.6921 21.7456H25.2578C24.6188 21.7456 24.1009 22.3057 24.1009 22.9967C24.1009 23.6876 24.6188 24.2477 25.2578 24.2477H27.6921C28.3311 24.2477 28.8491 23.6876 28.8491 22.9967C28.8491 22.3057 28.3311 21.7456 27.6921 21.7456Z" stroke="url(#paint19_linear_43_38225)" stroke-width="0.6" mask="url(#path-1-outside-1_43_38225)"/>
<path d="M38.4718 21.7456H36.0375C35.3985 21.7456 34.8806 22.3057 34.8806 22.9967C34.8806 23.6876 35.3985 24.2477 36.0375 24.2477H38.4718C39.1108 24.2477 39.6288 23.6876 39.6288 22.9967C39.6288 22.3057 39.1106 21.7456 38.4718 21.7456Z" stroke="url(#paint20_linear_43_38225)" stroke-width="0.6" mask="url(#path-1-outside-1_43_38225)"/>
<path d="M49.2515 21.7456H46.8172C46.1782 21.7456 45.6602 22.3057 45.6602 22.9967C45.6602 23.6876 46.1782 24.2477 46.8172 24.2477H49.2515C49.8905 24.2477 50.4084 23.6876 50.4084 22.9967C50.4083 22.3057 49.8903 21.7456 49.2515 21.7456Z" stroke="url(#paint21_linear_43_38225)" stroke-width="0.6" mask="url(#path-1-outside-1_43_38225)"/>
<path d="M16.4351 30.1808H14.4466C13.8319 30.1808 13.1479 30.8369 13.1479 31.5552C13.1479 32.2461 13.6659 32.8062 14.3048 32.8062H16.2927C16.9032 32.8062 17.592 32.154 17.592 31.4319C17.592 30.7409 17.0741 30.1808 16.4351 30.1808Z" stroke="url(#paint22_linear_43_38225)" stroke-width="0.6" mask="url(#path-1-outside-1_43_38225)"/>
<path d="M25.2399 30.1808H23.252C22.613 30.1808 22.095 30.7409 22.095 31.4319C22.095 32.1228 22.613 32.6829 23.252 32.6829H25.2399C25.8788 32.6829 26.3968 32.1228 26.3968 31.4319C26.3968 30.7409 25.8787 30.1808 25.2399 30.1808Z" stroke="url(#paint23_linear_43_38225)" stroke-width="0.6" mask="url(#path-1-outside-1_43_38225)"/>
<path d="M34.0451 30.1808H32.0572C31.4183 30.1808 30.9003 30.7409 30.9003 31.4319C30.9003 32.1228 31.4183 32.6829 32.0572 32.6829H34.0451C34.6841 32.6829 35.2021 32.1228 35.2021 31.4319C35.2021 30.7409 34.6841 30.1808 34.0451 30.1808Z" stroke="url(#paint24_linear_43_38225)" stroke-width="0.6" mask="url(#path-1-outside-1_43_38225)"/>
<path d="M42.8504 30.1808H40.8618C40.2229 30.1808 39.7049 30.7409 39.7049 31.4319C39.7049 32.1228 40.2229 32.6829 40.8618 32.6829H42.8504C43.4893 32.6829 44.0073 32.1228 44.0073 31.4319C44.0073 30.7409 43.4893 30.1808 42.8504 30.1808Z" stroke="url(#paint25_linear_43_38225)" stroke-width="0.6" mask="url(#path-1-outside-1_43_38225)"/>
<defs>
<linearGradient id="paint0_linear_43_38225" x1="37.05" y1="123.826" x2="-25.9214" y2="93.2362" gradientUnits="userSpaceOnUse">
<stop stop-color="#723AA9"/>
<stop offset="1" stop-color="#1DE1D3"/>
</linearGradient>
<linearGradient id="paint1_linear_43_38225" x1="37.05" y1="123.826" x2="-25.9214" y2="93.2362" gradientUnits="userSpaceOnUse">
<stop stop-color="#723AA9"/>
<stop offset="1" stop-color="#1DE1D3"/>
</linearGradient>
<linearGradient id="paint2_linear_43_38225" x1="37.05" y1="123.826" x2="-25.9214" y2="93.2362" gradientUnits="userSpaceOnUse">
<stop stop-color="#723AA9"/>
<stop offset="1" stop-color="#1DE1D3"/>
</linearGradient>
<linearGradient id="paint3_linear_43_38225" x1="37.05" y1="123.826" x2="-25.9214" y2="93.2362" gradientUnits="userSpaceOnUse">
<stop stop-color="#723AA9"/>
<stop offset="1" stop-color="#1DE1D3"/>
</linearGradient>
<linearGradient id="paint4_linear_43_38225" x1="37.05" y1="123.826" x2="-25.9214" y2="93.2362" gradientUnits="userSpaceOnUse">
<stop stop-color="#723AA9"/>
<stop offset="1" stop-color="#1DE1D3"/>
</linearGradient>
<linearGradient id="paint5_linear_43_38225" x1="37.05" y1="123.826" x2="-25.9214" y2="93.2362" gradientUnits="userSpaceOnUse">
<stop stop-color="#723AA9"/>
<stop offset="1" stop-color="#1DE1D3"/>
</linearGradient>
<linearGradient id="paint6_linear_43_38225" x1="37.05" y1="123.826" x2="-25.9214" y2="93.2362" gradientUnits="userSpaceOnUse">
<stop stop-color="#723AA9"/>
<stop offset="1" stop-color="#1DE1D3"/>
</linearGradient>
<linearGradient id="paint7_linear_43_38225" x1="37.05" y1="123.826" x2="-25.9214" y2="93.2362" gradientUnits="userSpaceOnUse">
<stop stop-color="#723AA9"/>
<stop offset="1" stop-color="#1DE1D3"/>
</linearGradient>
<linearGradient id="paint8_linear_43_38225" x1="37.05" y1="123.826" x2="-25.9214" y2="93.2362" gradientUnits="userSpaceOnUse">
<stop stop-color="#723AA9"/>
<stop offset="1" stop-color="#1DE1D3"/>
</linearGradient>
<linearGradient id="paint9_linear_43_38225" x1="37.05" y1="123.826" x2="-25.9214" y2="93.2362" gradientUnits="userSpaceOnUse">
<stop stop-color="#723AA9"/>
<stop offset="1" stop-color="#1DE1D3"/>
</linearGradient>
<linearGradient id="paint10_linear_43_38225" x1="37.05" y1="123.826" x2="-25.9214" y2="93.2362" gradientUnits="userSpaceOnUse">
<stop stop-color="#723AA9"/>
<stop offset="1" stop-color="#1DE1D3"/>
</linearGradient>
<linearGradient id="paint11_linear_43_38225" x1="37.05" y1="123.826" x2="-25.9214" y2="93.2362" gradientUnits="userSpaceOnUse">
<stop stop-color="#723AA9"/>
<stop offset="1" stop-color="#1DE1D3"/>
</linearGradient>
<linearGradient id="paint12_linear_43_38225" x1="37.05" y1="123.826" x2="-25.9214" y2="93.2362" gradientUnits="userSpaceOnUse">
<stop stop-color="#723AA9"/>
<stop offset="1" stop-color="#1DE1D3"/>
</linearGradient>
<linearGradient id="paint13_linear_43_38225" x1="37.05" y1="123.826" x2="-25.9214" y2="93.2362" gradientUnits="userSpaceOnUse">
<stop stop-color="#723AA9"/>
<stop offset="1" stop-color="#1DE1D3"/>
</linearGradient>
<linearGradient id="paint14_linear_43_38225" x1="37.05" y1="123.826" x2="-25.9214" y2="93.2362" gradientUnits="userSpaceOnUse">
<stop stop-color="#723AA9"/>
<stop offset="1" stop-color="#1DE1D3"/>
</linearGradient>
<linearGradient id="paint15_linear_43_38225" x1="37.05" y1="123.826" x2="-25.9214" y2="93.2362" gradientUnits="userSpaceOnUse">
<stop stop-color="#723AA9"/>
<stop offset="1" stop-color="#1DE1D3"/>
</linearGradient>
<linearGradient id="paint16_linear_43_38225" x1="37.05" y1="123.826" x2="-25.9214" y2="93.2362" gradientUnits="userSpaceOnUse">
<stop stop-color="#723AA9"/>
<stop offset="1" stop-color="#1DE1D3"/>
</linearGradient>
<linearGradient id="paint17_linear_43_38225" x1="37.05" y1="123.826" x2="-25.9214" y2="93.2362" gradientUnits="userSpaceOnUse">
<stop stop-color="#723AA9"/>
<stop offset="1" stop-color="#1DE1D3"/>
</linearGradient>
<linearGradient id="paint18_linear_43_38225" x1="37.05" y1="123.826" x2="-25.9214" y2="93.2362" gradientUnits="userSpaceOnUse">
<stop stop-color="#723AA9"/>
<stop offset="1" stop-color="#1DE1D3"/>
</linearGradient>
<linearGradient id="paint19_linear_43_38225" x1="37.05" y1="123.826" x2="-25.9214" y2="93.2362" gradientUnits="userSpaceOnUse">
<stop stop-color="#723AA9"/>
<stop offset="1" stop-color="#1DE1D3"/>
</linearGradient>
<linearGradient id="paint20_linear_43_38225" x1="37.05" y1="123.826" x2="-25.9214" y2="93.2362" gradientUnits="userSpaceOnUse">
<stop stop-color="#723AA9"/>
<stop offset="1" stop-color="#1DE1D3"/>
</linearGradient>
<linearGradient id="paint21_linear_43_38225" x1="37.05" y1="123.826" x2="-25.9214" y2="93.2362" gradientUnits="userSpaceOnUse">
<stop stop-color="#723AA9"/>
<stop offset="1" stop-color="#1DE1D3"/>
</linearGradient>
<linearGradient id="paint22_linear_43_38225" x1="37.05" y1="123.826" x2="-25.9214" y2="93.2362" gradientUnits="userSpaceOnUse">
<stop stop-color="#723AA9"/>
<stop offset="1" stop-color="#1DE1D3"/>
</linearGradient>
<linearGradient id="paint23_linear_43_38225" x1="37.05" y1="123.826" x2="-25.9214" y2="93.2362" gradientUnits="userSpaceOnUse">
<stop stop-color="#723AA9"/>
<stop offset="1" stop-color="#1DE1D3"/>
</linearGradient>
<linearGradient id="paint24_linear_43_38225" x1="37.05" y1="123.826" x2="-25.9214" y2="93.2362" gradientUnits="userSpaceOnUse">
<stop stop-color="#723AA9"/>
<stop offset="1" stop-color="#1DE1D3"/>
</linearGradient>
<linearGradient id="paint25_linear_43_38225" x1="37.05" y1="123.826" x2="-25.9214" y2="93.2362" gradientUnits="userSpaceOnUse">
<stop stop-color="#723AA9"/>
<stop offset="1" stop-color="#1DE1D3"/>
</linearGradient>
</defs>
</svg>
