<svg width="65" height="80" viewBox="0 0 65 80" fill="none" xmlns="http://www.w3.org/2000/svg">
<path d="M32.5 45.7143C25.9852 45.7143 20.6818 50.8429 20.6818 57.1429C20.6818 63.4429 25.9852 68.5714 32.5 68.5714C39.0148 68.5714 44.3182 63.4429 44.3182 57.1429C44.3182 50.8429 39.0148 45.7143 32.5 45.7143ZM32.5 65.7143C27.6102 65.7143 23.6364 61.8714 23.6364 57.1429C23.6364 52.4143 27.6102 48.5714 32.5 48.5714C37.3898 48.5714 41.3636 52.4143 41.3636 57.1429C41.3636 61.8714 37.3898 65.7143 32.5 65.7143ZM57.6136 0H7.38636C3.30909 0 0 3.2 0 7.14286V64.2857C0 68.2286 3.30909 71.4286 7.38636 71.4286H14.0784C14.2705 71.7429 14.4773 72.0286 14.758 72.3L16.8409 74.3143C18.5693 75.9857 21.3761 75.9857 23.1045 74.3143L24.8625 72.6143C25.4239 72.8714 26 73.1 26.5909 73.3V75.7143C26.5909 78.0714 28.5852 80 31.0227 80H33.9773C36.4148 80 38.4091 78.0714 38.4091 75.7143V73.3C39 73.1 39.5761 72.8714 40.1375 72.6143L41.8955 74.3143C43.6239 75.9857 46.4307 75.9857 48.1591 74.3143L50.242 72.3C50.508 72.0429 50.7295 71.7429 50.9216 71.4286H57.6136C61.6909 71.4286 65 68.2286 65 64.2857V7.14286C65 3.2 61.6909 0 57.6136 0ZM7.38636 2.85714H57.6136C60.0511 2.85714 62.0455 4.78571 62.0455 7.14286V17.1429H27.817C27.4182 17.1429 27.0489 16.9857 26.7682 16.7143L25.5568 15.5429C24.7148 14.7286 23.6068 14.2857 22.4102 14.2857H2.95455V7.14286C2.95455 4.78571 4.94886 2.85714 7.38636 2.85714ZM48.1591 70.2714L46.0761 72.2857C45.5 72.8429 44.5545 72.8429 43.9784 72.2857L41.4523 69.8571C40.9795 69.4143 40.2705 69.3143 39.6943 69.6143C38.675 70.1571 37.6114 70.5857 36.533 70.8714C35.8977 71.0429 35.4545 71.6 35.4545 72.2429V75.7C35.4545 76.4857 34.7898 77.1286 33.9773 77.1286H31.0227C30.2102 77.1286 29.5455 76.4857 29.5455 75.7V72.2429C29.5455 71.6 29.1023 71.0429 28.467 70.8714C27.3886 70.5857 26.325 70.1571 25.3057 69.6143C25.0841 69.5 24.833 69.4286 24.5966 69.4286C24.2125 69.4286 23.8432 69.5714 23.5477 69.8429L21.0216 72.2714C20.4455 72.8286 19.5 72.8286 18.9239 72.2714L16.8409 70.2571C16.2648 69.7 16.2648 68.7857 16.8409 68.2286L19.3523 65.7857C19.8102 65.3286 19.9136 64.6429 19.6034 64.0857C19.042 63.1 18.5989 62.0714 18.3034 61.0286C18.1261 60.4143 17.55 59.9857 16.8852 59.9857H13.3102C12.4977 59.9857 11.833 59.3429 11.833 58.5571V55.7C11.833 54.9143 12.4977 54.2714 13.3102 54.2714H16.8852C17.55 54.2714 18.1261 53.8429 18.3034 53.2286C18.5989 52.1857 19.042 51.1571 19.6034 50.1714C19.9284 49.6143 19.825 48.9286 19.3523 48.4714L16.8409 46.0286C16.2648 45.4714 16.2648 44.5571 16.8409 44L18.9239 41.9857C19.5 41.4286 20.4455 41.4286 21.0216 41.9857L23.5477 44.4143C24.0057 44.8571 24.7295 44.9571 25.3057 44.6571C26.325 44.1143 27.3886 43.6857 28.467 43.4C29.1023 43.2286 29.5455 42.6714 29.5455 42.0286V38.5714C29.5455 37.7857 30.2102 37.1429 31.0227 37.1429H33.9773C34.7898 37.1429 35.4545 37.7857 35.4545 38.5714V42.0286C35.4545 42.6714 35.8977 43.2286 36.533 43.4C37.6114 43.6857 38.675 44.1143 39.6943 44.6571C40.2705 44.9714 40.9795 44.8714 41.4523 44.4143L43.9784 41.9857C44.5545 41.4286 45.5 41.4286 46.0761 41.9857L48.1591 44C48.7352 44.5571 48.7352 45.4714 48.1591 46.0286L45.6477 48.4714C45.1898 48.9286 45.0864 49.6143 45.3966 50.1714C45.958 51.1571 46.4011 52.1857 46.6966 53.2286C46.8739 53.8429 47.45 54.2714 48.1148 54.2714H51.6898C52.5023 54.2714 53.167 54.9143 53.167 55.7V58.5571C53.167 59.3429 52.5023 59.9857 51.6898 59.9857H48.1148C47.45 59.9857 46.8739 60.4143 46.6966 61.0286C46.4011 62.0714 45.958 63.1 45.3966 64.0857C45.0716 64.6429 45.175 65.3286 45.6477 65.7857L48.1591 68.2286C48.7352 68.7857 48.7352 69.7 48.1591 70.2571V70.2714ZM57.6136 68.5714H51.483C51.3352 67.7143 50.9364 66.9 50.2568 66.2286L48.4989 64.5286C48.7648 63.9857 49.0011 63.4286 49.208 62.8571H51.7045C54.142 62.8571 56.1364 60.9286 56.1364 58.5714V55.7143C56.1364 53.3571 54.142 51.4286 51.7045 51.4286H49.208C49.0011 50.8571 48.7648 50.3 48.4989 49.7571L50.2568 48.0571C51.9852 46.3857 51.9852 43.6714 50.2568 42L48.1739 39.9857C46.4455 38.3143 43.6386 38.3143 41.9102 39.9857L40.1523 41.6857C39.5909 41.4286 39.0148 41.2 38.4239 41V38.5857C38.4239 36.2286 36.4295 34.3 33.992 34.3H31.0375C28.6 34.3 26.6057 36.2286 26.6057 38.5857V41C26.0148 41.2 25.4386 41.4286 24.8773 41.6857L23.1193 39.9857C21.3909 38.3143 18.5841 38.3143 16.8557 39.9857L14.7727 42C13.0443 43.6714 13.0443 46.3857 14.7727 48.0571L16.5307 49.7571C16.2648 50.3 16.0284 50.8571 15.8216 51.4286H13.325C10.8875 51.4286 8.89318 53.3571 8.89318 55.7143V58.5714C8.89318 60.9286 10.8875 62.8571 13.325 62.8571H15.8216C16.0284 63.4286 16.2648 63.9857 16.5307 64.5286L14.7727 66.2286C14.0932 66.8857 13.6943 67.7143 13.5466 68.5714H7.41591C4.97841 68.5714 2.98409 66.6429 2.98409 64.2857V17.1429H22.4398C22.8386 17.1429 23.208 17.3 23.4886 17.5714L24.7 18.7429C25.542 19.5571 26.65 20 27.8466 20H62.075V64.2857C62.075 66.6429 60.0807 68.5714 57.6432 68.5714H57.6136ZM51.7045 14.2857C54.142 14.2857 56.1364 12.3571 56.1364 10C56.1364 7.64286 54.142 5.71429 51.7045 5.71429C49.267 5.71429 47.2727 7.64286 47.2727 10C47.2727 12.3571 49.267 14.2857 51.7045 14.2857ZM51.7045 8.57143C52.517 8.57143 53.1818 9.21429 53.1818 10C53.1818 10.7857 52.517 11.4286 51.7045 11.4286C50.892 11.4286 50.2273 10.7857 50.2273 10C50.2273 9.21429 50.892 8.57143 51.7045 8.57143ZM39.8864 14.2857C42.3239 14.2857 44.3182 12.3571 44.3182 10C44.3182 7.64286 42.3239 5.71429 39.8864 5.71429C37.4489 5.71429 35.4545 7.64286 35.4545 10C35.4545 12.3571 37.4489 14.2857 39.8864 14.2857ZM39.8864 8.57143C40.6989 8.57143 41.3636 9.21429 41.3636 10C41.3636 10.7857 40.6989 11.4286 39.8864 11.4286C39.0739 11.4286 38.4091 10.7857 38.4091 10C38.4091 9.21429 39.0739 8.57143 39.8864 8.57143ZM17.7273 21.4286H11.8182C9.38068 21.4286 7.38636 23.3571 7.38636 25.7143V31.4286C7.38636 33.7857 9.38068 35.7143 11.8182 35.7143H17.7273C20.1648 35.7143 22.1591 33.7857 22.1591 31.4286V25.7143C22.1591 23.3571 20.1648 21.4286 17.7273 21.4286ZM19.2045 31.4286C19.2045 32.2143 18.5398 32.8571 17.7273 32.8571H11.8182C11.0057 32.8571 10.3409 32.2143 10.3409 31.4286V25.7143C10.3409 24.9286 11.0057 24.2857 11.8182 24.2857H17.7273C18.5398 24.2857 19.2045 24.9286 19.2045 25.7143V31.4286Z" fill="url(#paint0_linear_43_38235)"/>
<defs>
<linearGradient id="paint0_linear_43_38235" x1="35.5038" y1="122.826" x2="-26.8717" y2="92.9848" gradientUnits="userSpaceOnUse">
<stop stop-color="#723AA9"/>
<stop offset="1" stop-color="#1DE1D3"/>
</linearGradient>
</defs>
</svg>
