<svg width="85" height="80" viewBox="0 0 85 80" fill="none" xmlns="http://www.w3.org/2000/svg">
<mask id="path-1-inside-1_43_38240" fill="white">
<path d="M5.48405 16.774C5.48405 16.0613 6.09785 15.4836 6.85501 15.4836H31.5324C32.2895 15.4836 32.9033 16.0613 32.9033 16.774C32.9033 17.4866 32.2895 18.0643 31.5324 18.0643H6.85501C6.09785 18.0643 5.48405 17.4866 5.48405 16.774Z"/>
<path d="M5.48405 21.9353C5.48405 21.2226 6.09785 20.645 6.85501 20.645H31.5324C32.2895 20.645 32.9033 21.2226 32.9033 21.9353C32.9033 22.6479 32.2895 23.2256 31.5324 23.2256H6.85501C6.09785 23.2256 5.48405 22.6479 5.48405 21.9353Z"/>
<path d="M5.48405 27.0966C5.48405 26.384 6.09785 25.8063 6.85501 25.8063H31.5324C32.2895 25.8063 32.9033 26.384 32.9033 27.0966C32.9033 27.8092 32.2895 28.3869 31.5324 28.3869H6.85501C6.09785 28.3869 5.48405 27.8092 5.48405 27.0966Z"/>
<path d="M5.48405 32.2579C5.48405 31.5453 6.09785 30.9676 6.85501 30.9676H31.5324C32.2895 30.9676 32.9033 31.5453 32.9033 32.2579C32.9033 32.9705 32.2895 33.5482 31.5324 33.5482H6.85501C6.09785 33.5482 5.48405 32.9705 5.48405 32.2579Z"/>
<path d="M57.5807 6.45135C57.5807 5.73872 58.1945 5.16102 58.9517 5.16102C59.7088 5.16102 60.3226 5.73872 60.3226 6.45135C60.3226 7.16398 59.7088 7.74168 58.9517 7.74168C58.1945 7.74168 57.5807 7.16398 57.5807 6.45135Z"/>
<path d="M52.0968 6.45135C52.0968 5.73872 52.7107 5.16102 53.4678 5.16102C54.225 5.16102 54.8388 5.73872 54.8388 6.45135C54.8388 7.16398 54.225 7.74168 53.4678 7.74168C52.7107 7.74168 52.0968 7.16398 52.0968 6.45135Z"/>
<path d="M46.613 6.45135C46.613 5.73872 47.2268 5.16102 47.984 5.16102C48.7411 5.16102 49.3549 5.73872 49.3549 6.45135C49.3549 7.16398 48.7411 7.74168 47.984 7.74168C47.2268 7.74168 46.613 7.16398 46.613 6.45135Z"/>
<path d="M83.629 47.7418H78.854C78.2864 45.5186 77.3665 43.4179 76.1052 41.4786L79.4764 38.3057C79.7341 38.0631 79.8781 37.7366 79.8781 37.3934C79.8781 37.0502 79.7341 36.7224 79.4764 36.4811L73.6594 31.0063C73.1453 30.5224 72.2349 30.5224 71.7208 31.0063L68.3496 34.1792C67.5298 33.7082 66.6771 33.3018 65.8065 32.9314V5.32818C65.8065 2.38573 63.2721 0.000404389 60.1458 0.000382445L5.6608 1.51415e-10C2.53443 -2.19447e-05 -1.23686e-05 2.38534 0 5.32782L0.000172162 46.285C0.000184531 49.2275 2.53459 51.6128 5.66093 51.6128H27.4195V56.7741C27.4195 57.4877 28.0337 58.0644 28.7905 58.0644H33.5655C34.1331 60.289 35.0544 62.3883 36.3143 64.3277L32.9431 67.5006C32.6854 67.7432 32.5414 68.0696 32.5414 68.4129C32.5414 68.7561 32.6854 69.0838 32.9431 69.3251L38.7601 74.8C39.0247 75.049 39.3921 75.1652 39.7582 75.1574V78.7097C39.7582 79.4232 40.3724 80 41.1291 80H71.2904C72.0471 80 72.6613 79.4232 72.6613 78.7097V75.1742C72.6709 75.1742 72.6805 75.1793 72.6901 75.1793C73.0534 75.1793 73.403 75.0439 73.6594 74.8013L79.475 69.3264C80.0111 68.8219 80.0111 68.0064 79.475 67.5019L76.1038 64.329C77.3651 62.3883 78.2864 60.289 78.8526 58.0657H83.629C84.3858 58.0657 85 57.489 85 56.7754V49.0334C85 48.3186 84.3858 47.7418 83.629 47.7418ZM60.2342 2.58037C61.7974 2.58037 63.0646 3.77304 63.0646 5.24427V10.3223H2.74212V5.24427C2.74212 3.77304 4.00933 2.58037 5.5725 2.58037H60.2342ZM27.4195 49.0321H5.5725C4.00933 49.0321 2.74212 47.8395 2.74212 46.3682V12.903H63.0646V31.9534C62.6108 31.8231 62.157 31.6953 61.6936 31.5908V27.0966C61.6936 26.383 61.0794 25.8063 60.3226 25.8063V19.4795C60.3226 17.2726 58.4218 15.4836 56.0771 15.4836H39.8909C37.5461 15.4836 35.6453 17.2726 35.6453 19.4795V32.2579C35.6453 32.716 35.9126 33.0979 36.2938 33.3276L33.3174 36.1289H6.85501C6.09824 36.1289 5.48405 36.7057 5.48405 37.4192V45.1612C5.48405 45.8747 6.09824 46.4515 6.85501 46.4515H33.9521C33.8137 46.8786 33.678 47.3057 33.5669 47.7418H28.7905C28.0337 47.7418 27.4195 48.3186 27.4195 49.0321ZM38.8218 30.9676H38.3872V19.3962C38.3872 18.6606 39.0208 18.0643 39.8024 18.0643H56.1655C56.9471 18.0643 57.5807 18.6606 57.5807 19.3962V25.8063H52.0968C51.3401 25.8063 50.7259 26.383 50.7259 27.0966V31.5908C48.361 32.125 46.1304 32.9921 44.0712 34.1779L40.7 31.005C40.2024 30.5379 39.3441 30.5327 38.8218 30.9676ZM34.9886 43.8708H8.22598V38.7095H33.3736L36.3157 41.4786C35.8139 42.2489 35.3821 43.0515 34.9886 43.8708ZM42.5001 77.4193V72.4142C42.5001 70.9922 43.0883 69.658 44.1549 68.6542C45.2078 67.6645 46.6637 67.0967 48.1498 67.0967H51.0769L54.3672 77.4193H42.5001ZM48.3911 59.3548C48.1279 58.6025 47.984 57.8102 47.984 56.996V56.7741C50.2241 56.7741 52.2161 55.7573 53.4678 54.1896C54.7195 55.7573 56.7115 56.7741 58.9517 56.7741H64.4355V56.996C64.4355 59.0051 63.6047 60.8941 62.0953 62.3135C60.5859 63.7341 58.5788 64.5161 56.4442 64.5161H55.9739C53.8393 64.5161 51.8322 63.7341 50.3228 62.3135C50.1939 62.1922 50.0774 62.0632 49.9581 61.9354H54.8388C55.5959 61.9354 56.2097 61.3577 56.2097 60.6451C56.2097 59.9325 55.5959 59.3548 54.8388 59.3548H48.3911ZM64.4355 54.1935H58.9517C56.6841 54.1935 54.8388 52.4567 54.8388 50.3225C54.8388 49.6089 54.2246 49.0321 53.4678 49.0321C52.711 49.0321 52.0968 49.6089 52.0968 50.3225C52.0968 52.4567 50.2515 54.1935 47.984 54.1935V53.9715C47.984 51.9625 48.8148 50.0734 50.3242 48.6541C51.8336 47.2334 53.8407 46.4515 55.9753 46.4515H56.4455C58.5801 46.4515 60.5872 47.2334 62.0967 48.6541C63.6047 50.0747 64.4355 51.9625 64.4355 53.9715V54.1935ZM67.1775 56.996V54.1935H68.5484C69.3038 54.1935 69.9194 54.7715 69.9194 55.4838V58.0644C69.9194 58.7767 69.3038 59.3548 68.5484 59.3548H66.8731C67.0664 58.5896 67.1775 57.8025 67.1775 56.996ZM66.8731 51.6128C66.4179 49.8167 65.4555 48.1663 64.0352 46.8296C62.0062 44.9212 59.3109 43.8708 56.4442 43.8708H55.9739C53.1073 43.8708 50.4119 44.9212 48.3843 46.8296C46.9626 48.1663 46.0002 49.8167 45.5464 51.6128H45.242C45.242 45.9212 50.1624 41.2902 56.2097 41.2902C62.2571 41.2902 67.1775 45.9212 67.1775 51.6128H66.8731ZM43.8711 54.1935H45.242V56.996C45.242 57.8025 45.3531 58.5909 45.5477 59.3548H43.8711C43.1157 59.3548 42.5001 58.7767 42.5001 58.0644V55.4838C42.5001 54.7715 43.1157 54.1935 43.8711 54.1935ZM53.8777 66.9045C54.5618 67.0309 55.2624 67.0967 55.9753 67.0967H56.4455C57.1571 67.0967 57.859 67.0309 58.5418 66.9045L56.2097 74.2193L53.8777 66.9045ZM69.9194 77.4193H58.0523L61.3426 67.0967H64.2696C65.7558 67.0967 67.2117 67.6645 68.2646 68.6542C69.3312 69.658 69.9194 70.9935 69.9194 72.4142V77.4193ZM82.2581 55.4838H77.7462C77.0882 55.4838 76.5219 55.9251 76.3999 56.5328C75.8721 59.1522 74.8014 61.5896 73.2193 63.778C72.8478 64.2903 72.9177 64.978 73.3838 65.4167L76.5686 68.4129L72.6915 72.0632L72.6421 72.0167C72.5393 70.0555 71.6893 68.2258 70.2045 66.8283C68.617 65.338 66.5098 64.5161 64.2696 64.5161H63.591C63.7391 64.3909 63.8913 64.2722 64.0338 64.138C64.7385 63.4748 65.3267 62.7315 65.8024 61.9354H68.5484C70.816 61.9354 72.6613 60.1986 72.6613 58.0644V55.4838C72.6613 53.8038 71.5111 52.3844 69.9194 51.8502V51.6128C69.9194 44.4979 63.7692 38.7095 56.2097 38.7095C48.6502 38.7095 42.5001 44.4979 42.5001 51.6128V51.8502C40.9084 52.3844 39.7582 53.8038 39.7582 55.4838V58.0644C39.7582 60.1986 41.6035 61.9354 43.8711 61.9354H46.6171C47.0928 62.7315 47.681 63.4748 48.3856 64.138C48.5282 64.2722 48.6804 64.3909 48.8285 64.5161H48.1498C45.9097 64.5161 43.8025 65.338 42.2163 66.8296C40.7316 68.2258 39.8816 70.0567 39.7787 72.018L39.7294 72.0645L35.8509 68.4142L39.0357 65.418C39.5018 64.9793 39.5704 64.2928 39.2002 63.7793C37.6195 61.5909 36.5488 59.1535 36.0196 56.5341C35.8962 55.9251 35.3313 55.4838 34.6733 55.4838H30.1614V50.3225H34.6733C35.3313 50.3225 35.8975 49.8812 36.0196 49.2734C36.5488 46.6528 37.6181 44.2141 39.2002 42.0283C39.5717 41.5173 39.5018 40.8282 39.0357 40.3895L35.8509 37.3934L39.728 33.7431L42.9128 36.7405C43.3775 37.1792 44.1082 37.245 44.6539 36.894C46.9749 35.4063 49.5647 34.3986 52.3505 33.9018C52.9989 33.7856 53.4678 33.2527 53.4678 32.6334V28.3869H58.9517V32.6334C58.9517 33.2527 59.4205 33.7856 60.0663 33.9005C62.8521 34.3986 65.4418 35.405 67.7642 36.8928C68.3112 37.245 69.0406 37.1766 69.5054 36.7392L72.6901 33.7418L76.5686 37.3921L73.3838 40.3882C72.9177 40.827 72.8491 41.5134 73.2193 42.027C74.8014 44.2154 75.8708 46.6528 76.3986 49.2721C76.522 49.8812 77.0882 50.3225 77.7462 50.3225H82.2581V55.4838Z"/>
</mask>
<path d="M5.48405 16.774C5.48405 16.0613 6.09785 15.4836 6.85501 15.4836H31.5324C32.2895 15.4836 32.9033 16.0613 32.9033 16.774C32.9033 17.4866 32.2895 18.0643 31.5324 18.0643H6.85501C6.09785 18.0643 5.48405 17.4866 5.48405 16.774Z" fill="url(#paint0_linear_43_38240)"/>
<path d="M5.48405 21.9353C5.48405 21.2226 6.09785 20.645 6.85501 20.645H31.5324C32.2895 20.645 32.9033 21.2226 32.9033 21.9353C32.9033 22.6479 32.2895 23.2256 31.5324 23.2256H6.85501C6.09785 23.2256 5.48405 22.6479 5.48405 21.9353Z" fill="url(#paint1_linear_43_38240)"/>
<path d="M5.48405 27.0966C5.48405 26.384 6.09785 25.8063 6.85501 25.8063H31.5324C32.2895 25.8063 32.9033 26.384 32.9033 27.0966C32.9033 27.8092 32.2895 28.3869 31.5324 28.3869H6.85501C6.09785 28.3869 5.48405 27.8092 5.48405 27.0966Z" fill="url(#paint2_linear_43_38240)"/>
<path d="M5.48405 32.2579C5.48405 31.5453 6.09785 30.9676 6.85501 30.9676H31.5324C32.2895 30.9676 32.9033 31.5453 32.9033 32.2579C32.9033 32.9705 32.2895 33.5482 31.5324 33.5482H6.85501C6.09785 33.5482 5.48405 32.9705 5.48405 32.2579Z" fill="url(#paint3_linear_43_38240)"/>
<path d="M57.5807 6.45135C57.5807 5.73872 58.1945 5.16102 58.9517 5.16102C59.7088 5.16102 60.3226 5.73872 60.3226 6.45135C60.3226 7.16398 59.7088 7.74168 58.9517 7.74168C58.1945 7.74168 57.5807 7.16398 57.5807 6.45135Z" fill="url(#paint4_linear_43_38240)"/>
<path d="M52.0968 6.45135C52.0968 5.73872 52.7107 5.16102 53.4678 5.16102C54.225 5.16102 54.8388 5.73872 54.8388 6.45135C54.8388 7.16398 54.225 7.74168 53.4678 7.74168C52.7107 7.74168 52.0968 7.16398 52.0968 6.45135Z" fill="url(#paint5_linear_43_38240)"/>
<path d="M46.613 6.45135C46.613 5.73872 47.2268 5.16102 47.984 5.16102C48.7411 5.16102 49.3549 5.73872 49.3549 6.45135C49.3549 7.16398 48.7411 7.74168 47.984 7.74168C47.2268 7.74168 46.613 7.16398 46.613 6.45135Z" fill="url(#paint6_linear_43_38240)"/>
<path d="M83.629 47.7418H78.854C78.2864 45.5186 77.3665 43.4179 76.1052 41.4786L79.4764 38.3057C79.7341 38.0631 79.8781 37.7366 79.8781 37.3934C79.8781 37.0502 79.7341 36.7224 79.4764 36.4811L73.6594 31.0063C73.1453 30.5224 72.2349 30.5224 71.7208 31.0063L68.3496 34.1792C67.5298 33.7082 66.6771 33.3018 65.8065 32.9314V5.32818C65.8065 2.38573 63.2721 0.000404389 60.1458 0.000382445L5.6608 1.51415e-10C2.53443 -2.19447e-05 -1.23686e-05 2.38534 0 5.32782L0.000172162 46.285C0.000184531 49.2275 2.53459 51.6128 5.66093 51.6128H27.4195V56.7741C27.4195 57.4877 28.0337 58.0644 28.7905 58.0644H33.5655C34.1331 60.289 35.0544 62.3883 36.3143 64.3277L32.9431 67.5006C32.6854 67.7432 32.5414 68.0696 32.5414 68.4129C32.5414 68.7561 32.6854 69.0838 32.9431 69.3251L38.7601 74.8C39.0247 75.049 39.3921 75.1652 39.7582 75.1574V78.7097C39.7582 79.4232 40.3724 80 41.1291 80H71.2904C72.0471 80 72.6613 79.4232 72.6613 78.7097V75.1742C72.6709 75.1742 72.6805 75.1793 72.6901 75.1793C73.0534 75.1793 73.403 75.0439 73.6594 74.8013L79.475 69.3264C80.0111 68.8219 80.0111 68.0064 79.475 67.5019L76.1038 64.329C77.3651 62.3883 78.2864 60.289 78.8526 58.0657H83.629C84.3858 58.0657 85 57.489 85 56.7754V49.0334C85 48.3186 84.3858 47.7418 83.629 47.7418ZM60.2342 2.58037C61.7974 2.58037 63.0646 3.77304 63.0646 5.24427V10.3223H2.74212V5.24427C2.74212 3.77304 4.00933 2.58037 5.5725 2.58037H60.2342ZM27.4195 49.0321H5.5725C4.00933 49.0321 2.74212 47.8395 2.74212 46.3682V12.903H63.0646V31.9534C62.6108 31.8231 62.157 31.6953 61.6936 31.5908V27.0966C61.6936 26.383 61.0794 25.8063 60.3226 25.8063V19.4795C60.3226 17.2726 58.4218 15.4836 56.0771 15.4836H39.8909C37.5461 15.4836 35.6453 17.2726 35.6453 19.4795V32.2579C35.6453 32.716 35.9126 33.0979 36.2938 33.3276L33.3174 36.1289H6.85501C6.09824 36.1289 5.48405 36.7057 5.48405 37.4192V45.1612C5.48405 45.8747 6.09824 46.4515 6.85501 46.4515H33.9521C33.8137 46.8786 33.678 47.3057 33.5669 47.7418H28.7905C28.0337 47.7418 27.4195 48.3186 27.4195 49.0321ZM38.8218 30.9676H38.3872V19.3962C38.3872 18.6606 39.0208 18.0643 39.8024 18.0643H56.1655C56.9471 18.0643 57.5807 18.6606 57.5807 19.3962V25.8063H52.0968C51.3401 25.8063 50.7259 26.383 50.7259 27.0966V31.5908C48.361 32.125 46.1304 32.9921 44.0712 34.1779L40.7 31.005C40.2024 30.5379 39.3441 30.5327 38.8218 30.9676ZM34.9886 43.8708H8.22598V38.7095H33.3736L36.3157 41.4786C35.8139 42.2489 35.3821 43.0515 34.9886 43.8708ZM42.5001 77.4193V72.4142C42.5001 70.9922 43.0883 69.658 44.1549 68.6542C45.2078 67.6645 46.6637 67.0967 48.1498 67.0967H51.0769L54.3672 77.4193H42.5001ZM48.3911 59.3548C48.1279 58.6025 47.984 57.8102 47.984 56.996V56.7741C50.2241 56.7741 52.2161 55.7573 53.4678 54.1896C54.7195 55.7573 56.7115 56.7741 58.9517 56.7741H64.4355V56.996C64.4355 59.0051 63.6047 60.8941 62.0953 62.3135C60.5859 63.7341 58.5788 64.5161 56.4442 64.5161H55.9739C53.8393 64.5161 51.8322 63.7341 50.3228 62.3135C50.1939 62.1922 50.0774 62.0632 49.9581 61.9354H54.8388C55.5959 61.9354 56.2097 61.3577 56.2097 60.6451C56.2097 59.9325 55.5959 59.3548 54.8388 59.3548H48.3911ZM64.4355 54.1935H58.9517C56.6841 54.1935 54.8388 52.4567 54.8388 50.3225C54.8388 49.6089 54.2246 49.0321 53.4678 49.0321C52.711 49.0321 52.0968 49.6089 52.0968 50.3225C52.0968 52.4567 50.2515 54.1935 47.984 54.1935V53.9715C47.984 51.9625 48.8148 50.0734 50.3242 48.6541C51.8336 47.2334 53.8407 46.4515 55.9753 46.4515H56.4455C58.5801 46.4515 60.5872 47.2334 62.0967 48.6541C63.6047 50.0747 64.4355 51.9625 64.4355 53.9715V54.1935ZM67.1775 56.996V54.1935H68.5484C69.3038 54.1935 69.9194 54.7715 69.9194 55.4838V58.0644C69.9194 58.7767 69.3038 59.3548 68.5484 59.3548H66.8731C67.0664 58.5896 67.1775 57.8025 67.1775 56.996ZM66.8731 51.6128C66.4179 49.8167 65.4555 48.1663 64.0352 46.8296C62.0062 44.9212 59.3109 43.8708 56.4442 43.8708H55.9739C53.1073 43.8708 50.4119 44.9212 48.3843 46.8296C46.9626 48.1663 46.0002 49.8167 45.5464 51.6128H45.242C45.242 45.9212 50.1624 41.2902 56.2097 41.2902C62.2571 41.2902 67.1775 45.9212 67.1775 51.6128H66.8731ZM43.8711 54.1935H45.242V56.996C45.242 57.8025 45.3531 58.5909 45.5477 59.3548H43.8711C43.1157 59.3548 42.5001 58.7767 42.5001 58.0644V55.4838C42.5001 54.7715 43.1157 54.1935 43.8711 54.1935ZM53.8777 66.9045C54.5618 67.0309 55.2624 67.0967 55.9753 67.0967H56.4455C57.1571 67.0967 57.859 67.0309 58.5418 66.9045L56.2097 74.2193L53.8777 66.9045ZM69.9194 77.4193H58.0523L61.3426 67.0967H64.2696C65.7558 67.0967 67.2117 67.6645 68.2646 68.6542C69.3312 69.658 69.9194 70.9935 69.9194 72.4142V77.4193ZM82.2581 55.4838H77.7462C77.0882 55.4838 76.5219 55.9251 76.3999 56.5328C75.8721 59.1522 74.8014 61.5896 73.2193 63.778C72.8478 64.2903 72.9177 64.978 73.3838 65.4167L76.5686 68.4129L72.6915 72.0632L72.6421 72.0167C72.5393 70.0555 71.6893 68.2258 70.2045 66.8283C68.617 65.338 66.5098 64.5161 64.2696 64.5161H63.591C63.7391 64.3909 63.8913 64.2722 64.0338 64.138C64.7385 63.4748 65.3267 62.7315 65.8024 61.9354H68.5484C70.816 61.9354 72.6613 60.1986 72.6613 58.0644V55.4838C72.6613 53.8038 71.5111 52.3844 69.9194 51.8502V51.6128C69.9194 44.4979 63.7692 38.7095 56.2097 38.7095C48.6502 38.7095 42.5001 44.4979 42.5001 51.6128V51.8502C40.9084 52.3844 39.7582 53.8038 39.7582 55.4838V58.0644C39.7582 60.1986 41.6035 61.9354 43.8711 61.9354H46.6171C47.0928 62.7315 47.681 63.4748 48.3856 64.138C48.5282 64.2722 48.6804 64.3909 48.8285 64.5161H48.1498C45.9097 64.5161 43.8025 65.338 42.2163 66.8296C40.7316 68.2258 39.8816 70.0567 39.7787 72.018L39.7294 72.0645L35.8509 68.4142L39.0357 65.418C39.5018 64.9793 39.5704 64.2928 39.2002 63.7793C37.6195 61.5909 36.5488 59.1535 36.0196 56.5341C35.8962 55.9251 35.3313 55.4838 34.6733 55.4838H30.1614V50.3225H34.6733C35.3313 50.3225 35.8975 49.8812 36.0196 49.2734C36.5488 46.6528 37.6181 44.2141 39.2002 42.0283C39.5717 41.5173 39.5018 40.8282 39.0357 40.3895L35.8509 37.3934L39.728 33.7431L42.9128 36.7405C43.3775 37.1792 44.1082 37.245 44.6539 36.894C46.9749 35.4063 49.5647 34.3986 52.3505 33.9018C52.9989 33.7856 53.4678 33.2527 53.4678 32.6334V28.3869H58.9517V32.6334C58.9517 33.2527 59.4205 33.7856 60.0663 33.9005C62.8521 34.3986 65.4418 35.405 67.7642 36.8928C68.3112 37.245 69.0406 37.1766 69.5054 36.7392L72.6901 33.7418L76.5686 37.3921L73.3838 40.3882C72.9177 40.827 72.8491 41.5134 73.2193 42.027C74.8014 44.2154 75.8708 46.6528 76.3986 49.2721C76.522 49.8812 77.0882 50.3225 77.7462 50.3225H82.2581V55.4838Z" fill="url(#paint7_linear_43_38240)"/>
<path d="M5.48405 16.774C5.48405 16.0613 6.09785 15.4836 6.85501 15.4836H31.5324C32.2895 15.4836 32.9033 16.0613 32.9033 16.774C32.9033 17.4866 32.2895 18.0643 31.5324 18.0643H6.85501C6.09785 18.0643 5.48405 17.4866 5.48405 16.774Z" stroke="url(#paint8_linear_43_38240)" stroke-width="16" mask="url(#path-1-inside-1_43_38240)"/>
<path d="M5.48405 21.9353C5.48405 21.2226 6.09785 20.645 6.85501 20.645H31.5324C32.2895 20.645 32.9033 21.2226 32.9033 21.9353C32.9033 22.6479 32.2895 23.2256 31.5324 23.2256H6.85501C6.09785 23.2256 5.48405 22.6479 5.48405 21.9353Z" stroke="url(#paint9_linear_43_38240)" stroke-width="16" mask="url(#path-1-inside-1_43_38240)"/>
<path d="M5.48405 27.0966C5.48405 26.384 6.09785 25.8063 6.85501 25.8063H31.5324C32.2895 25.8063 32.9033 26.384 32.9033 27.0966C32.9033 27.8092 32.2895 28.3869 31.5324 28.3869H6.85501C6.09785 28.3869 5.48405 27.8092 5.48405 27.0966Z" stroke="url(#paint10_linear_43_38240)" stroke-width="16" mask="url(#path-1-inside-1_43_38240)"/>
<path d="M5.48405 32.2579C5.48405 31.5453 6.09785 30.9676 6.85501 30.9676H31.5324C32.2895 30.9676 32.9033 31.5453 32.9033 32.2579C32.9033 32.9705 32.2895 33.5482 31.5324 33.5482H6.85501C6.09785 33.5482 5.48405 32.9705 5.48405 32.2579Z" stroke="url(#paint11_linear_43_38240)" stroke-width="16" mask="url(#path-1-inside-1_43_38240)"/>
<path d="M57.5807 6.45135C57.5807 5.73872 58.1945 5.16102 58.9517 5.16102C59.7088 5.16102 60.3226 5.73872 60.3226 6.45135C60.3226 7.16398 59.7088 7.74168 58.9517 7.74168C58.1945 7.74168 57.5807 7.16398 57.5807 6.45135Z" stroke="url(#paint12_linear_43_38240)" stroke-width="16" mask="url(#path-1-inside-1_43_38240)"/>
<path d="M52.0968 6.45135C52.0968 5.73872 52.7107 5.16102 53.4678 5.16102C54.225 5.16102 54.8388 5.73872 54.8388 6.45135C54.8388 7.16398 54.225 7.74168 53.4678 7.74168C52.7107 7.74168 52.0968 7.16398 52.0968 6.45135Z" stroke="url(#paint13_linear_43_38240)" stroke-width="16" mask="url(#path-1-inside-1_43_38240)"/>
<path d="M46.613 6.45135C46.613 5.73872 47.2268 5.16102 47.984 5.16102C48.7411 5.16102 49.3549 5.73872 49.3549 6.45135C49.3549 7.16398 48.7411 7.74168 47.984 7.74168C47.2268 7.74168 46.613 7.16398 46.613 6.45135Z" stroke="url(#paint14_linear_43_38240)" stroke-width="16" mask="url(#path-1-inside-1_43_38240)"/>
<path d="M83.629 47.7418H78.854C78.2864 45.5186 77.3665 43.4179 76.1052 41.4786L79.4764 38.3057C79.7341 38.0631 79.8781 37.7366 79.8781 37.3934C79.8781 37.0502 79.7341 36.7224 79.4764 36.4811L73.6594 31.0063C73.1453 30.5224 72.2349 30.5224 71.7208 31.0063L68.3496 34.1792C67.5298 33.7082 66.6771 33.3018 65.8065 32.9314V5.32818C65.8065 2.38573 63.2721 0.000404389 60.1458 0.000382445L5.6608 1.51415e-10C2.53443 -2.19447e-05 -1.23686e-05 2.38534 0 5.32782L0.000172162 46.285C0.000184531 49.2275 2.53459 51.6128 5.66093 51.6128H27.4195V56.7741C27.4195 57.4877 28.0337 58.0644 28.7905 58.0644H33.5655C34.1331 60.289 35.0544 62.3883 36.3143 64.3277L32.9431 67.5006C32.6854 67.7432 32.5414 68.0696 32.5414 68.4129C32.5414 68.7561 32.6854 69.0838 32.9431 69.3251L38.7601 74.8C39.0247 75.049 39.3921 75.1652 39.7582 75.1574V78.7097C39.7582 79.4232 40.3724 80 41.1291 80H71.2904C72.0471 80 72.6613 79.4232 72.6613 78.7097V75.1742C72.6709 75.1742 72.6805 75.1793 72.6901 75.1793C73.0534 75.1793 73.403 75.0439 73.6594 74.8013L79.475 69.3264C80.0111 68.8219 80.0111 68.0064 79.475 67.5019L76.1038 64.329C77.3651 62.3883 78.2864 60.289 78.8526 58.0657H83.629C84.3858 58.0657 85 57.489 85 56.7754V49.0334C85 48.3186 84.3858 47.7418 83.629 47.7418ZM60.2342 2.58037C61.7974 2.58037 63.0646 3.77304 63.0646 5.24427V10.3223H2.74212V5.24427C2.74212 3.77304 4.00933 2.58037 5.5725 2.58037H60.2342ZM27.4195 49.0321H5.5725C4.00933 49.0321 2.74212 47.8395 2.74212 46.3682V12.903H63.0646V31.9534C62.6108 31.8231 62.157 31.6953 61.6936 31.5908V27.0966C61.6936 26.383 61.0794 25.8063 60.3226 25.8063V19.4795C60.3226 17.2726 58.4218 15.4836 56.0771 15.4836H39.8909C37.5461 15.4836 35.6453 17.2726 35.6453 19.4795V32.2579C35.6453 32.716 35.9126 33.0979 36.2938 33.3276L33.3174 36.1289H6.85501C6.09824 36.1289 5.48405 36.7057 5.48405 37.4192V45.1612C5.48405 45.8747 6.09824 46.4515 6.85501 46.4515H33.9521C33.8137 46.8786 33.678 47.3057 33.5669 47.7418H28.7905C28.0337 47.7418 27.4195 48.3186 27.4195 49.0321ZM38.8218 30.9676H38.3872V19.3962C38.3872 18.6606 39.0208 18.0643 39.8024 18.0643H56.1655C56.9471 18.0643 57.5807 18.6606 57.5807 19.3962V25.8063H52.0968C51.3401 25.8063 50.7259 26.383 50.7259 27.0966V31.5908C48.361 32.125 46.1304 32.9921 44.0712 34.1779L40.7 31.005C40.2024 30.5379 39.3441 30.5327 38.8218 30.9676ZM34.9886 43.8708H8.22598V38.7095H33.3736L36.3157 41.4786C35.8139 42.2489 35.3821 43.0515 34.9886 43.8708ZM42.5001 77.4193V72.4142C42.5001 70.9922 43.0883 69.658 44.1549 68.6542C45.2078 67.6645 46.6637 67.0967 48.1498 67.0967H51.0769L54.3672 77.4193H42.5001ZM48.3911 59.3548C48.1279 58.6025 47.984 57.8102 47.984 56.996V56.7741C50.2241 56.7741 52.2161 55.7573 53.4678 54.1896C54.7195 55.7573 56.7115 56.7741 58.9517 56.7741H64.4355V56.996C64.4355 59.0051 63.6047 60.8941 62.0953 62.3135C60.5859 63.7341 58.5788 64.5161 56.4442 64.5161H55.9739C53.8393 64.5161 51.8322 63.7341 50.3228 62.3135C50.1939 62.1922 50.0774 62.0632 49.9581 61.9354H54.8388C55.5959 61.9354 56.2097 61.3577 56.2097 60.6451C56.2097 59.9325 55.5959 59.3548 54.8388 59.3548H48.3911ZM64.4355 54.1935H58.9517C56.6841 54.1935 54.8388 52.4567 54.8388 50.3225C54.8388 49.6089 54.2246 49.0321 53.4678 49.0321C52.711 49.0321 52.0968 49.6089 52.0968 50.3225C52.0968 52.4567 50.2515 54.1935 47.984 54.1935V53.9715C47.984 51.9625 48.8148 50.0734 50.3242 48.6541C51.8336 47.2334 53.8407 46.4515 55.9753 46.4515H56.4455C58.5801 46.4515 60.5872 47.2334 62.0967 48.6541C63.6047 50.0747 64.4355 51.9625 64.4355 53.9715V54.1935ZM67.1775 56.996V54.1935H68.5484C69.3038 54.1935 69.9194 54.7715 69.9194 55.4838V58.0644C69.9194 58.7767 69.3038 59.3548 68.5484 59.3548H66.8731C67.0664 58.5896 67.1775 57.8025 67.1775 56.996ZM66.8731 51.6128C66.4179 49.8167 65.4555 48.1663 64.0352 46.8296C62.0062 44.9212 59.3109 43.8708 56.4442 43.8708H55.9739C53.1073 43.8708 50.4119 44.9212 48.3843 46.8296C46.9626 48.1663 46.0002 49.8167 45.5464 51.6128H45.242C45.242 45.9212 50.1624 41.2902 56.2097 41.2902C62.2571 41.2902 67.1775 45.9212 67.1775 51.6128H66.8731ZM43.8711 54.1935H45.242V56.996C45.242 57.8025 45.3531 58.5909 45.5477 59.3548H43.8711C43.1157 59.3548 42.5001 58.7767 42.5001 58.0644V55.4838C42.5001 54.7715 43.1157 54.1935 43.8711 54.1935ZM53.8777 66.9045C54.5618 67.0309 55.2624 67.0967 55.9753 67.0967H56.4455C57.1571 67.0967 57.859 67.0309 58.5418 66.9045L56.2097 74.2193L53.8777 66.9045ZM69.9194 77.4193H58.0523L61.3426 67.0967H64.2696C65.7558 67.0967 67.2117 67.6645 68.2646 68.6542C69.3312 69.658 69.9194 70.9935 69.9194 72.4142V77.4193ZM82.2581 55.4838H77.7462C77.0882 55.4838 76.5219 55.9251 76.3999 56.5328C75.8721 59.1522 74.8014 61.5896 73.2193 63.778C72.8478 64.2903 72.9177 64.978 73.3838 65.4167L76.5686 68.4129L72.6915 72.0632L72.6421 72.0167C72.5393 70.0555 71.6893 68.2258 70.2045 66.8283C68.617 65.338 66.5098 64.5161 64.2696 64.5161H63.591C63.7391 64.3909 63.8913 64.2722 64.0338 64.138C64.7385 63.4748 65.3267 62.7315 65.8024 61.9354H68.5484C70.816 61.9354 72.6613 60.1986 72.6613 58.0644V55.4838C72.6613 53.8038 71.5111 52.3844 69.9194 51.8502V51.6128C69.9194 44.4979 63.7692 38.7095 56.2097 38.7095C48.6502 38.7095 42.5001 44.4979 42.5001 51.6128V51.8502C40.9084 52.3844 39.7582 53.8038 39.7582 55.4838V58.0644C39.7582 60.1986 41.6035 61.9354 43.8711 61.9354H46.6171C47.0928 62.7315 47.681 63.4748 48.3856 64.138C48.5282 64.2722 48.6804 64.3909 48.8285 64.5161H48.1498C45.9097 64.5161 43.8025 65.338 42.2163 66.8296C40.7316 68.2258 39.8816 70.0567 39.7787 72.018L39.7294 72.0645L35.8509 68.4142L39.0357 65.418C39.5018 64.9793 39.5704 64.2928 39.2002 63.7793C37.6195 61.5909 36.5488 59.1535 36.0196 56.5341C35.8962 55.9251 35.3313 55.4838 34.6733 55.4838H30.1614V50.3225H34.6733C35.3313 50.3225 35.8975 49.8812 36.0196 49.2734C36.5488 46.6528 37.6181 44.2141 39.2002 42.0283C39.5717 41.5173 39.5018 40.8282 39.0357 40.3895L35.8509 37.3934L39.728 33.7431L42.9128 36.7405C43.3775 37.1792 44.1082 37.245 44.6539 36.894C46.9749 35.4063 49.5647 34.3986 52.3505 33.9018C52.9989 33.7856 53.4678 33.2527 53.4678 32.6334V28.3869H58.9517V32.6334C58.9517 33.2527 59.4205 33.7856 60.0663 33.9005C62.8521 34.3986 65.4418 35.405 67.7642 36.8928C68.3112 37.245 69.0406 37.1766 69.5054 36.7392L72.6901 33.7418L76.5686 37.3921L73.3838 40.3882C72.9177 40.827 72.8491 41.5134 73.2193 42.027C74.8014 44.2154 75.8708 46.6528 76.3986 49.2721C76.522 49.8812 77.0882 50.3225 77.7462 50.3225H82.2581V55.4838Z" stroke="url(#paint15_linear_43_38240)" stroke-width="16" mask="url(#path-1-inside-1_43_38240)"/>
<defs>
<linearGradient id="paint0_linear_43_38240" x1="46.428" y1="122.826" x2="-25.6124" y2="77.7561" gradientUnits="userSpaceOnUse">
<stop stop-color="#723AA9"/>
<stop offset="1" stop-color="#1DE1D3"/>
</linearGradient>
<linearGradient id="paint1_linear_43_38240" x1="46.428" y1="122.826" x2="-25.6124" y2="77.7561" gradientUnits="userSpaceOnUse">
<stop stop-color="#723AA9"/>
<stop offset="1" stop-color="#1DE1D3"/>
</linearGradient>
<linearGradient id="paint2_linear_43_38240" x1="46.428" y1="122.826" x2="-25.6124" y2="77.7561" gradientUnits="userSpaceOnUse">
<stop stop-color="#723AA9"/>
<stop offset="1" stop-color="#1DE1D3"/>
</linearGradient>
<linearGradient id="paint3_linear_43_38240" x1="46.428" y1="122.826" x2="-25.6124" y2="77.7561" gradientUnits="userSpaceOnUse">
<stop stop-color="#723AA9"/>
<stop offset="1" stop-color="#1DE1D3"/>
</linearGradient>
<linearGradient id="paint4_linear_43_38240" x1="46.428" y1="122.826" x2="-25.6124" y2="77.7561" gradientUnits="userSpaceOnUse">
<stop stop-color="#723AA9"/>
<stop offset="1" stop-color="#1DE1D3"/>
</linearGradient>
<linearGradient id="paint5_linear_43_38240" x1="46.428" y1="122.826" x2="-25.6124" y2="77.7561" gradientUnits="userSpaceOnUse">
<stop stop-color="#723AA9"/>
<stop offset="1" stop-color="#1DE1D3"/>
</linearGradient>
<linearGradient id="paint6_linear_43_38240" x1="46.428" y1="122.826" x2="-25.6124" y2="77.7561" gradientUnits="userSpaceOnUse">
<stop stop-color="#723AA9"/>
<stop offset="1" stop-color="#1DE1D3"/>
</linearGradient>
<linearGradient id="paint7_linear_43_38240" x1="46.428" y1="122.826" x2="-25.6124" y2="77.7561" gradientUnits="userSpaceOnUse">
<stop stop-color="#723AA9"/>
<stop offset="1" stop-color="#1DE1D3"/>
</linearGradient>
<linearGradient id="paint8_linear_43_38240" x1="46.428" y1="122.826" x2="-25.6124" y2="77.7561" gradientUnits="userSpaceOnUse">
<stop stop-color="#723AA9"/>
<stop offset="1" stop-color="#1DE1D3"/>
</linearGradient>
<linearGradient id="paint9_linear_43_38240" x1="46.428" y1="122.826" x2="-25.6124" y2="77.7561" gradientUnits="userSpaceOnUse">
<stop stop-color="#723AA9"/>
<stop offset="1" stop-color="#1DE1D3"/>
</linearGradient>
<linearGradient id="paint10_linear_43_38240" x1="46.428" y1="122.826" x2="-25.6124" y2="77.7561" gradientUnits="userSpaceOnUse">
<stop stop-color="#723AA9"/>
<stop offset="1" stop-color="#1DE1D3"/>
</linearGradient>
<linearGradient id="paint11_linear_43_38240" x1="46.428" y1="122.826" x2="-25.6124" y2="77.7561" gradientUnits="userSpaceOnUse">
<stop stop-color="#723AA9"/>
<stop offset="1" stop-color="#1DE1D3"/>
</linearGradient>
<linearGradient id="paint12_linear_43_38240" x1="46.428" y1="122.826" x2="-25.6124" y2="77.7561" gradientUnits="userSpaceOnUse">
<stop stop-color="#723AA9"/>
<stop offset="1" stop-color="#1DE1D3"/>
</linearGradient>
<linearGradient id="paint13_linear_43_38240" x1="46.428" y1="122.826" x2="-25.6124" y2="77.7561" gradientUnits="userSpaceOnUse">
<stop stop-color="#723AA9"/>
<stop offset="1" stop-color="#1DE1D3"/>
</linearGradient>
<linearGradient id="paint14_linear_43_38240" x1="46.428" y1="122.826" x2="-25.6124" y2="77.7561" gradientUnits="userSpaceOnUse">
<stop stop-color="#723AA9"/>
<stop offset="1" stop-color="#1DE1D3"/>
</linearGradient>
<linearGradient id="paint15_linear_43_38240" x1="46.428" y1="122.826" x2="-25.6124" y2="77.7561" gradientUnits="userSpaceOnUse">
<stop stop-color="#723AA9"/>
<stop offset="1" stop-color="#1DE1D3"/>
</linearGradient>
</defs>
</svg>
