<svg width="63" height="80" viewBox="0 0 63 80" fill="none" xmlns="http://www.w3.org/2000/svg">
<path fill-rule="evenodd" clip-rule="evenodd" d="M40.2056 11.9159C40.2056 5.99767 45.0034 1.2 50.9218 1.2C56.8402 1.2 61.638 5.99767 61.638 11.9159C61.638 17.8341 56.8402 22.6317 50.9218 22.6317C45.0034 22.6317 40.2056 17.8341 40.2056 11.9159ZM50.9218 0C44.3407 0 39.0056 5.3349 39.0056 11.9159C39.0056 18.4968 44.3407 23.8317 50.9218 23.8317C57.503 23.8317 62.838 18.4968 62.838 11.9159C62.838 5.3349 57.503 0 50.9218 0ZM47.9512 8.09683C47.7169 7.86252 47.337 7.86253 47.1027 8.09685C46.8684 8.33116 46.8684 8.71106 47.1027 8.94537L50.0733 11.9159L47.1027 14.8864C46.8684 15.1207 46.8684 15.5006 47.1027 15.7349C47.337 15.9692 47.7169 15.9692 47.9512 15.7349L50.9218 12.7644L53.8924 15.7349C54.1268 15.9692 54.5067 15.9692 54.741 15.7349C54.9753 15.5006 54.9753 15.1207 54.741 14.8864L51.7704 11.9159L54.741 8.94537C54.9753 8.71106 54.9753 8.33116 54.741 8.09685C54.5067 7.86253 54.1268 7.86252 53.8924 8.09683L50.9218 11.0673L47.9512 8.09683ZM52.6168 39.3204C54.1283 39.0576 54.891 38.9249 55.1953 38.4793C55.5053 38.0252 55.3391 37.2461 55.0038 35.6731C54.8522 34.9623 54.6661 34.0893 54.4737 33.011C54.4129 32.7261 54.2426 32.4765 53.9996 32.3159C53.7566 32.1553 53.4603 32.0964 53.1743 32.1521C52.8884 32.2077 52.6357 32.3733 52.4707 32.6134C52.3056 32.8534 52.2414 33.1486 52.2918 33.4355L52.6793 35.4307L36.3044 24.3863C36.0594 24.2229 35.7599 24.1628 35.4708 24.219C35.1818 24.2752 34.9266 24.4432 34.7607 24.6865L29.7888 32.0584L8.59168 17.7618C8.34717 17.6044 8.05077 17.5491 7.76598 17.6077C7.48118 17.6662 7.23063 17.8339 7.06799 18.0749C6.90535 18.3159 6.84355 18.611 6.89583 18.897C6.94811 19.183 7.11032 19.4372 7.3477 19.6051L29.4663 34.5231C29.7113 34.6863 30.0108 34.7463 30.2998 34.6901C30.5888 34.634 30.844 34.4661 31.01 34.223L35.982 26.851L51.4348 37.2736L49.441 37.6614C49.1552 37.7212 48.9044 37.891 48.7428 38.1342C48.5811 38.3774 48.5217 38.6744 48.5773 38.9611C48.633 39.2477 48.7991 39.501 49.04 39.6661C49.2808 39.8312 49.577 39.8949 49.8644 39.8434C50.979 39.6051 51.8855 39.4475 52.6168 39.3204ZM1.11163 32.0233H12.0261C12.1721 32.0233 12.3166 32.052 12.4515 32.1078C12.5864 32.1637 12.709 32.2456 12.8122 32.3488C12.9154 32.452 12.9973 32.5746 13.0532 32.7095C13.109 32.8443 13.1377 32.9889 13.1377 33.1349V78.7105C13.1377 78.8565 13.109 79.0011 13.0532 79.136C12.9973 79.2708 12.9154 79.3934 12.8122 79.4966C12.709 79.5999 12.5864 79.6817 12.4515 79.7376C12.3166 79.7934 12.1721 79.8222 12.0261 79.8221H1.11163C0.965637 79.8222 0.821067 79.7934 0.68618 79.7376C0.551293 79.6817 0.428733 79.5999 0.325501 79.4966C0.222269 79.3934 0.140388 79.2708 0.0845377 79.136C0.0286872 79.0011 -3.93178e-05 78.8565 4.03886e-08 78.7105V33.1349C-3.7857e-05 32.9889 0.0286897 32.8443 0.0845409 32.7095C0.140392 32.5746 0.222272 32.452 0.325504 32.3488C0.428736 32.2456 0.551296 32.1637 0.686183 32.1078C0.821069 32.052 0.965638 32.0233 1.11163 32.0233ZM2.22327 77.5989H10.9144V34.2465H2.22327V77.5989ZM33.8548 40.9157H44.7692C44.9152 40.9156 45.0597 40.9444 45.1946 41.0002C45.3295 41.0561 45.4521 41.138 45.5553 41.2412C45.6585 41.3444 45.7404 41.467 45.7963 41.6018C45.8521 41.7367 45.8809 41.8813 45.8808 42.0273V78.7101C45.8809 78.8561 45.8521 79.0007 45.7963 79.1356C45.7404 79.2704 45.6585 79.393 45.5553 79.4962C45.4521 79.5994 45.3295 79.6813 45.1946 79.7372C45.0597 79.793 44.9152 79.8218 44.7692 79.8217H33.8548C33.7088 79.8218 33.5642 79.793 33.4293 79.7372C33.2944 79.6813 33.1718 79.5994 33.0686 79.4962C32.9654 79.393 32.8835 79.2704 32.8276 79.1356C32.7718 79.0007 32.7431 78.8561 32.7431 78.7101V42.0273C32.7431 41.8813 32.7718 41.7367 32.8276 41.6018C32.8835 41.467 32.9654 41.3444 33.0686 41.2412C33.1718 41.138 33.2944 41.0561 33.4293 41.0002C33.5642 40.9444 33.7088 40.9156 33.8548 40.9157ZM34.9664 77.5985H43.6575V43.1389H34.9664V77.5985ZM50.225 50.9193H61.1395C61.2855 50.9193 61.43 50.948 61.5649 51.0038C61.6998 51.0597 61.8224 51.1416 61.9256 51.2448C62.0288 51.348 62.1107 51.4706 62.1666 51.6055C62.2224 51.7403 62.2511 51.8849 62.2511 52.0309V78.7093C62.2511 78.8553 62.2224 78.9999 62.1666 79.1348C62.1107 79.2696 62.0288 79.3922 61.9256 79.4954C61.8224 79.5986 61.6998 79.6805 61.5649 79.7364C61.43 79.7922 61.2855 79.821 61.1395 79.8209H50.225C50.079 79.821 49.9345 79.7922 49.7996 79.7364C49.6647 79.6805 49.5421 79.5986 49.4389 79.4954C49.3357 79.3922 49.2538 79.2696 49.1979 79.1348C49.1421 78.9999 49.1134 78.8553 49.1134 78.7093V52.0309C49.1134 51.8849 49.1421 51.7403 49.1979 51.6055C49.2538 51.4706 49.3357 51.348 49.4389 51.2448C49.5421 51.1416 49.6647 51.0597 49.7996 51.0038C49.9345 50.948 50.079 50.9193 50.225 50.9193ZM51.3367 77.5977H60.0278L60.0278 53.1425H51.3367V77.5977ZM28.3989 46.4744H17.4845C17.3385 46.4743 17.1939 46.5031 17.059 46.5589C16.9241 46.6148 16.8016 46.6966 16.6983 46.7999C16.5951 46.9031 16.5132 47.0257 16.4574 47.1605C16.4015 47.2954 16.3728 47.44 16.3728 47.586V78.7108C16.3728 78.8568 16.4015 79.0013 16.4574 79.1362C16.5132 79.2711 16.5951 79.3937 16.6983 79.4969C16.8016 79.6001 16.9241 79.682 17.059 79.7379C17.1939 79.7937 17.3385 79.8224 17.4845 79.8224H28.3989C28.5449 79.8224 28.6895 79.7937 28.8243 79.7379C28.9592 79.682 29.0818 79.6001 29.185 79.4969C29.2883 79.3937 29.3701 79.2711 29.426 79.1362C29.4818 79.0013 29.5106 78.8568 29.5105 78.7108V47.586C29.5106 47.44 29.4818 47.2954 29.426 47.1605C29.3701 47.0257 29.2883 46.9031 29.185 46.7999C29.0818 46.6966 28.9592 46.6148 28.8243 46.5589C28.6894 46.5031 28.5449 46.4743 28.3989 46.4744ZM27.2873 77.5992H18.5961V48.6976H27.2873V77.5992Z" fill="black"/>
<path fill-rule="evenodd" clip-rule="evenodd" d="M40.2056 11.9159C40.2056 5.99767 45.0034 1.2 50.9218 1.2C56.8402 1.2 61.638 5.99767 61.638 11.9159C61.638 17.8341 56.8402 22.6317 50.9218 22.6317C45.0034 22.6317 40.2056 17.8341 40.2056 11.9159ZM50.9218 0C44.3407 0 39.0056 5.3349 39.0056 11.9159C39.0056 18.4968 44.3407 23.8317 50.9218 23.8317C57.503 23.8317 62.838 18.4968 62.838 11.9159C62.838 5.3349 57.503 0 50.9218 0ZM47.9512 8.09683C47.7169 7.86252 47.337 7.86253 47.1027 8.09685C46.8684 8.33116 46.8684 8.71106 47.1027 8.94537L50.0733 11.9159L47.1027 14.8864C46.8684 15.1207 46.8684 15.5006 47.1027 15.7349C47.337 15.9692 47.7169 15.9692 47.9512 15.7349L50.9218 12.7644L53.8924 15.7349C54.1268 15.9692 54.5067 15.9692 54.741 15.7349C54.9753 15.5006 54.9753 15.1207 54.741 14.8864L51.7704 11.9159L54.741 8.94537C54.9753 8.71106 54.9753 8.33116 54.741 8.09685C54.5067 7.86253 54.1268 7.86252 53.8924 8.09683L50.9218 11.0673L47.9512 8.09683ZM52.6168 39.3204C54.1283 39.0576 54.891 38.9249 55.1953 38.4793C55.5053 38.0252 55.3391 37.2461 55.0038 35.6731C54.8522 34.9623 54.6661 34.0893 54.4737 33.011C54.4129 32.7261 54.2426 32.4765 53.9996 32.3159C53.7566 32.1553 53.4603 32.0964 53.1743 32.1521C52.8884 32.2077 52.6357 32.3733 52.4707 32.6134C52.3056 32.8534 52.2414 33.1486 52.2918 33.4355L52.6793 35.4307L36.3044 24.3863C36.0594 24.2229 35.7599 24.1628 35.4708 24.219C35.1818 24.2752 34.9266 24.4432 34.7607 24.6865L29.7888 32.0584L8.59168 17.7618C8.34717 17.6044 8.05077 17.5491 7.76598 17.6077C7.48118 17.6662 7.23063 17.8339 7.06799 18.0749C6.90535 18.3159 6.84355 18.611 6.89583 18.897C6.94811 19.183 7.11032 19.4372 7.3477 19.6051L29.4663 34.5231C29.7113 34.6863 30.0108 34.7463 30.2998 34.6901C30.5888 34.634 30.844 34.4661 31.01 34.223L35.982 26.851L51.4348 37.2736L49.441 37.6614C49.1552 37.7212 48.9044 37.891 48.7428 38.1342C48.5811 38.3774 48.5217 38.6744 48.5773 38.9611C48.633 39.2477 48.7991 39.501 49.04 39.6661C49.2808 39.8312 49.577 39.8949 49.8644 39.8434C50.979 39.6051 51.8855 39.4475 52.6168 39.3204ZM1.11163 32.0233H12.0261C12.1721 32.0233 12.3166 32.052 12.4515 32.1078C12.5864 32.1637 12.709 32.2456 12.8122 32.3488C12.9154 32.452 12.9973 32.5746 13.0532 32.7095C13.109 32.8443 13.1377 32.9889 13.1377 33.1349V78.7105C13.1377 78.8565 13.109 79.0011 13.0532 79.136C12.9973 79.2708 12.9154 79.3934 12.8122 79.4966C12.709 79.5999 12.5864 79.6817 12.4515 79.7376C12.3166 79.7934 12.1721 79.8222 12.0261 79.8221H1.11163C0.965637 79.8222 0.821067 79.7934 0.68618 79.7376C0.551293 79.6817 0.428733 79.5999 0.325501 79.4966C0.222269 79.3934 0.140388 79.2708 0.0845377 79.136C0.0286872 79.0011 -3.93178e-05 78.8565 4.03886e-08 78.7105V33.1349C-3.7857e-05 32.9889 0.0286897 32.8443 0.0845409 32.7095C0.140392 32.5746 0.222272 32.452 0.325504 32.3488C0.428736 32.2456 0.551296 32.1637 0.686183 32.1078C0.821069 32.052 0.965638 32.0233 1.11163 32.0233ZM2.22327 77.5989H10.9144V34.2465H2.22327V77.5989ZM33.8548 40.9157H44.7692C44.9152 40.9156 45.0597 40.9444 45.1946 41.0002C45.3295 41.0561 45.4521 41.138 45.5553 41.2412C45.6585 41.3444 45.7404 41.467 45.7963 41.6018C45.8521 41.7367 45.8809 41.8813 45.8808 42.0273V78.7101C45.8809 78.8561 45.8521 79.0007 45.7963 79.1356C45.7404 79.2704 45.6585 79.393 45.5553 79.4962C45.4521 79.5994 45.3295 79.6813 45.1946 79.7372C45.0597 79.793 44.9152 79.8218 44.7692 79.8217H33.8548C33.7088 79.8218 33.5642 79.793 33.4293 79.7372C33.2944 79.6813 33.1718 79.5994 33.0686 79.4962C32.9654 79.393 32.8835 79.2704 32.8276 79.1356C32.7718 79.0007 32.7431 78.8561 32.7431 78.7101V42.0273C32.7431 41.8813 32.7718 41.7367 32.8276 41.6018C32.8835 41.467 32.9654 41.3444 33.0686 41.2412C33.1718 41.138 33.2944 41.0561 33.4293 41.0002C33.5642 40.9444 33.7088 40.9156 33.8548 40.9157ZM34.9664 77.5985H43.6575V43.1389H34.9664V77.5985ZM50.225 50.9193H61.1395C61.2855 50.9193 61.43 50.948 61.5649 51.0038C61.6998 51.0597 61.8224 51.1416 61.9256 51.2448C62.0288 51.348 62.1107 51.4706 62.1666 51.6055C62.2224 51.7403 62.2511 51.8849 62.2511 52.0309V78.7093C62.2511 78.8553 62.2224 78.9999 62.1666 79.1348C62.1107 79.2696 62.0288 79.3922 61.9256 79.4954C61.8224 79.5986 61.6998 79.6805 61.5649 79.7364C61.43 79.7922 61.2855 79.821 61.1395 79.8209H50.225C50.079 79.821 49.9345 79.7922 49.7996 79.7364C49.6647 79.6805 49.5421 79.5986 49.4389 79.4954C49.3357 79.3922 49.2538 79.2696 49.1979 79.1348C49.1421 78.9999 49.1134 78.8553 49.1134 78.7093V52.0309C49.1134 51.8849 49.1421 51.7403 49.1979 51.6055C49.2538 51.4706 49.3357 51.348 49.4389 51.2448C49.5421 51.1416 49.6647 51.0597 49.7996 51.0038C49.9345 50.948 50.079 50.9193 50.225 50.9193ZM51.3367 77.5977H60.0278L60.0278 53.1425H51.3367V77.5977ZM28.3989 46.4744H17.4845C17.3385 46.4743 17.1939 46.5031 17.059 46.5589C16.9241 46.6148 16.8016 46.6966 16.6983 46.7999C16.5951 46.9031 16.5132 47.0257 16.4574 47.1605C16.4015 47.2954 16.3728 47.44 16.3728 47.586V78.7108C16.3728 78.8568 16.4015 79.0013 16.4574 79.1362C16.5132 79.2711 16.5951 79.3937 16.6983 79.4969C16.8016 79.6001 16.9241 79.682 17.059 79.7379C17.1939 79.7937 17.3385 79.8224 17.4845 79.8224H28.3989C28.5449 79.8224 28.6895 79.7937 28.8243 79.7379C28.9592 79.682 29.0818 79.6001 29.185 79.4969C29.2883 79.3937 29.3701 79.2711 29.426 79.1362C29.4818 79.0013 29.5106 78.8568 29.5105 78.7108V47.586C29.5106 47.44 29.4818 47.2954 29.426 47.1605C29.3701 47.0257 29.2883 46.9031 29.185 46.7999C29.0818 46.6966 28.9592 46.6148 28.8243 46.5589C28.6894 46.5031 28.5449 46.4743 28.3989 46.4744ZM27.2873 77.5992H18.5961V48.6976H27.2873V77.5992Z" fill="url(#paint0_linear_43_38529)"/>
<defs>
<linearGradient id="paint0_linear_43_38529" x1="34.3229" y1="122.554" x2="-26.6738" y2="94.2796" gradientUnits="userSpaceOnUse">
<stop stop-color="#723AA9"/>
<stop offset="1" stop-color="#1DE1D3"/>
</linearGradient>
</defs>
</svg>
