<svg width="87" height="80" viewBox="0 0 87 80" fill="none" xmlns="http://www.w3.org/2000/svg">
<path fill-rule="evenodd" clip-rule="evenodd" d="M4.06791 71.8639H48.8149C49.8934 71.8627 50.9274 71.4338 51.6901 70.6712C52.4527 69.9086 52.8817 68.8746 52.8829 67.7961V62.1852C51.9947 62.5073 51.0893 62.7798 50.1709 63.0014V67.7961C50.1706 68.1556 50.0276 68.5003 49.7734 68.7545C49.5191 69.0087 49.1745 69.1517 48.8149 69.152H4.06791C3.7084 69.1517 3.36371 69.0087 3.10949 68.7545C2.85528 68.5003 2.7123 68.1556 2.71194 67.7961V4.06777C2.7123 3.70826 2.85528 3.36357 3.10949 3.10937C3.36371 2.85516 3.7084 2.71219 4.06791 2.71184H48.8149C49.1745 2.71219 49.5191 2.85516 49.7734 3.10937C50.0276 3.36357 50.1706 3.70826 50.1709 4.06777V12.9302C51.0893 13.1518 51.9947 13.4242 52.8829 13.7463V4.06777C52.8817 2.98927 52.4527 1.95529 51.6901 1.19269C50.9274 0.430095 49.8934 0.00115924 48.8149 0H4.06791C2.98941 0.00115924 1.95541 0.430095 1.19279 1.19269C0.43016 1.95529 0.0011916 2.98927 0 4.06777V67.7961C0.0011916 68.8746 0.43016 69.9086 1.19279 70.6712C1.95541 71.4338 2.98941 71.8627 4.06791 71.8639ZM70.4018 55.8473C69.5387 54.9827 68.4117 54.431 67.1995 54.2796C65.9872 54.1283 64.7591 54.386 63.71 55.0119L61.6095 52.9116C65.491 48.3496 67.4421 42.4546 67.0489 36.4778C66.6556 30.5009 63.9489 24.9124 59.5032 20.8983C55.0575 16.8841 49.2225 14.7602 43.2366 14.9772C37.2507 15.1942 31.5849 17.7351 27.4415 22.0606C23.2981 26.3862 21.0032 32.156 21.0438 38.1456C21.0844 44.1353 23.4573 49.8735 27.6589 54.1424C31.8605 58.4114 37.5603 60.8753 43.5486 61.0112C49.5369 61.147 55.3424 58.9443 59.7334 54.8702L61.7925 56.9293C61.1666 57.9784 60.9089 59.2065 61.0602 60.4187C61.2116 61.6309 61.7633 62.7579 62.628 63.6209L77.3976 78.39C78.4284 79.4208 79.8266 80 81.2844 80C82.7423 80 84.1404 79.4209 85.1713 78.3901C86.2021 77.3592 86.7813 75.9611 86.7813 74.5033C86.7813 73.0454 86.2022 71.6473 85.1714 70.6164L70.4018 55.8473ZM58.4506 52.348C55.6061 55.1925 51.9821 57.1296 48.0367 57.9143C44.0913 58.6991 40.0018 58.2964 36.2854 56.757C32.5689 55.2176 29.3924 52.6107 27.1575 49.266C24.9227 45.9213 23.7298 41.989 23.7298 37.9663C23.7298 33.9437 24.9227 30.0114 27.1575 26.6667C29.3924 23.322 32.5689 20.7151 36.2854 19.1757C40.0018 17.6363 44.0913 17.2335 48.0367 18.0183C51.9821 18.8031 55.6061 20.7402 58.4506 23.5846C60.3467 25.469 61.8515 27.7098 62.8783 30.178C63.9052 32.6462 64.4338 35.2931 64.4338 37.9663C64.4338 40.6396 63.9052 43.2865 62.8783 45.7547C61.8515 48.2228 60.3467 50.4636 58.4506 52.348ZM83.2538 76.4724C82.7315 76.9947 82.0231 77.2881 81.2845 77.2881C80.5459 77.2881 79.8375 76.9947 79.3152 76.4724L64.5456 61.7033C64.0233 61.181 63.7299 60.4727 63.7299 59.7341C63.7299 58.9955 64.0234 58.2871 64.5457 57.7648C65.0679 57.2426 65.7763 56.9492 66.5149 56.9492C67.2535 56.9492 67.9619 57.2426 68.4841 57.7649L83.2538 72.534C83.5124 72.7926 83.7175 73.0996 83.8575 73.4375C83.9974 73.7753 84.0695 74.1375 84.0695 74.5032C84.0695 74.8689 83.9974 75.231 83.8575 75.5689C83.7175 75.9068 83.5124 76.2138 83.2538 76.4724ZM34.672 23.0497H50.17V21.4212C51.109 21.7674 52.0163 22.1939 52.882 22.6961V53.2335C52.0163 53.7357 51.109 54.1622 50.17 54.5085V52.88H34.6722C33.5619 52.1789 32.5328 51.3569 31.6036 50.429C31.5514 50.3768 31.5011 50.3231 31.4508 50.2695C31.4191 50.2356 31.3874 50.2017 31.3552 50.1682H50.17V47.4563H29.2133C28.6593 46.596 28.1821 45.6885 27.7873 44.7445H50.17V42.0326H26.914C26.7049 41.1409 26.5654 40.2342 26.4969 39.3208H50.17V36.609H26.4969C26.5654 35.6956 26.7048 34.7889 26.914 33.8971H50.17V31.1853H27.7871C28.182 30.2412 28.6592 29.3338 29.2131 28.4734H50.17V25.7616H31.3551C31.3874 25.728 31.4193 25.694 31.4511 25.66C31.5013 25.6065 31.5515 25.5529 31.6036 25.5007C32.5327 24.5728 33.5618 23.7508 34.672 23.0497Z" fill="black"/>
<path fill-rule="evenodd" clip-rule="evenodd" d="M4.06791 71.8639H48.8149C49.8934 71.8627 50.9274 71.4338 51.6901 70.6712C52.4527 69.9086 52.8817 68.8746 52.8829 67.7961V62.1852C51.9947 62.5073 51.0893 62.7798 50.1709 63.0014V67.7961C50.1706 68.1556 50.0276 68.5003 49.7734 68.7545C49.5191 69.0087 49.1745 69.1517 48.8149 69.152H4.06791C3.7084 69.1517 3.36371 69.0087 3.10949 68.7545C2.85528 68.5003 2.7123 68.1556 2.71194 67.7961V4.06777C2.7123 3.70826 2.85528 3.36357 3.10949 3.10937C3.36371 2.85516 3.7084 2.71219 4.06791 2.71184H48.8149C49.1745 2.71219 49.5191 2.85516 49.7734 3.10937C50.0276 3.36357 50.1706 3.70826 50.1709 4.06777V12.9302C51.0893 13.1518 51.9947 13.4242 52.8829 13.7463V4.06777C52.8817 2.98927 52.4527 1.95529 51.6901 1.19269C50.9274 0.430095 49.8934 0.00115924 48.8149 0H4.06791C2.98941 0.00115924 1.95541 0.430095 1.19279 1.19269C0.43016 1.95529 0.0011916 2.98927 0 4.06777V67.7961C0.0011916 68.8746 0.43016 69.9086 1.19279 70.6712C1.95541 71.4338 2.98941 71.8627 4.06791 71.8639ZM70.4018 55.8473C69.5387 54.9827 68.4117 54.431 67.1995 54.2796C65.9872 54.1283 64.7591 54.386 63.71 55.0119L61.6095 52.9116C65.491 48.3496 67.4421 42.4546 67.0489 36.4778C66.6556 30.5009 63.9489 24.9124 59.5032 20.8983C55.0575 16.8841 49.2225 14.7602 43.2366 14.9772C37.2507 15.1942 31.5849 17.7351 27.4415 22.0606C23.2981 26.3862 21.0032 32.156 21.0438 38.1456C21.0844 44.1353 23.4573 49.8735 27.6589 54.1424C31.8605 58.4114 37.5603 60.8753 43.5486 61.0112C49.5369 61.147 55.3424 58.9443 59.7334 54.8702L61.7925 56.9293C61.1666 57.9784 60.9089 59.2065 61.0602 60.4187C61.2116 61.6309 61.7633 62.7579 62.628 63.6209L77.3976 78.39C78.4284 79.4208 79.8266 80 81.2844 80C82.7423 80 84.1404 79.4209 85.1713 78.3901C86.2021 77.3592 86.7813 75.9611 86.7813 74.5033C86.7813 73.0454 86.2022 71.6473 85.1714 70.6164L70.4018 55.8473ZM58.4506 52.348C55.6061 55.1925 51.9821 57.1296 48.0367 57.9143C44.0913 58.6991 40.0018 58.2964 36.2854 56.757C32.5689 55.2176 29.3924 52.6107 27.1575 49.266C24.9227 45.9213 23.7298 41.989 23.7298 37.9663C23.7298 33.9437 24.9227 30.0114 27.1575 26.6667C29.3924 23.322 32.5689 20.7151 36.2854 19.1757C40.0018 17.6363 44.0913 17.2335 48.0367 18.0183C51.9821 18.8031 55.6061 20.7402 58.4506 23.5846C60.3467 25.469 61.8515 27.7098 62.8783 30.178C63.9052 32.6462 64.4338 35.2931 64.4338 37.9663C64.4338 40.6396 63.9052 43.2865 62.8783 45.7547C61.8515 48.2228 60.3467 50.4636 58.4506 52.348ZM83.2538 76.4724C82.7315 76.9947 82.0231 77.2881 81.2845 77.2881C80.5459 77.2881 79.8375 76.9947 79.3152 76.4724L64.5456 61.7033C64.0233 61.181 63.7299 60.4727 63.7299 59.7341C63.7299 58.9955 64.0234 58.2871 64.5457 57.7648C65.0679 57.2426 65.7763 56.9492 66.5149 56.9492C67.2535 56.9492 67.9619 57.2426 68.4841 57.7649L83.2538 72.534C83.5124 72.7926 83.7175 73.0996 83.8575 73.4375C83.9974 73.7753 84.0695 74.1375 84.0695 74.5032C84.0695 74.8689 83.9974 75.231 83.8575 75.5689C83.7175 75.9068 83.5124 76.2138 83.2538 76.4724ZM34.672 23.0497H50.17V21.4212C51.109 21.7674 52.0163 22.1939 52.882 22.6961V53.2335C52.0163 53.7357 51.109 54.1622 50.17 54.5085V52.88H34.6722C33.5619 52.1789 32.5328 51.3569 31.6036 50.429C31.5514 50.3768 31.5011 50.3231 31.4508 50.2695C31.4191 50.2356 31.3874 50.2017 31.3552 50.1682H50.17V47.4563H29.2133C28.6593 46.596 28.1821 45.6885 27.7873 44.7445H50.17V42.0326H26.914C26.7049 41.1409 26.5654 40.2342 26.4969 39.3208H50.17V36.609H26.4969C26.5654 35.6956 26.7048 34.7889 26.914 33.8971H50.17V31.1853H27.7871C28.182 30.2412 28.6592 29.3338 29.2131 28.4734H50.17V25.7616H31.3551C31.3874 25.728 31.4193 25.694 31.4511 25.66C31.5013 25.6065 31.5515 25.5529 31.6036 25.5007C32.5327 24.5728 33.5618 23.7508 34.672 23.0497Z" fill="url(#paint0_linear_43_38547)"/>
<defs>
<linearGradient id="paint0_linear_43_38547" x1="47.401" y1="122.826" x2="-25.2832" y2="76.4004" gradientUnits="userSpaceOnUse">
<stop stop-color="#723AA9"/>
<stop offset="1" stop-color="#1DE1D3"/>
</linearGradient>
</defs>
</svg>
