<svg width="73" height="82" viewBox="0 0 73 82" fill="none" xmlns="http://www.w3.org/2000/svg">
<mask id="path-1-outside-1_43_38539" maskUnits="userSpaceOnUse" x="0" y="0" width="73" height="82" fill="black">
<rect fill="white" width="73" height="82"/>
<path d="M15.6808 47.9735H7.54955C7.01326 47.9735 6.57852 48.41 6.57852 48.9484V57.1068C6.57852 57.6452 7.01326 58.0816 7.54955 58.0816H15.6808C16.2171 58.0816 16.6518 57.6452 16.6518 57.1068V48.9484C16.6518 48.41 16.2171 47.9735 15.6808 47.9735ZM14.7097 56.132H8.52058V49.9232H14.7097V56.132ZM45.9173 50.6399C45.9173 51.1783 45.4825 51.6148 44.9462 51.6148H20.217C19.6807 51.6148 19.246 51.1783 19.246 50.6399C19.246 50.1016 19.6807 49.6651 20.217 49.6651H44.9461C45.4824 49.6651 45.9173 50.1016 45.9173 50.6399ZM15.6808 63.4746H7.54955C7.01326 63.4746 6.57852 63.9111 6.57852 64.4494V72.6079C6.57852 73.1463 7.01326 73.5827 7.54955 73.5827H15.6808C16.2171 73.5827 16.6518 73.1463 16.6518 72.6079V64.4494C16.6518 63.9111 16.2171 63.4746 15.6808 63.4746ZM14.7097 71.6331H8.52058V65.4243H14.7097V71.6331ZM20.2376 40.2029L22.7823 38.1759C23.7616 38.7243 24.8018 39.1569 25.8882 39.4674L26.2539 42.7064C26.3094 43.1991 26.7247 43.5715 27.2188 43.5715H32.531C33.025 43.5715 33.4403 43.1991 33.4959 42.7064L33.8614 39.4689C34.942 39.1617 35.982 38.7289 36.9673 38.1762L39.5072 40.2024C39.8935 40.5106 40.4484 40.4788 40.7976 40.1289L44.5535 36.3631C44.9028 36.0127 44.9347 35.455 44.6275 35.0668L42.6048 32.5123C43.1551 31.5233 43.5863 30.4794 43.8923 29.3945L47.1172 29.0275C47.6079 28.9717 47.9789 28.5548 47.9789 28.0588V22.7305C47.9789 22.2351 47.6086 21.8185 47.1183 21.7619L43.8924 21.391C43.5865 20.3061 43.1553 19.2618 42.6049 18.2729L44.6268 15.723C44.9344 15.335 44.903 14.7771 44.5538 14.4266L40.7979 10.656C40.4487 10.3053 39.8928 10.2739 39.5064 10.5827L36.9666 12.6127C35.9817 12.0603 34.9416 11.6275 33.8614 11.3203L33.4959 8.0828C33.4403 7.59011 33.025 7.21774 32.531 7.21774H27.2188C26.7247 7.21774 26.3094 7.59011 26.2539 8.0828L25.8883 11.3203C24.808 11.6275 23.7678 12.0603 22.7826 12.6129L20.2382 10.5822C19.8514 10.2736 19.2957 10.3056 18.9468 10.6564L15.1957 14.4269C14.8468 14.7776 14.8155 15.3352 15.1229 15.723L17.144 18.2717C16.5962 19.253 16.1644 20.2976 15.8542 21.3908L12.6271 21.7619C12.1368 21.8183 11.7665 22.2349 11.7665 22.7305V28.0588C11.7665 28.5548 12.1374 28.9717 12.6282 29.0275L15.8546 29.3946C16.1647 30.4877 16.5967 31.5321 17.1444 32.5133L15.1226 35.0668C14.8155 35.4548 14.8471 36.0122 15.1961 36.3628L18.9473 40.1286C19.296 40.4787 19.8511 40.5109 20.2376 40.2029ZM17.1821 35.5992L19.0809 33.2011C19.337 32.8777 19.3621 32.4274 19.1439 32.0771C18.4188 30.9143 17.8899 29.6361 17.5718 28.2782C17.4779 27.8775 17.1434 27.5791 16.7359 27.5328L13.7087 27.1882V23.6002L16.737 23.252C17.144 23.2052 17.478 22.907 17.5718 22.5066C17.8899 21.1487 18.4188 19.8706 19.1439 18.7077C19.3624 18.3572 19.337 17.9067 19.0804 17.5832L17.1821 15.1893L19.7082 12.6503L22.0965 14.5562C22.4179 14.8127 22.8652 14.8386 23.2138 14.6207C24.388 13.8874 25.6609 13.3576 26.9975 13.0464C27.3981 12.953 27.6966 12.6166 27.7429 12.2065L28.086 9.16755H31.6638L32.0069 12.2065C32.0532 12.6166 32.3517 12.953 32.7523 13.0464C34.0887 13.3576 35.3618 13.8872 36.5358 14.6207C36.8848 14.8386 37.3322 14.8124 37.6536 14.5557L40.0376 12.6503L42.5672 15.1897L40.6692 17.5831C40.4133 17.9057 40.3873 18.3551 40.6044 18.7052C41.3349 19.8838 41.8624 21.1615 42.1725 22.5035C42.2653 22.9052 42.5999 23.2049 43.0079 23.2519L46.0363 23.6V27.1881L43.009 27.5326C42.6005 27.5791 42.2654 27.8788 42.1725 28.2809C41.8624 29.6228 41.3349 30.9007 40.6044 32.0793C40.3875 32.4292 40.4133 32.8783 40.6687 33.2009L42.5672 35.5987L40.0373 38.1354L37.6528 36.233C37.3316 35.9768 36.8842 35.9509 36.5356 36.1686C35.3615 36.902 34.0885 37.4318 32.7521 37.743C32.3515 37.8363 32.053 38.1728 32.0067 38.5829L31.6636 41.6218H28.0858L27.7427 38.5829C27.6966 38.1737 27.3994 37.8378 27.0001 37.7436C25.6509 37.4253 24.3769 36.8953 23.2137 36.1686C22.8654 35.9511 22.4184 35.9766 22.097 36.2327L19.7082 38.1355L17.1821 35.5992ZM29.8727 33.8413C34.5145 33.8413 38.2909 30.0522 38.2909 25.3947C38.2909 20.7371 34.5145 16.9435 29.8727 16.9435C25.2309 16.9435 21.459 20.7347 21.459 25.3947C21.459 30.0546 25.2333 33.8413 29.8727 33.8413ZM29.8727 18.8934C33.4436 18.8934 36.3489 21.8099 36.3489 25.3947C36.3489 28.9795 33.4436 31.8916 29.8727 31.8916C26.3018 31.8916 23.4011 28.9771 23.4011 25.3947C23.4011 21.8123 26.3043 18.8934 29.8727 18.8934ZM67.6248 56.3941C65.1893 54.049 62.0759 52.6784 58.7456 52.4555V12.5764C58.7456 12.318 58.6433 12.0701 58.4613 11.8873L47.9057 1.2857C47.7234 1.10277 47.4764 1 47.2189 1H3C1.89543 1 1 1.89543 1 3V77.8008C1 78.9054 1.89543 79.8008 3 79.8008H52.0606C53.8399 80.5854 55.774 81 57.7687 81C57.8704 81 57.9728 80.999 58.0748 80.9967C61.8747 80.9167 65.4167 79.3559 68.0485 76.6012C73.4785 70.9129 73.2886 61.8481 67.6248 56.3941ZM48.1899 4.32904L55.4308 11.6014H48.1899V4.32904ZM4.94207 77.8511C3.83749 77.8511 2.94206 76.9557 2.94206 75.8511V4.94981C2.94206 3.84524 3.83749 2.94981 4.94206 2.94981H46.2479V12.5764C46.2479 13.1148 46.6826 13.5513 47.2189 13.5513H56.8033V52.4542C54.5354 52.6077 52.3771 53.294 50.4666 54.4449H20.217C19.6807 54.4449 19.246 54.8814 19.246 55.4198C19.246 55.9581 19.6807 56.3946 20.217 56.3946H47.9264C47.7822 56.5335 47.6394 56.6739 47.5002 56.8195C45.2415 59.1857 43.9585 62.1356 43.6336 65.1662H20.217C19.6807 65.1662 19.246 65.6027 19.246 66.141C19.246 66.6794 19.6807 67.1159 20.217 67.1159H43.5559C43.5828 68.0657 43.7044 69.0122 43.9179 69.9413H20.217C19.6807 69.9413 19.246 70.3777 19.246 70.9161C19.246 71.4545 19.6807 71.891 20.217 71.891H44.5146C45.242 73.7754 46.3774 75.5338 47.9241 77.0218C48.2277 77.314 48.5429 77.5892 48.8665 77.851L4.94207 77.8511ZM66.6466 75.252C64.3741 77.6305 61.3154 78.9785 58.0342 79.0474C54.7539 79.1204 51.639 77.8976 49.2682 75.6146C44.3763 70.9083 44.2123 63.0819 48.9023 58.1688C51.3136 55.6451 54.5438 54.3747 57.7786 54.3747C60.8389 54.3747 63.9031 55.5121 66.2804 57.8011C71.1707 62.5112 71.3354 70.34 66.6466 75.252ZM64.1433 61.6212C64.5405 61.9832 64.5701 62.5996 64.2097 62.9984L56.3584 71.6823C56.1786 71.8812 55.9251 71.9968 55.6577 72.0019C55.6515 72.0019 55.6454 72.0019 55.6394 72.0019C55.3785 72.0019 55.1284 71.8965 54.9455 71.709L51.3137 67.9847C50.9386 67.5999 50.9451 66.9827 51.3283 66.6061C51.7115 66.2293 52.3264 66.236 52.7015 66.6207L55.6127 69.606L62.7716 61.6879C63.1321 61.2892 63.7463 61.2596 64.1433 61.6212Z"/>
</mask>
<path d="M15.6808 47.9735H7.54955C7.01326 47.9735 6.57852 48.41 6.57852 48.9484V57.1068C6.57852 57.6452 7.01326 58.0816 7.54955 58.0816H15.6808C16.2171 58.0816 16.6518 57.6452 16.6518 57.1068V48.9484C16.6518 48.41 16.2171 47.9735 15.6808 47.9735ZM14.7097 56.132H8.52058V49.9232H14.7097V56.132ZM45.9173 50.6399C45.9173 51.1783 45.4825 51.6148 44.9462 51.6148H20.217C19.6807 51.6148 19.246 51.1783 19.246 50.6399C19.246 50.1016 19.6807 49.6651 20.217 49.6651H44.9461C45.4824 49.6651 45.9173 50.1016 45.9173 50.6399ZM15.6808 63.4746H7.54955C7.01326 63.4746 6.57852 63.9111 6.57852 64.4494V72.6079C6.57852 73.1463 7.01326 73.5827 7.54955 73.5827H15.6808C16.2171 73.5827 16.6518 73.1463 16.6518 72.6079V64.4494C16.6518 63.9111 16.2171 63.4746 15.6808 63.4746ZM14.7097 71.6331H8.52058V65.4243H14.7097V71.6331ZM20.2376 40.2029L22.7823 38.1759C23.7616 38.7243 24.8018 39.1569 25.8882 39.4674L26.2539 42.7064C26.3094 43.1991 26.7247 43.5715 27.2188 43.5715H32.531C33.025 43.5715 33.4403 43.1991 33.4959 42.7064L33.8614 39.4689C34.942 39.1617 35.982 38.7289 36.9673 38.1762L39.5072 40.2024C39.8935 40.5106 40.4484 40.4788 40.7976 40.1289L44.5535 36.3631C44.9028 36.0127 44.9347 35.455 44.6275 35.0668L42.6048 32.5123C43.1551 31.5233 43.5863 30.4794 43.8923 29.3945L47.1172 29.0275C47.6079 28.9717 47.9789 28.5548 47.9789 28.0588V22.7305C47.9789 22.2351 47.6086 21.8185 47.1183 21.7619L43.8924 21.391C43.5865 20.3061 43.1553 19.2618 42.6049 18.2729L44.6268 15.723C44.9344 15.335 44.903 14.7771 44.5538 14.4266L40.7979 10.656C40.4487 10.3053 39.8928 10.2739 39.5064 10.5827L36.9666 12.6127C35.9817 12.0603 34.9416 11.6275 33.8614 11.3203L33.4959 8.0828C33.4403 7.59011 33.025 7.21774 32.531 7.21774H27.2188C26.7247 7.21774 26.3094 7.59011 26.2539 8.0828L25.8883 11.3203C24.808 11.6275 23.7678 12.0603 22.7826 12.6129L20.2382 10.5822C19.8514 10.2736 19.2957 10.3056 18.9468 10.6564L15.1957 14.4269C14.8468 14.7776 14.8155 15.3352 15.1229 15.723L17.144 18.2717C16.5962 19.253 16.1644 20.2976 15.8542 21.3908L12.6271 21.7619C12.1368 21.8183 11.7665 22.2349 11.7665 22.7305V28.0588C11.7665 28.5548 12.1374 28.9717 12.6282 29.0275L15.8546 29.3946C16.1647 30.4877 16.5967 31.5321 17.1444 32.5133L15.1226 35.0668C14.8155 35.4548 14.8471 36.0122 15.1961 36.3628L18.9473 40.1286C19.296 40.4787 19.8511 40.5109 20.2376 40.2029ZM17.1821 35.5992L19.0809 33.2011C19.337 32.8777 19.3621 32.4274 19.1439 32.0771C18.4188 30.9143 17.8899 29.6361 17.5718 28.2782C17.4779 27.8775 17.1434 27.5791 16.7359 27.5328L13.7087 27.1882V23.6002L16.737 23.252C17.144 23.2052 17.478 22.907 17.5718 22.5066C17.8899 21.1487 18.4188 19.8706 19.1439 18.7077C19.3624 18.3572 19.337 17.9067 19.0804 17.5832L17.1821 15.1893L19.7082 12.6503L22.0965 14.5562C22.4179 14.8127 22.8652 14.8386 23.2138 14.6207C24.388 13.8874 25.6609 13.3576 26.9975 13.0464C27.3981 12.953 27.6966 12.6166 27.7429 12.2065L28.086 9.16755H31.6638L32.0069 12.2065C32.0532 12.6166 32.3517 12.953 32.7523 13.0464C34.0887 13.3576 35.3618 13.8872 36.5358 14.6207C36.8848 14.8386 37.3322 14.8124 37.6536 14.5557L40.0376 12.6503L42.5672 15.1897L40.6692 17.5831C40.4133 17.9057 40.3873 18.3551 40.6044 18.7052C41.3349 19.8838 41.8624 21.1615 42.1725 22.5035C42.2653 22.9052 42.5999 23.2049 43.0079 23.2519L46.0363 23.6V27.1881L43.009 27.5326C42.6005 27.5791 42.2654 27.8788 42.1725 28.2809C41.8624 29.6228 41.3349 30.9007 40.6044 32.0793C40.3875 32.4292 40.4133 32.8783 40.6687 33.2009L42.5672 35.5987L40.0373 38.1354L37.6528 36.233C37.3316 35.9768 36.8842 35.9509 36.5356 36.1686C35.3615 36.902 34.0885 37.4318 32.7521 37.743C32.3515 37.8363 32.053 38.1728 32.0067 38.5829L31.6636 41.6218H28.0858L27.7427 38.5829C27.6966 38.1737 27.3994 37.8378 27.0001 37.7436C25.6509 37.4253 24.3769 36.8953 23.2137 36.1686C22.8654 35.9511 22.4184 35.9766 22.097 36.2327L19.7082 38.1355L17.1821 35.5992ZM29.8727 33.8413C34.5145 33.8413 38.2909 30.0522 38.2909 25.3947C38.2909 20.7371 34.5145 16.9435 29.8727 16.9435C25.2309 16.9435 21.459 20.7347 21.459 25.3947C21.459 30.0546 25.2333 33.8413 29.8727 33.8413ZM29.8727 18.8934C33.4436 18.8934 36.3489 21.8099 36.3489 25.3947C36.3489 28.9795 33.4436 31.8916 29.8727 31.8916C26.3018 31.8916 23.4011 28.9771 23.4011 25.3947C23.4011 21.8123 26.3043 18.8934 29.8727 18.8934ZM67.6248 56.3941C65.1893 54.049 62.0759 52.6784 58.7456 52.4555V12.5764C58.7456 12.318 58.6433 12.0701 58.4613 11.8873L47.9057 1.2857C47.7234 1.10277 47.4764 1 47.2189 1H3C1.89543 1 1 1.89543 1 3V77.8008C1 78.9054 1.89543 79.8008 3 79.8008H52.0606C53.8399 80.5854 55.774 81 57.7687 81C57.8704 81 57.9728 80.999 58.0748 80.9967C61.8747 80.9167 65.4167 79.3559 68.0485 76.6012C73.4785 70.9129 73.2886 61.8481 67.6248 56.3941ZM48.1899 4.32904L55.4308 11.6014H48.1899V4.32904ZM4.94207 77.8511C3.83749 77.8511 2.94206 76.9557 2.94206 75.8511V4.94981C2.94206 3.84524 3.83749 2.94981 4.94206 2.94981H46.2479V12.5764C46.2479 13.1148 46.6826 13.5513 47.2189 13.5513H56.8033V52.4542C54.5354 52.6077 52.3771 53.294 50.4666 54.4449H20.217C19.6807 54.4449 19.246 54.8814 19.246 55.4198C19.246 55.9581 19.6807 56.3946 20.217 56.3946H47.9264C47.7822 56.5335 47.6394 56.6739 47.5002 56.8195C45.2415 59.1857 43.9585 62.1356 43.6336 65.1662H20.217C19.6807 65.1662 19.246 65.6027 19.246 66.141C19.246 66.6794 19.6807 67.1159 20.217 67.1159H43.5559C43.5828 68.0657 43.7044 69.0122 43.9179 69.9413H20.217C19.6807 69.9413 19.246 70.3777 19.246 70.9161C19.246 71.4545 19.6807 71.891 20.217 71.891H44.5146C45.242 73.7754 46.3774 75.5338 47.9241 77.0218C48.2277 77.314 48.5429 77.5892 48.8665 77.851L4.94207 77.8511ZM66.6466 75.252C64.3741 77.6305 61.3154 78.9785 58.0342 79.0474C54.7539 79.1204 51.639 77.8976 49.2682 75.6146C44.3763 70.9083 44.2123 63.0819 48.9023 58.1688C51.3136 55.6451 54.5438 54.3747 57.7786 54.3747C60.8389 54.3747 63.9031 55.5121 66.2804 57.8011C71.1707 62.5112 71.3354 70.34 66.6466 75.252ZM64.1433 61.6212C64.5405 61.9832 64.5701 62.5996 64.2097 62.9984L56.3584 71.6823C56.1786 71.8812 55.9251 71.9968 55.6577 72.0019C55.6515 72.0019 55.6454 72.0019 55.6394 72.0019C55.3785 72.0019 55.1284 71.8965 54.9455 71.709L51.3137 67.9847C50.9386 67.5999 50.9451 66.9827 51.3283 66.6061C51.7115 66.2293 52.3264 66.236 52.7015 66.6207L55.6127 69.606L62.7716 61.6879C63.1321 61.2892 63.7463 61.2596 64.1433 61.6212Z" fill="url(#paint0_linear_43_38539)"/>
<path d="M15.6808 47.9735H7.54955C7.01326 47.9735 6.57852 48.41 6.57852 48.9484V57.1068C6.57852 57.6452 7.01326 58.0816 7.54955 58.0816H15.6808C16.2171 58.0816 16.6518 57.6452 16.6518 57.1068V48.9484C16.6518 48.41 16.2171 47.9735 15.6808 47.9735ZM14.7097 56.132H8.52058V49.9232H14.7097V56.132ZM45.9173 50.6399C45.9173 51.1783 45.4825 51.6148 44.9462 51.6148H20.217C19.6807 51.6148 19.246 51.1783 19.246 50.6399C19.246 50.1016 19.6807 49.6651 20.217 49.6651H44.9461C45.4824 49.6651 45.9173 50.1016 45.9173 50.6399ZM15.6808 63.4746H7.54955C7.01326 63.4746 6.57852 63.9111 6.57852 64.4494V72.6079C6.57852 73.1463 7.01326 73.5827 7.54955 73.5827H15.6808C16.2171 73.5827 16.6518 73.1463 16.6518 72.6079V64.4494C16.6518 63.9111 16.2171 63.4746 15.6808 63.4746ZM14.7097 71.6331H8.52058V65.4243H14.7097V71.6331ZM20.2376 40.2029L22.7823 38.1759C23.7616 38.7243 24.8018 39.1569 25.8882 39.4674L26.2539 42.7064C26.3094 43.1991 26.7247 43.5715 27.2188 43.5715H32.531C33.025 43.5715 33.4403 43.1991 33.4959 42.7064L33.8614 39.4689C34.942 39.1617 35.982 38.7289 36.9673 38.1762L39.5072 40.2024C39.8935 40.5106 40.4484 40.4788 40.7976 40.1289L44.5535 36.3631C44.9028 36.0127 44.9347 35.455 44.6275 35.0668L42.6048 32.5123C43.1551 31.5233 43.5863 30.4794 43.8923 29.3945L47.1172 29.0275C47.6079 28.9717 47.9789 28.5548 47.9789 28.0588V22.7305C47.9789 22.2351 47.6086 21.8185 47.1183 21.7619L43.8924 21.391C43.5865 20.3061 43.1553 19.2618 42.6049 18.2729L44.6268 15.723C44.9344 15.335 44.903 14.7771 44.5538 14.4266L40.7979 10.656C40.4487 10.3053 39.8928 10.2739 39.5064 10.5827L36.9666 12.6127C35.9817 12.0603 34.9416 11.6275 33.8614 11.3203L33.4959 8.0828C33.4403 7.59011 33.025 7.21774 32.531 7.21774H27.2188C26.7247 7.21774 26.3094 7.59011 26.2539 8.0828L25.8883 11.3203C24.808 11.6275 23.7678 12.0603 22.7826 12.6129L20.2382 10.5822C19.8514 10.2736 19.2957 10.3056 18.9468 10.6564L15.1957 14.4269C14.8468 14.7776 14.8155 15.3352 15.1229 15.723L17.144 18.2717C16.5962 19.253 16.1644 20.2976 15.8542 21.3908L12.6271 21.7619C12.1368 21.8183 11.7665 22.2349 11.7665 22.7305V28.0588C11.7665 28.5548 12.1374 28.9717 12.6282 29.0275L15.8546 29.3946C16.1647 30.4877 16.5967 31.5321 17.1444 32.5133L15.1226 35.0668C14.8155 35.4548 14.8471 36.0122 15.1961 36.3628L18.9473 40.1286C19.296 40.4787 19.8511 40.5109 20.2376 40.2029ZM17.1821 35.5992L19.0809 33.2011C19.337 32.8777 19.3621 32.4274 19.1439 32.0771C18.4188 30.9143 17.8899 29.6361 17.5718 28.2782C17.4779 27.8775 17.1434 27.5791 16.7359 27.5328L13.7087 27.1882V23.6002L16.737 23.252C17.144 23.2052 17.478 22.907 17.5718 22.5066C17.8899 21.1487 18.4188 19.8706 19.1439 18.7077C19.3624 18.3572 19.337 17.9067 19.0804 17.5832L17.1821 15.1893L19.7082 12.6503L22.0965 14.5562C22.4179 14.8127 22.8652 14.8386 23.2138 14.6207C24.388 13.8874 25.6609 13.3576 26.9975 13.0464C27.3981 12.953 27.6966 12.6166 27.7429 12.2065L28.086 9.16755H31.6638L32.0069 12.2065C32.0532 12.6166 32.3517 12.953 32.7523 13.0464C34.0887 13.3576 35.3618 13.8872 36.5358 14.6207C36.8848 14.8386 37.3322 14.8124 37.6536 14.5557L40.0376 12.6503L42.5672 15.1897L40.6692 17.5831C40.4133 17.9057 40.3873 18.3551 40.6044 18.7052C41.3349 19.8838 41.8624 21.1615 42.1725 22.5035C42.2653 22.9052 42.5999 23.2049 43.0079 23.2519L46.0363 23.6V27.1881L43.009 27.5326C42.6005 27.5791 42.2654 27.8788 42.1725 28.2809C41.8624 29.6228 41.3349 30.9007 40.6044 32.0793C40.3875 32.4292 40.4133 32.8783 40.6687 33.2009L42.5672 35.5987L40.0373 38.1354L37.6528 36.233C37.3316 35.9768 36.8842 35.9509 36.5356 36.1686C35.3615 36.902 34.0885 37.4318 32.7521 37.743C32.3515 37.8363 32.053 38.1728 32.0067 38.5829L31.6636 41.6218H28.0858L27.7427 38.5829C27.6966 38.1737 27.3994 37.8378 27.0001 37.7436C25.6509 37.4253 24.3769 36.8953 23.2137 36.1686C22.8654 35.9511 22.4184 35.9766 22.097 36.2327L19.7082 38.1355L17.1821 35.5992ZM29.8727 33.8413C34.5145 33.8413 38.2909 30.0522 38.2909 25.3947C38.2909 20.7371 34.5145 16.9435 29.8727 16.9435C25.2309 16.9435 21.459 20.7347 21.459 25.3947C21.459 30.0546 25.2333 33.8413 29.8727 33.8413ZM29.8727 18.8934C33.4436 18.8934 36.3489 21.8099 36.3489 25.3947C36.3489 28.9795 33.4436 31.8916 29.8727 31.8916C26.3018 31.8916 23.4011 28.9771 23.4011 25.3947C23.4011 21.8123 26.3043 18.8934 29.8727 18.8934ZM67.6248 56.3941C65.1893 54.049 62.0759 52.6784 58.7456 52.4555V12.5764C58.7456 12.318 58.6433 12.0701 58.4613 11.8873L47.9057 1.2857C47.7234 1.10277 47.4764 1 47.2189 1H3C1.89543 1 1 1.89543 1 3V77.8008C1 78.9054 1.89543 79.8008 3 79.8008H52.0606C53.8399 80.5854 55.774 81 57.7687 81C57.8704 81 57.9728 80.999 58.0748 80.9967C61.8747 80.9167 65.4167 79.3559 68.0485 76.6012C73.4785 70.9129 73.2886 61.8481 67.6248 56.3941ZM48.1899 4.32904L55.4308 11.6014H48.1899V4.32904ZM4.94207 77.8511C3.83749 77.8511 2.94206 76.9557 2.94206 75.8511V4.94981C2.94206 3.84524 3.83749 2.94981 4.94206 2.94981H46.2479V12.5764C46.2479 13.1148 46.6826 13.5513 47.2189 13.5513H56.8033V52.4542C54.5354 52.6077 52.3771 53.294 50.4666 54.4449H20.217C19.6807 54.4449 19.246 54.8814 19.246 55.4198C19.246 55.9581 19.6807 56.3946 20.217 56.3946H47.9264C47.7822 56.5335 47.6394 56.6739 47.5002 56.8195C45.2415 59.1857 43.9585 62.1356 43.6336 65.1662H20.217C19.6807 65.1662 19.246 65.6027 19.246 66.141C19.246 66.6794 19.6807 67.1159 20.217 67.1159H43.5559C43.5828 68.0657 43.7044 69.0122 43.9179 69.9413H20.217C19.6807 69.9413 19.246 70.3777 19.246 70.9161C19.246 71.4545 19.6807 71.891 20.217 71.891H44.5146C45.242 73.7754 46.3774 75.5338 47.9241 77.0218C48.2277 77.314 48.5429 77.5892 48.8665 77.851L4.94207 77.8511ZM66.6466 75.252C64.3741 77.6305 61.3154 78.9785 58.0342 79.0474C54.7539 79.1204 51.639 77.8976 49.2682 75.6146C44.3763 70.9083 44.2123 63.0819 48.9023 58.1688C51.3136 55.6451 54.5438 54.3747 57.7786 54.3747C60.8389 54.3747 63.9031 55.5121 66.2804 57.8011C71.1707 62.5112 71.3354 70.34 66.6466 75.252ZM64.1433 61.6212C64.5405 61.9832 64.5701 62.5996 64.2097 62.9984L56.3584 71.6823C56.1786 71.8812 55.9251 71.9968 55.6577 72.0019C55.6515 72.0019 55.6454 72.0019 55.6394 72.0019C55.3785 72.0019 55.1284 71.8965 54.9455 71.709L51.3137 67.9847C50.9386 67.5999 50.9451 66.9827 51.3283 66.6061C51.7115 66.2293 52.3264 66.236 52.7015 66.6207L55.6127 69.606L62.7716 61.6879C63.1321 61.2892 63.7463 61.2596 64.1433 61.6212Z" stroke="url(#paint1_linear_43_38539)" stroke-width="0.4" mask="url(#path-1-outside-1_43_38539)"/>
<defs>
<linearGradient id="paint0_linear_43_38539" x1="39.781" y1="123.826" x2="-25.9863" y2="89.4577" gradientUnits="userSpaceOnUse">
<stop stop-color="#723AA9"/>
<stop offset="1" stop-color="#1DE1D3"/>
</linearGradient>
<linearGradient id="paint1_linear_43_38539" x1="39.781" y1="123.826" x2="-25.9863" y2="89.4577" gradientUnits="userSpaceOnUse">
<stop stop-color="#723AA9"/>
<stop offset="1" stop-color="#1DE1D3"/>
</linearGradient>
</defs>
</svg>
