<svg width="80" height="80" viewBox="0 0 80 80" fill="none" xmlns="http://www.w3.org/2000/svg">
<path d="M61.6161 53.1593C62.9804 50.9254 63.9781 48.518 64.5919 45.98H68.3302C69.0218 45.98 69.5826 45.4192 69.5826 44.7275V35.2723C69.5826 34.5807 69.0218 34.0199 68.3302 34.0199H64.5919C63.9778 31.481 62.9799 29.0738 61.6161 26.8409L64.261 24.1962C64.7501 23.7071 64.7501 22.9141 64.261 22.425L57.5753 15.739C57.3403 15.5042 57.0218 15.3722 56.6896 15.3722C56.3574 15.3722 56.039 15.5042 55.804 15.739L53.1591 18.3839C50.9249 17.0196 48.5179 16.0218 45.9801 15.4079V11.6698C45.9801 10.9782 45.4193 10.4174 44.7277 10.4174H35.2723C34.5807 10.4174 34.0199 10.9782 34.0199 11.6698V15.4077C31.4807 16.0221 29.0735 17.0198 26.8407 18.3836L24.196 15.7389C23.7069 15.2498 22.914 15.2498 22.4249 15.7389L15.739 22.4246C15.5042 22.6594 15.3722 22.978 15.3722 23.3102C15.3722 23.6424 15.5042 23.961 15.739 24.1959L18.3837 26.8407C17.0195 29.0748 16.0216 31.482 15.4077 34.02H11.6698C10.9782 34.02 10.4174 34.5808 10.4174 35.2725V44.7277C10.4174 45.4193 10.9782 45.9801 11.6698 45.9801H15.4076C16.0219 48.5195 17.0196 50.9268 18.3834 53.1596L15.739 55.8041C15.2499 56.2932 15.2499 57.0862 15.739 57.5753L22.4247 64.2611C22.9138 64.7504 23.7068 64.7502 24.1959 64.2611L26.8405 61.6166C29.0746 62.9808 31.4818 63.9786 34.0197 64.5924V68.3302C34.0197 69.0218 34.5805 69.5826 35.2722 69.5826H44.7275C45.4192 69.5826 45.98 69.0218 45.98 68.3302V64.5924C48.519 63.9782 50.9257 62.9807 53.1591 61.6166L55.8037 64.2611C56.2929 64.7504 57.0857 64.7504 57.575 64.2611L64.2607 57.5754C64.4957 57.3406 64.6276 57.022 64.6276 56.6898C64.6276 56.3576 64.4957 56.039 64.2608 55.8041L61.6161 53.1593ZM56.6895 61.6042L54.2192 59.1338C53.7968 58.7115 53.135 58.6459 52.6381 58.9775C50.1512 60.6373 47.4074 61.7747 44.4827 62.3579C43.897 62.4747 43.4751 62.989 43.4751 63.5862V67.0777H36.5246V63.5862C36.5246 62.989 36.1029 62.4747 35.5169 62.3579C32.5933 61.7752 29.8495 60.638 27.3614 58.9777C26.8645 58.6461 26.2032 58.7115 25.7807 59.1339L23.3101 61.6044L18.3955 56.6896L20.8658 54.2192C21.2881 53.7968 21.3534 53.135 21.0218 52.6383C19.3623 50.152 18.2251 47.4081 17.6416 44.4825C17.5247 43.8968 17.0106 43.4751 16.4133 43.4751H12.9223V36.5248H16.4136C17.0109 36.5248 17.5252 36.103 17.642 35.5172C18.2248 32.5937 19.3622 29.8496 21.0225 27.3616C21.3541 26.8648 21.2886 26.2031 20.8662 25.7808L18.3956 23.3102L23.3104 18.3956L25.781 20.8662C26.2032 21.2885 26.8648 21.354 27.3619 21.0223C29.8481 19.3628 32.5921 18.2254 35.5173 17.642C36.103 17.5252 36.5249 17.011 36.5249 16.4138V12.9223H43.4754V16.4141C43.4754 17.0114 43.8971 17.5256 44.4831 17.6424C47.4063 18.225 50.1501 19.3623 52.6384 21.0228C53.1353 21.3544 53.7966 21.2889 54.2193 20.8665L56.6899 18.3959L61.6045 23.3107L59.1339 25.7813C58.7117 26.2037 58.6464 26.8654 58.9778 27.3622C60.6377 29.8488 61.7747 32.5926 62.358 35.5175C62.4748 36.1032 62.989 36.5251 63.5864 36.5251H67.0784V43.4754H63.5864C62.9891 43.4754 62.4748 43.8971 62.358 44.4831C61.7753 47.4068 60.6381 50.1508 58.9778 52.6387C58.6464 53.1355 58.7117 53.7973 59.1339 54.2195L61.6045 56.6901L56.6895 61.6042ZM75.2947 67.9239C75.3501 68.6134 74.8358 69.2172 74.1464 69.2725L66.2386 69.907C66.2051 69.9098 66.1716 69.9111 66.1382 69.9111C65.8076 69.9111 65.4887 69.78 65.2528 69.5443C64.9933 69.2847 64.8606 68.9245 64.89 68.5586L65.5244 60.651C65.5798 59.9615 66.1843 59.4472 66.873 59.5028C67.5624 59.558 68.0766 60.1617 68.0213 60.8513L67.6639 65.3069C74.0108 58.3776 77.4951 49.4301 77.4951 40C77.4951 32.3151 75.1845 24.9271 70.8131 18.6347C70.4185 18.0665 70.5592 17.2861 71.1272 16.8914C71.6953 16.4969 72.4756 16.6372 72.8704 17.2055C77.5347 23.9197 80 31.8018 80 40C80 50.126 76.2337 59.7301 69.3778 67.1422L73.9461 66.7757C74.632 66.7205 75.2395 67.2343 75.2947 67.9239ZM16.8916 8.87264C16.4969 8.30466 16.6375 7.52407 17.2055 7.12955C23.9191 2.46544 31.8013 0 40 0C50.126 0 59.7301 3.76626 67.1422 10.6218L66.7756 6.05385C66.7202 5.36438 67.2344 4.76055 67.9239 4.70528C68.6104 4.64986 69.2172 5.16399 69.2725 5.85346L69.907 13.7611C69.9364 14.127 69.8037 14.4874 69.5443 14.7468C69.3083 14.9825 68.9894 15.1136 68.6588 15.1136C68.6254 15.1136 68.5919 15.1123 68.5584 15.1095L60.6508 14.4755C59.9613 14.42 59.4472 13.8164 59.5025 13.1269C59.5579 12.4374 60.1611 11.923 60.851 11.9787L65.3065 12.336C58.3776 5.98904 49.4301 2.50489 40 2.50489C32.3147 2.50489 24.9267 4.81534 18.6347 9.18669C18.0668 9.58137 17.2863 9.44078 16.8916 8.87264ZM9.18669 61.3653C9.58137 61.9333 9.44078 62.7139 8.87264 63.1084C8.65472 63.2598 8.40579 63.3324 8.15906 63.3324C7.76266 63.3324 7.37284 63.1447 7.12939 62.7945C2.46528 56.0808 0 48.1985 0 40C0 29.874 3.76626 20.2699 10.6218 12.8578L6.05385 13.2243C5.36564 13.2811 4.7607 12.7656 4.70528 12.0761C4.64986 11.3866 5.16399 10.7828 5.85346 10.7275L13.7613 10.093C14.1273 10.0631 14.4874 10.1963 14.7469 10.4557C15.0065 10.7153 15.1391 11.0755 15.1097 11.4414L14.4753 19.349C14.4229 20.0045 13.8746 20.5013 13.2283 20.5014C13.1947 20.5014 13.1609 20.5 13.1269 20.4974C12.4374 20.4421 11.9233 19.8384 11.9787 19.1488L12.3361 14.6931C5.98904 21.6224 2.50489 30.5699 2.50489 40C2.50489 47.6852 4.81534 55.0732 9.18669 61.3653ZM63.1083 71.1274C63.5029 71.6955 63.3622 72.4759 62.7942 72.8706C56.0805 77.5347 48.1984 80 40 80C29.8738 80 20.2697 76.2337 12.8578 69.3782L13.2243 73.9461C13.2797 74.6356 12.7656 75.2395 12.0761 75.2947C12.0421 75.2975 12.0081 75.2988 11.9746 75.2988C11.3284 75.2988 10.7803 74.8019 10.7277 74.1464L10.093 66.2387C10.0636 65.8729 10.1963 65.5125 10.4557 65.2531C10.7153 64.9935 11.0757 64.8601 11.4414 64.8903L19.349 65.5247C20.0385 65.58 20.5526 66.1836 20.4972 66.8733C20.442 67.5627 19.8375 68.0773 19.1486 68.0214L14.6929 67.664C21.6222 74.011 30.5699 77.4951 40 77.4951C47.685 77.4951 55.0729 75.1847 61.3652 70.8133C61.9333 70.4189 62.7134 70.5592 63.1083 71.1274ZM40 22.4744C30.3363 22.4744 22.4744 30.3364 22.4744 40C22.4744 49.6636 30.3363 57.5256 40 57.5256C49.6637 57.5256 57.5255 49.6637 57.5255 40C57.5255 30.3363 49.6637 22.4744 40 22.4744ZM40 55.0207C31.7176 55.0207 24.9793 48.2824 24.9793 40C24.9793 31.7176 31.7176 24.9793 40 24.9793C48.2824 24.9793 55.0206 31.7176 55.0206 40C55.0206 48.2824 48.2824 55.0207 40 55.0207ZM40 26.264C32.4258 26.264 26.264 32.426 26.264 40C26.264 47.574 32.4258 53.7359 40 53.7359C47.574 53.7359 53.7359 47.574 53.7359 40C53.7359 32.426 47.574 26.264 40 26.264ZM40 51.231C33.807 51.231 28.7688 46.1927 28.7688 40C28.7688 33.8071 33.8071 28.7688 40 28.7688C46.1929 28.7688 51.231 33.8071 51.231 40C51.231 46.1929 46.1929 51.231 40 51.231ZM42.2187 38.962C42.5647 39.561 42.3593 40.327 41.7603 40.6729L41.2524 40.9661V41.5527C41.2524 42.2444 40.6917 42.8052 40 42.8052C39.579 42.8052 39.2074 42.5966 38.9802 42.278L35.0203 44.5644C34.823 44.6782 34.6076 44.7324 34.3953 44.7324C33.9623 44.7324 33.5415 44.5077 33.3094 44.106C32.9634 43.507 33.1688 42.741 33.7678 42.3951L38.7476 39.52V31.0568C38.7476 30.3651 39.3083 29.8043 40 29.8043C40.6917 29.8043 41.2524 30.3651 41.2524 31.0568V38.3425C41.642 38.3798 42.0083 38.5974 42.2187 38.962Z" fill="black"/>
<path d="M61.6161 53.1593C62.9804 50.9254 63.9781 48.518 64.5919 45.98H68.3302C69.0218 45.98 69.5826 45.4192 69.5826 44.7275V35.2723C69.5826 34.5807 69.0218 34.0199 68.3302 34.0199H64.5919C63.9778 31.481 62.9799 29.0738 61.6161 26.8409L64.261 24.1962C64.7501 23.7071 64.7501 22.9141 64.261 22.425L57.5753 15.739C57.3403 15.5042 57.0218 15.3722 56.6896 15.3722C56.3574 15.3722 56.039 15.5042 55.804 15.739L53.1591 18.3839C50.9249 17.0196 48.5179 16.0218 45.9801 15.4079V11.6698C45.9801 10.9782 45.4193 10.4174 44.7277 10.4174H35.2723C34.5807 10.4174 34.0199 10.9782 34.0199 11.6698V15.4077C31.4807 16.0221 29.0735 17.0198 26.8407 18.3836L24.196 15.7389C23.7069 15.2498 22.914 15.2498 22.4249 15.7389L15.739 22.4246C15.5042 22.6594 15.3722 22.978 15.3722 23.3102C15.3722 23.6424 15.5042 23.961 15.739 24.1959L18.3837 26.8407C17.0195 29.0748 16.0216 31.482 15.4077 34.02H11.6698C10.9782 34.02 10.4174 34.5808 10.4174 35.2725V44.7277C10.4174 45.4193 10.9782 45.9801 11.6698 45.9801H15.4076C16.0219 48.5195 17.0196 50.9268 18.3834 53.1596L15.739 55.8041C15.2499 56.2932 15.2499 57.0862 15.739 57.5753L22.4247 64.2611C22.9138 64.7504 23.7068 64.7502 24.1959 64.2611L26.8405 61.6166C29.0746 62.9808 31.4818 63.9786 34.0197 64.5924V68.3302C34.0197 69.0218 34.5805 69.5826 35.2722 69.5826H44.7275C45.4192 69.5826 45.98 69.0218 45.98 68.3302V64.5924C48.519 63.9782 50.9257 62.9807 53.1591 61.6166L55.8037 64.2611C56.2929 64.7504 57.0857 64.7504 57.575 64.2611L64.2607 57.5754C64.4957 57.3406 64.6276 57.022 64.6276 56.6898C64.6276 56.3576 64.4957 56.039 64.2608 55.8041L61.6161 53.1593ZM56.6895 61.6042L54.2192 59.1338C53.7968 58.7115 53.135 58.6459 52.6381 58.9775C50.1512 60.6373 47.4074 61.7747 44.4827 62.3579C43.897 62.4747 43.4751 62.989 43.4751 63.5862V67.0777H36.5246V63.5862C36.5246 62.989 36.1029 62.4747 35.5169 62.3579C32.5933 61.7752 29.8495 60.638 27.3614 58.9777C26.8645 58.6461 26.2032 58.7115 25.7807 59.1339L23.3101 61.6044L18.3955 56.6896L20.8658 54.2192C21.2881 53.7968 21.3534 53.135 21.0218 52.6383C19.3623 50.152 18.2251 47.4081 17.6416 44.4825C17.5247 43.8968 17.0106 43.4751 16.4133 43.4751H12.9223V36.5248H16.4136C17.0109 36.5248 17.5252 36.103 17.642 35.5172C18.2248 32.5937 19.3622 29.8496 21.0225 27.3616C21.3541 26.8648 21.2886 26.2031 20.8662 25.7808L18.3956 23.3102L23.3104 18.3956L25.781 20.8662C26.2032 21.2885 26.8648 21.354 27.3619 21.0223C29.8481 19.3628 32.5921 18.2254 35.5173 17.642C36.103 17.5252 36.5249 17.011 36.5249 16.4138V12.9223H43.4754V16.4141C43.4754 17.0114 43.8971 17.5256 44.4831 17.6424C47.4063 18.225 50.1501 19.3623 52.6384 21.0228C53.1353 21.3544 53.7966 21.2889 54.2193 20.8665L56.6899 18.3959L61.6045 23.3107L59.1339 25.7813C58.7117 26.2037 58.6464 26.8654 58.9778 27.3622C60.6377 29.8488 61.7747 32.5926 62.358 35.5175C62.4748 36.1032 62.989 36.5251 63.5864 36.5251H67.0784V43.4754H63.5864C62.9891 43.4754 62.4748 43.8971 62.358 44.4831C61.7753 47.4068 60.6381 50.1508 58.9778 52.6387C58.6464 53.1355 58.7117 53.7973 59.1339 54.2195L61.6045 56.6901L56.6895 61.6042ZM75.2947 67.9239C75.3501 68.6134 74.8358 69.2172 74.1464 69.2725L66.2386 69.907C66.2051 69.9098 66.1716 69.9111 66.1382 69.9111C65.8076 69.9111 65.4887 69.78 65.2528 69.5443C64.9933 69.2847 64.8606 68.9245 64.89 68.5586L65.5244 60.651C65.5798 59.9615 66.1843 59.4472 66.873 59.5028C67.5624 59.558 68.0766 60.1617 68.0213 60.8513L67.6639 65.3069C74.0108 58.3776 77.4951 49.4301 77.4951 40C77.4951 32.3151 75.1845 24.9271 70.8131 18.6347C70.4185 18.0665 70.5592 17.2861 71.1272 16.8914C71.6953 16.4969 72.4756 16.6372 72.8704 17.2055C77.5347 23.9197 80 31.8018 80 40C80 50.126 76.2337 59.7301 69.3778 67.1422L73.9461 66.7757C74.632 66.7205 75.2395 67.2343 75.2947 67.9239ZM16.8916 8.87264C16.4969 8.30466 16.6375 7.52407 17.2055 7.12955C23.9191 2.46544 31.8013 0 40 0C50.126 0 59.7301 3.76626 67.1422 10.6218L66.7756 6.05385C66.7202 5.36438 67.2344 4.76055 67.9239 4.70528C68.6104 4.64986 69.2172 5.16399 69.2725 5.85346L69.907 13.7611C69.9364 14.127 69.8037 14.4874 69.5443 14.7468C69.3083 14.9825 68.9894 15.1136 68.6588 15.1136C68.6254 15.1136 68.5919 15.1123 68.5584 15.1095L60.6508 14.4755C59.9613 14.42 59.4472 13.8164 59.5025 13.1269C59.5579 12.4374 60.1611 11.923 60.851 11.9787L65.3065 12.336C58.3776 5.98904 49.4301 2.50489 40 2.50489C32.3147 2.50489 24.9267 4.81534 18.6347 9.18669C18.0668 9.58137 17.2863 9.44078 16.8916 8.87264ZM9.18669 61.3653C9.58137 61.9333 9.44078 62.7139 8.87264 63.1084C8.65472 63.2598 8.40579 63.3324 8.15906 63.3324C7.76266 63.3324 7.37284 63.1447 7.12939 62.7945C2.46528 56.0808 0 48.1985 0 40C0 29.874 3.76626 20.2699 10.6218 12.8578L6.05385 13.2243C5.36564 13.2811 4.7607 12.7656 4.70528 12.0761C4.64986 11.3866 5.16399 10.7828 5.85346 10.7275L13.7613 10.093C14.1273 10.0631 14.4874 10.1963 14.7469 10.4557C15.0065 10.7153 15.1391 11.0755 15.1097 11.4414L14.4753 19.349C14.4229 20.0045 13.8746 20.5013 13.2283 20.5014C13.1947 20.5014 13.1609 20.5 13.1269 20.4974C12.4374 20.4421 11.9233 19.8384 11.9787 19.1488L12.3361 14.6931C5.98904 21.6224 2.50489 30.5699 2.50489 40C2.50489 47.6852 4.81534 55.0732 9.18669 61.3653ZM63.1083 71.1274C63.5029 71.6955 63.3622 72.4759 62.7942 72.8706C56.0805 77.5347 48.1984 80 40 80C29.8738 80 20.2697 76.2337 12.8578 69.3782L13.2243 73.9461C13.2797 74.6356 12.7656 75.2395 12.0761 75.2947C12.0421 75.2975 12.0081 75.2988 11.9746 75.2988C11.3284 75.2988 10.7803 74.8019 10.7277 74.1464L10.093 66.2387C10.0636 65.8729 10.1963 65.5125 10.4557 65.2531C10.7153 64.9935 11.0757 64.8601 11.4414 64.8903L19.349 65.5247C20.0385 65.58 20.5526 66.1836 20.4972 66.8733C20.442 67.5627 19.8375 68.0773 19.1486 68.0214L14.6929 67.664C21.6222 74.011 30.5699 77.4951 40 77.4951C47.685 77.4951 55.0729 75.1847 61.3652 70.8133C61.9333 70.4189 62.7134 70.5592 63.1083 71.1274ZM40 22.4744C30.3363 22.4744 22.4744 30.3364 22.4744 40C22.4744 49.6636 30.3363 57.5256 40 57.5256C49.6637 57.5256 57.5255 49.6637 57.5255 40C57.5255 30.3363 49.6637 22.4744 40 22.4744ZM40 55.0207C31.7176 55.0207 24.9793 48.2824 24.9793 40C24.9793 31.7176 31.7176 24.9793 40 24.9793C48.2824 24.9793 55.0206 31.7176 55.0206 40C55.0206 48.2824 48.2824 55.0207 40 55.0207ZM40 26.264C32.4258 26.264 26.264 32.426 26.264 40C26.264 47.574 32.4258 53.7359 40 53.7359C47.574 53.7359 53.7359 47.574 53.7359 40C53.7359 32.426 47.574 26.264 40 26.264ZM40 51.231C33.807 51.231 28.7688 46.1927 28.7688 40C28.7688 33.8071 33.8071 28.7688 40 28.7688C46.1929 28.7688 51.231 33.8071 51.231 40C51.231 46.1929 46.1929 51.231 40 51.231ZM42.2187 38.962C42.5647 39.561 42.3593 40.327 41.7603 40.6729L41.2524 40.9661V41.5527C41.2524 42.2444 40.6917 42.8052 40 42.8052C39.579 42.8052 39.2074 42.5966 38.9802 42.278L35.0203 44.5644C34.823 44.6782 34.6076 44.7324 34.3953 44.7324C33.9623 44.7324 33.5415 44.5077 33.3094 44.106C32.9634 43.507 33.1688 42.741 33.7678 42.3951L38.7476 39.52V31.0568C38.7476 30.3651 39.3083 29.8043 40 29.8043C40.6917 29.8043 41.2524 30.3651 41.2524 31.0568V38.3425C41.642 38.3798 42.0083 38.5974 42.2187 38.962Z" fill="url(#paint0_linear_43_38543)"/>
<defs>
<linearGradient id="paint0_linear_43_38543" x1="43.697" y1="122.826" x2="-26.356" y2="81.5776" gradientUnits="userSpaceOnUse">
<stop stop-color="#723AA9"/>
<stop offset="1" stop-color="#1DE1D3"/>
</linearGradient>
</defs>
</svg>
