<svg width="58" height="42" viewBox="0 0 58 42" fill="none" xmlns="http://www.w3.org/2000/svg">
<path fill-rule="evenodd" clip-rule="evenodd" d="M28.9493 28.1312C28.6774 28.1312 28.3716 28.002 28.2357 27.7436L23.0711 19.3464C22.9352 19.1204 22.9352 18.7974 23.0711 18.539C23.207 18.3129 23.4788 18.1192 23.7846 18.1192H25.5175V10.5294C25.5175 10.0772 25.8913 9.72194 26.367 9.72194H31.5316C32.0073 9.72194 32.381 10.0772 32.381 10.5294V18.1837H34.1818C34.4537 18.1837 34.7255 18.3129 34.8954 18.5713C35.0313 18.7974 35.0313 19.1204 34.8954 19.3787L29.6628 27.7436C29.5269 28.002 29.289 28.1312 28.9493 28.1312ZM25.2457 19.734L28.9832 25.8058L32.7548 19.734H31.5316C31.0559 19.734 30.6821 19.3787 30.6821 18.9589V11.2722H27.1484V18.9266C27.1484 19.3787 26.7747 19.7017 26.299 19.7017H25.2457V19.734Z" fill="url(#paint0_linear_19_27498)"/>
<path d="M40.8076 31.2632H17.0911C16.6154 31.2632 16.2417 30.908 16.2417 30.4558V27.1292C16.2417 26.6771 16.6154 26.3218 17.0911 26.3218C17.5668 26.3218 17.9406 26.6771 17.9406 27.1292V29.6807H40.0601V27.1292C40.0601 26.6771 40.4338 26.3218 40.9095 26.3218C41.3852 26.3218 41.759 26.6771 41.759 27.1292V30.4558C41.657 30.908 41.2833 31.2632 40.8076 31.2632Z" fill="url(#paint1_linear_19_27498)"/>
<path fill-rule="evenodd" clip-rule="evenodd" d="M6.4896 10.4318C6.4896 12.7895 8.46031 14.6627 10.9067 14.6627C13.3531 14.6627 15.3578 12.7895 15.3578 10.4318C15.3578 8.10641 13.3531 6.23319 10.9067 6.23319C8.46031 6.23319 6.4896 8.10641 6.4896 10.4318ZM8.15451 10.4641C8.15451 9.01073 9.41168 7.84803 10.9067 7.84803C12.4357 7.84803 13.6929 9.04302 13.6929 10.4641C13.6929 11.9497 12.4697 13.1447 10.9067 13.1447C9.37771 13.1447 8.15451 11.9497 8.15451 10.4641Z" fill="url(#paint2_linear_19_27498)"/>
<path fill-rule="evenodd" clip-rule="evenodd" d="M1.97071 16.6975L4.24663 18.8008V34.5578H0.883428C0.407739 34.5578 0.0339844 34.913 0.0339844 35.3329V38.2073C0.0339844 40.1452 1.69889 41.76 3.77154 41.76H54.1265C56.1992 41.76 57.8981 40.1774 58 38.2073V35.3329C58 34.913 57.6262 34.5578 57.1506 34.5578H53.6503V6.84655C53.6503 5.68385 52.7329 4.77954 51.5436 4.77954H20.1037C20.1095 4.57183 20.0319 4.36424 19.877 4.19861L17.4646 1.93782C17.1927 1.61485 16.717 1.61485 16.3773 1.84093L14.0668 3.48807C14.0022 3.48807 13.9648 3.47509 13.9375 3.46559C13.9218 3.4601 13.9093 3.45578 13.8969 3.45578L13.4552 0.678236C13.4212 0.258376 13.0814 0 12.6737 0H9.27592C8.90217 0 8.52841 0.258376 8.46045 0.678236L8.05272 3.45578C7.95079 3.45578 7.91681 3.45578 7.84886 3.48807L5.53837 1.84093C5.23257 1.61485 4.75688 1.64715 4.48506 1.93782L2.03866 4.19861C1.69889 4.48928 1.69889 4.90914 1.93673 5.23211L3.6696 7.4606C3.66138 7.48401 3.65516 7.50554 3.64948 7.52519C3.63165 7.58682 3.61919 7.62989 3.56766 7.65438L0.713532 8.04195C0.271822 8.10654 0 8.42951 0 8.81707V12.0791C0 12.4343 0.271822 12.7896 0.713532 12.8542L3.56766 13.2418C3.61297 13.3064 3.62807 13.3422 3.64317 13.3781C3.65072 13.3961 3.65827 13.414 3.6696 13.4355L1.86878 15.664C1.63093 15.987 1.69889 16.4069 1.97071 16.6975ZM12.6057 20.8638H9.24194C8.80023 20.8638 8.46045 20.5732 8.42648 20.1856L8.01874 17.4404C7.9882 17.4404 7.96452 17.4338 7.93845 17.4267C7.90651 17.4179 7.87099 17.4081 7.81488 17.4081L5.94552 18.7407V34.5573H52.0193V6.87884C52.0193 6.62047 51.7815 6.39439 51.5436 6.39439H19.0411L18.2121 7.4606C18.2519 7.49844 18.2684 7.54736 18.282 7.58789C18.2917 7.61654 18.2999 7.641 18.314 7.65438L21.1681 8.04195C21.6098 8.10654 21.8817 8.46181 21.8817 8.81707V12.0791C21.8817 12.4989 21.6098 12.7896 21.1681 12.8542L18.314 13.2418C18.2585 13.2945 18.2483 13.3257 18.228 13.3881C18.2234 13.4022 18.2183 13.4178 18.2121 13.4355L19.9449 15.664C20.1828 15.987 20.1488 16.4069 19.877 16.6975L17.4646 18.9583C17.1927 19.249 16.717 19.2813 16.3773 19.0552L14.0668 17.4081C14.0328 17.4404 13.9648 17.4404 13.8969 17.4404L13.4552 20.1856C13.3532 20.5732 13.0474 20.8638 12.6057 20.8638ZM16.819 3.58496L18.202 4.89953C18.0104 5.0119 17.8715 5.19495 17.8228 5.413L16.6151 6.97615C16.4112 7.26682 16.4112 7.55749 16.5811 7.84816C16.717 8.10654 16.853 8.42951 16.9549 8.68789C17.0228 8.94626 17.3286 9.14004 17.6005 9.17234L20.2507 9.52761V11.4008L17.6005 11.7561C17.3286 11.8207 17.0228 11.9822 16.9549 12.2728L16.853 12.4343C16.751 12.6604 16.6152 12.9187 16.5132 13.1125C16.3433 13.3709 16.3773 13.6939 16.5811 13.9523L18.1781 16.0193L16.751 17.3758L14.6444 15.8255C14.4066 15.664 14.0668 15.6317 13.795 15.7609C13.5797 15.8888 13.3218 15.9762 13.0888 16.0551C13.0276 16.0759 12.9681 16.096 12.9115 16.1162C12.6057 16.2131 12.3679 16.4069 12.3339 16.7298L11.8922 19.2813H9.9215L9.54774 16.7944C9.51377 16.4715 9.27592 16.2454 9.0041 16.1485C8.6983 16.0516 8.3925 15.9224 8.0867 15.7932C7.81488 15.664 7.4751 15.6963 7.23726 15.8901L5.09666 17.4081L3.6696 16.0516L5.3345 14.0169C5.50439 13.7908 5.50439 13.4355 5.36848 13.1449C5.23257 12.9188 5.13064 12.725 5.0287 12.4343L4.92677 12.2728C4.79086 11.9822 4.55302 11.8207 4.28119 11.7561L1.63093 11.4008V9.52761L4.28119 9.17234C4.55302 9.14004 4.85882 8.94626 4.92677 8.68789C5.0287 8.42951 5.16462 8.10654 5.3345 7.84816C5.50439 7.55749 5.47042 7.26682 5.26655 6.97615L3.63562 4.90914L5.0287 3.58496L7.20328 5.10292C7.44112 5.2967 7.7809 5.329 8.05272 5.19981C8.32454 5.00603 8.66432 4.90914 8.93614 4.84455C9.24194 4.74765 9.44581 4.52158 9.51377 4.19861L9.9215 1.64715H11.9602L12.3679 4.19861C12.4359 4.52158 12.6737 4.74765 12.9455 4.84455C13.2173 4.90914 13.5571 5.07062 13.8289 5.19981C14.1347 5.329 14.4405 5.2967 14.6784 5.10292L16.819 3.58496ZM1.63094 36.108V38.2073C1.63094 39.2731 2.58231 40.1774 3.70358 40.1774H54.1265C55.3158 40.1774 56.2332 39.2731 56.2332 38.2073V36.108H37.3753V37.7229C37.3413 38.4657 36.6618 39.1116 35.8123 39.1116H22.0853C21.2698 39.1116 20.6243 38.4657 20.6243 37.7229V36.108H1.63094ZM35.6424 37.5291H22.2212V36.1403H35.6424V37.5291Z" fill="url(#paint3_linear_19_27498)"/>
<defs>
<linearGradient id="paint0_linear_19_27498" x1="31.6803" y1="64.1154" x2="-9.30531" y2="30.5969" gradientUnits="userSpaceOnUse">
<stop stop-color="#723AA9"/>
<stop offset="1" stop-color="#1DE1D3"/>
</linearGradient>
<linearGradient id="paint1_linear_19_27498" x1="31.6803" y1="64.1154" x2="-9.30531" y2="30.5969" gradientUnits="userSpaceOnUse">
<stop stop-color="#723AA9"/>
<stop offset="1" stop-color="#1DE1D3"/>
</linearGradient>
<linearGradient id="paint2_linear_19_27498" x1="31.6803" y1="64.1154" x2="-9.30531" y2="30.5969" gradientUnits="userSpaceOnUse">
<stop stop-color="#723AA9"/>
<stop offset="1" stop-color="#1DE1D3"/>
</linearGradient>
<linearGradient id="paint3_linear_19_27498" x1="31.6803" y1="64.1154" x2="-9.30531" y2="30.5969" gradientUnits="userSpaceOnUse">
<stop stop-color="#723AA9"/>
<stop offset="1" stop-color="#1DE1D3"/>
</linearGradient>
</defs>
</svg>
