<svg width="51" height="50" viewBox="0 0 51 50" fill="none" xmlns="http://www.w3.org/2000/svg">
<path fill-rule="evenodd" clip-rule="evenodd" d="M42.2821 37.1218C43.3313 36.2839 44.1401 35.1605 44.5982 33.871H45.0216C46.8006 33.871 48.2474 32.4242 48.2474 30.6452C48.2474 29.4565 47.5942 28.4274 46.6345 27.8677V24.1935C46.6345 20.6363 43.7401 17.7419 40.1829 17.7419H35.3442C33.6595 17.7419 32.128 18.3968 30.978 19.4581C30.7159 19.4202 30.4522 19.3944 30.1861 19.3798C31.2353 18.5419 32.0434 17.4194 32.5014 16.1298H32.9248C34.7038 16.1298 36.1506 14.6831 36.1506 12.904C36.1506 11.7153 35.4974 10.6863 34.5377 10.1266V6.45161C34.5377 2.89436 31.6434 0 28.0861 0H23.2474C19.6901 0 16.7958 2.89436 16.7958 6.45161V10.1258C15.8361 10.6855 15.1829 11.7145 15.1829 12.9032C15.1829 14.6823 16.6297 16.129 18.4087 16.129H18.8321C19.2901 17.4185 20.0982 18.5411 21.1474 19.379C20.8813 19.3935 20.6176 19.4194 20.3555 19.4573C19.2055 18.3968 17.674 17.7419 15.9893 17.7419H11.1506C7.59336 17.7419 4.69901 20.6363 4.69901 24.1935V27.8677C3.73933 28.4274 3.0861 29.4565 3.0861 30.6452C3.0861 32.4242 4.53288 33.871 6.31191 33.871H6.7353C7.19336 35.1605 8.00143 36.2831 9.05143 37.1218C4.3861 37.3766 0.666748 41.2403 0.666748 45.9677V49.1936C0.666748 49.6387 1.02804 50 1.4732 50H49.8603C50.3055 50 50.6667 49.6387 50.6667 49.1936V45.9677C50.6667 41.2403 46.9474 37.3766 42.2821 37.1218ZM9.95707 38.7097L12.4901 41.8758L10.0337 44.3323L8.91514 38.7411C9.12078 38.7234 9.32723 38.7097 9.53772 38.7097H9.95707ZM15.1184 38.7097L13.57 40.6444L12.0216 38.7097H15.1184ZM17.1829 38.7097H17.6022C17.8127 38.7097 18.0192 38.7234 18.2248 38.7411L17.1063 44.3323L14.6498 41.8758L17.1829 38.7097ZM18.0885 37.1218C19.1377 36.2839 19.9466 35.1605 20.4047 33.871H20.828C22.0167 33.871 23.0458 33.2177 23.6055 32.2581H27.7288C28.2885 33.2177 29.3176 33.871 30.5063 33.871H30.9297C31.3877 35.1605 32.1958 36.2831 33.2458 37.1218C29.8748 37.3056 27.0038 39.3734 25.6676 42.2944C24.3305 39.3734 21.4595 37.3056 18.0885 37.1218ZM22.0538 20.9677L25.0377 24.6976C25.1901 24.8887 25.4216 25 25.6667 25C25.9119 25 26.1434 24.8887 26.2966 24.6976L29.2797 20.9677H29.699C29.7099 20.9677 29.7206 20.9685 29.7313 20.9694C29.742 20.9702 29.7526 20.971 29.7635 20.971C29.2127 21.9202 28.8926 23.0194 28.8926 24.1935V27.8677C27.9329 28.4274 27.2797 29.4565 27.2797 30.6452H24.0538C24.0538 29.4565 23.4006 28.4274 22.4409 27.8677V24.1935C22.4409 23.0194 22.1208 21.9202 21.57 20.971C21.5808 20.971 21.5915 20.9702 21.6022 20.9694C21.6128 20.9686 21.6236 20.9677 21.6345 20.9677H22.0538ZM27.2151 20.9677L25.6667 22.9024L24.1184 20.9677H27.2151ZM30.553 32.2581H30.5055C29.6159 32.2581 28.8926 31.5347 28.8926 30.6452C28.8926 29.7556 29.6159 29.0323 30.5055 29.0323V31.4516C30.5055 31.7242 30.5232 31.9927 30.553 32.2581ZM20.828 29.0323C21.7176 29.0323 22.4409 29.7556 22.4409 30.6452C22.4409 31.5347 21.7176 32.2581 20.828 32.2581H20.7805C20.8103 31.9927 20.828 31.7242 20.828 31.4516V29.0323ZM39.3119 38.7097L37.7635 40.6444L36.2151 38.7097H39.3119ZM33.7313 38.7097H34.1506L36.6837 41.8758L34.2272 44.3323L33.1087 38.7411C33.3143 38.7234 33.5208 38.7097 33.7313 38.7097ZM41.3764 38.7097H41.7958C42.0063 38.7097 42.2127 38.7234 42.4184 38.7411L41.2998 44.3323L38.8434 41.8758L41.3764 38.7097ZM37.7635 37.0968C34.6506 37.0968 32.1184 34.5645 32.1184 31.4516V29.0323H34.5377C36.2506 29.0323 37.7853 28.2621 38.8216 27.0532C39.3103 28.2145 40.4587 29.0323 41.7958 29.0323H43.4087V31.4516C43.4087 34.5645 40.8764 37.0968 37.7635 37.0968ZM45.0216 32.2581H44.974C45.0038 31.9927 45.0216 31.7242 45.0216 31.4516V29.0323C45.9111 29.0323 46.6345 29.7556 46.6345 30.6452C46.6345 31.5347 45.9111 32.2581 45.0216 32.2581ZM35.3442 19.3548H40.1829C42.8514 19.3548 45.0216 21.525 45.0216 24.1935V27.4194H41.7958C40.9063 27.4194 40.1829 26.696 40.1829 25.8065V22.5806H38.57V23.3871C38.57 25.6105 36.7611 27.4194 34.5377 27.4194H30.5055V24.1935C30.5055 21.525 32.6756 19.3548 35.3442 19.3548ZM32.9248 14.5161H32.8772C32.9071 14.2508 32.9248 13.9823 32.9248 13.7097V11.2903C33.8143 11.2903 34.5377 12.0137 34.5377 12.9032C34.5377 13.7927 33.8143 14.5161 32.9248 14.5161ZM18.4087 6.45161C18.4087 3.78306 20.5788 1.6129 23.2474 1.6129H28.0861C30.7547 1.6129 32.9248 3.78306 32.9248 6.45161V9.67742H29.699C28.8095 9.67742 28.0861 8.95403 28.0861 8.06452V4.83871H26.4732V5.64516C26.4732 7.86855 24.6643 9.67742 22.4409 9.67742H18.4087V6.45161ZM18.4087 14.5161C17.5192 14.5161 16.7958 13.7927 16.7958 12.9032C16.7958 12.0137 17.5192 11.2903 18.4087 11.2903V13.7097C18.4087 13.9823 18.4264 14.2508 18.4563 14.5161H18.4087ZM20.0216 13.7097V11.2903H22.4409C24.1538 11.2903 25.6885 10.5202 26.7248 9.31129C27.2135 10.4726 28.3619 11.2903 29.699 11.2903H31.3119V13.7097C31.3119 16.8226 28.7797 19.3548 25.6667 19.3548C22.5538 19.3548 20.0216 16.8226 20.0216 13.7097ZM6.31191 24.1935C6.31191 21.525 8.48207 19.3548 11.1506 19.3548H15.9893C18.6579 19.3548 20.828 21.525 20.828 24.1935V27.4194H17.6022C16.7127 27.4194 15.9893 26.696 15.9893 25.8065V22.5806H14.3764V23.3871C14.3764 25.6105 12.5676 27.4194 10.3442 27.4194H6.31191V24.1935ZM6.31191 32.2581C5.42239 32.2581 4.69901 31.5347 4.69901 30.6452C4.69901 29.7556 5.42239 29.0323 6.31191 29.0323V31.4516C6.31191 31.7242 6.32965 31.9927 6.35949 32.2581H6.31191ZM7.92481 31.4516V29.0323H10.3442C12.0571 29.0323 13.5917 28.2621 14.628 27.0532C15.1167 28.2145 16.2651 29.0323 17.6022 29.0323H19.2151V31.4516C19.2151 34.5645 16.6829 37.0968 13.57 37.0968C10.4571 37.0968 7.92481 34.5645 7.92481 31.4516ZM2.27965 45.9677C2.27965 42.7347 4.40626 39.9903 7.33288 39.0548L8.74739 46.1266C8.80546 46.4177 9.01997 46.654 9.30465 46.7403C9.38126 46.7629 9.45949 46.7742 9.53772 46.7742C9.7482 46.7742 9.95465 46.6911 10.1079 46.5379L13.57 43.0758L17.0321 46.5379C17.1853 46.6911 17.3917 46.7742 17.6022 46.7742C17.6805 46.7742 17.7587 46.7629 17.8361 46.7395C18.1208 46.6532 18.3353 46.4177 18.3934 46.1258L19.8079 39.054C22.7337 39.9903 24.8603 42.7347 24.8603 45.9677V48.3871H2.27965V45.9677ZM49.0538 48.3871H26.4732V45.9677C26.4732 42.7347 28.5998 39.9903 31.5264 39.0548L32.9409 46.1266C32.999 46.4177 33.2135 46.654 33.4982 46.7403C33.5748 46.7629 33.653 46.7742 33.7313 46.7742C33.9417 46.7742 34.1482 46.6911 34.3014 46.5379L37.7635 43.0758L41.2256 46.5379C41.3788 46.6911 41.5853 46.7742 41.7958 46.7742C41.874 46.7742 41.9522 46.7629 42.0297 46.7395C42.3143 46.6532 42.5288 46.4177 42.5869 46.1258L44.0014 39.054C46.9272 39.9903 49.0538 42.7347 49.0538 45.9677V48.3871Z" fill="url(#paint0_linear_19_27504)"/>
<path d="M44.2151 11.2903H42.6022V8.06452H39.3764V6.45161H42.6022V3.22581H44.2151V6.45161H47.4409V8.06452H44.2151V11.2903Z" fill="url(#paint1_linear_19_27504)"/>
<path fill-rule="evenodd" clip-rule="evenodd" d="M43.4087 14.5161C47.4103 14.5161 50.6667 11.2597 50.6667 7.25806C50.6667 3.25645 47.4103 0 43.4087 0C39.4071 0 36.1506 3.25645 36.1506 7.25806C36.1506 11.2597 39.4071 14.5161 43.4087 14.5161ZM43.4087 1.6129C46.5216 1.6129 49.0538 4.14516 49.0538 7.25806C49.0538 10.371 46.5216 12.9032 43.4087 12.9032C40.2958 12.9032 37.7635 10.371 37.7635 7.25806C37.7635 4.14516 40.2958 1.6129 43.4087 1.6129Z" fill="url(#paint2_linear_19_27504)"/>
<defs>
<linearGradient id="paint0_linear_19_27504" x1="27.9774" y1="76.7666" x2="-15.8057" y2="50.986" gradientUnits="userSpaceOnUse">
<stop stop-color="#723AA9"/>
<stop offset="1" stop-color="#1DE1D3"/>
</linearGradient>
<linearGradient id="paint1_linear_19_27504" x1="27.9774" y1="76.7666" x2="-15.8057" y2="50.986" gradientUnits="userSpaceOnUse">
<stop stop-color="#723AA9"/>
<stop offset="1" stop-color="#1DE1D3"/>
</linearGradient>
<linearGradient id="paint2_linear_19_27504" x1="27.9774" y1="76.7666" x2="-15.8057" y2="50.986" gradientUnits="userSpaceOnUse">
<stop stop-color="#723AA9"/>
<stop offset="1" stop-color="#1DE1D3"/>
</linearGradient>
</defs>
</svg>
