<svg width="51" height="42" viewBox="0 0 51 42" fill="none" xmlns="http://www.w3.org/2000/svg">
<path d="M46.6098 6.42723H34.9822V3.65183C34.9822 2.68331 34.5899 1.75445 33.8916 1.0696C33.1934 0.384746 32.2463 0 31.2588 0H19.4077C18.4202 0 17.4731 0.384746 16.7749 1.0696C16.0766 1.75445 15.6843 2.68331 15.6843 3.65183V6.42723H4.05666C3.06915 6.42723 2.12209 6.81198 1.42381 7.49683C0.725538 8.18168 0.333252 9.11054 0.333252 10.0791V38.2086C0.333252 39.1772 0.725538 40.106 1.42381 40.7909C2.12209 41.4757 3.06915 41.8605 4.05666 41.8605H46.6098C47.5974 41.8605 48.5444 41.4757 49.2427 40.7909C49.941 40.106 50.3333 39.1772 50.3333 38.2086V10.0791C50.3333 9.11054 49.941 8.18168 49.2427 7.49683C48.5444 6.81198 47.5974 6.42723 46.6098 6.42723ZM17.812 3.65183C17.812 3.23675 17.9801 2.83867 18.2794 2.54516C18.5786 2.25165 18.9845 2.08676 19.4077 2.08676H31.2588C31.682 2.08676 32.0879 2.25165 32.3871 2.54516C32.6864 2.83867 32.8545 3.23675 32.8545 3.65183V6.42723H17.812V3.65183ZM2.46091 10.0791C2.46091 9.66398 2.62903 9.2659 2.92829 8.97239C3.22755 8.67888 3.63344 8.51399 4.05666 8.51399H46.6098C47.0331 8.51399 47.4389 8.67888 47.7382 8.97239C48.0375 9.2659 48.2056 9.66398 48.2056 10.0791V16.7254C48.2028 18.5399 47.4666 20.2792 46.1585 21.5622C44.8503 22.8452 43.0769 23.5672 41.2269 23.57H29.7003V20.3459C29.7003 20.0692 29.5882 19.8038 29.3887 19.6082C29.1892 19.4125 28.9186 19.3026 28.6364 19.3026H22.0301C21.7479 19.3026 21.4773 19.4125 21.2778 19.6082C21.0783 19.8038 20.9662 20.0692 20.9662 20.3459V23.57H9.43964C7.58963 23.5672 5.8162 22.8452 4.50804 21.5622C3.19988 20.2792 2.46373 18.5399 2.46091 16.7254V10.0791ZM27.5726 21.3893V27.8374H23.0939V21.3893H27.5726ZM48.2056 38.2086C48.2056 38.6237 48.0375 39.0218 47.7382 39.3153C47.4389 39.6088 47.0331 39.7737 46.6098 39.7737H4.05666C3.63344 39.7737 3.22755 39.6088 2.92829 39.3153C2.62903 39.0218 2.46091 38.6237 2.46091 38.2086V22.4536C3.314 23.4562 4.38122 24.2627 5.58713 24.8162C6.79304 25.3697 8.1082 25.6567 9.43964 25.6567H20.9662V28.8808C20.9662 29.1575 21.0783 29.4229 21.2778 29.6186C21.4773 29.8143 21.7479 29.9242 22.0301 29.9242H28.6364C28.9186 29.9242 29.1892 29.8143 29.3887 29.6186C29.5882 29.4229 29.7003 29.1575 29.7003 28.8808V25.6567H41.2269C42.5583 25.6567 43.8735 25.3697 45.0794 24.8162C46.2853 24.2627 47.3525 23.4562 48.2056 22.4536V38.2086Z" fill="url(#paint0_linear_19_27510)"/>
<defs>
<linearGradient id="paint0_linear_19_27510" x1="27.6439" y1="64.2697" x2="-11.8056" y2="36.5242" gradientUnits="userSpaceOnUse">
<stop stop-color="#723AA9"/>
<stop offset="1" stop-color="#1DE1D3"/>
</linearGradient>
</defs>
</svg>
