<svg width="134" height="27" viewBox="0 0 134 27" fill="none" xmlns="http://www.w3.org/2000/svg">
<g clip-path="url(#clip0_330_94)">
<mask id="mask0_330_94" style="mask-type:luminance" maskUnits="userSpaceOnUse" x="15" y="0" width="32" height="27">
<path d="M30.9493 12.246L38.1301 26.5371H46.6017L34.4109 2.23524C34.0614 1.46258 33.4573 0.797238 32.6418 0.392514C32.0991 0.122698 31.5196 -0.00301137 30.9493 5.47258e-05C30.379 -0.00301137 29.7995 0.122698 29.2568 0.392514C28.4443 0.797238 27.8372 1.45951 27.4877 2.23524L15.2969 26.534H23.7685L30.9493 12.246Z" fill="white"/>
</mask>
<g mask="url(#mask0_330_94)">
<path d="M46.6017 -0.00292969V0.257688H15.2969V-0.00292969H46.6017Z" fill="#3491F7"/>
<path d="M46.6017 0.202148V0.361585H15.2969V0.202148H46.6017Z" fill="#3491F7"/>
<path d="M46.6017 0.30957V0.469007H15.2969V0.30957H46.6017Z" fill="#3491F7"/>
<path d="M46.6017 0.414062V0.573499H15.2969V0.414062H46.6017Z" fill="#3491F7"/>
<path d="M46.6017 0.521484V0.680921H15.2969V0.521484H46.6017Z" fill="#3491F7"/>
<path d="M46.6017 0.625977V0.785413H15.2969V0.625977H46.6017Z" fill="#3491F7"/>
<path d="M46.6017 0.733398V0.892835H15.2969V0.733398H46.6017Z" fill="#3491F7"/>
<path d="M46.6017 0.836914V0.996351H15.2969V0.836914H46.6017Z" fill="#3491F7"/>
<path d="M46.6017 0.944336V1.10377H15.2969V0.944336H46.6017Z" fill="#3491F7"/>
<path d="M46.6017 1.04883V1.20826H15.2969V1.04883H46.6017Z" fill="#3491F7"/>
<path d="M46.6017 1.15625V1.31569H15.2969V1.15625H46.6017Z" fill="#3491F7"/>
<path d="M46.6017 1.26074V1.42018H15.2969V1.26074H46.6017Z" fill="#3491F7"/>
<path d="M46.6017 1.36719V1.52662H15.2969V1.36719H46.6017Z" fill="#3491F7"/>
<path d="M46.6017 1.47168V1.63112H15.2969V1.47168H46.6017Z" fill="#3491F7"/>
<path d="M46.6017 1.5791V1.73854H15.2969V1.5791H46.6017Z" fill="#3490F7"/>
<path d="M46.6017 1.68359V1.84303H15.2969V1.68359H46.6017Z" fill="#3490F7"/>
<path d="M46.6017 1.79102V1.95045H15.2969V1.79102H46.6017Z" fill="#3490F7"/>
<path d="M46.6017 1.89453V2.05397H15.2969V1.89453H46.6017Z" fill="#3490F7"/>
<path d="M46.6017 2.00195V2.16139H15.2969V2.00195H46.6017Z" fill="#3490F7"/>
<path d="M46.6017 2.10938V2.26575H15.2969V2.10938H46.6017Z" fill="#3490F7"/>
<path d="M46.6017 2.21387V2.3733H15.2969V2.21387H46.6017Z" fill="#3390F7"/>
<path d="M46.6017 2.32129V2.47766H15.2969V2.32129H46.6017Z" fill="#3390F7"/>
<path d="M46.6017 2.42578V2.58522H15.2969V2.42578H46.6017Z" fill="#3390F7"/>
<path d="M46.6017 2.5332V2.68957H15.2969V2.5332H46.6017Z" fill="#3390F7"/>
<path d="M46.6017 2.63672V2.79616H15.2969V2.63672H46.6017Z" fill="#338FF7"/>
<path d="M46.6017 2.74414V2.90051H15.2969V2.74414H46.6017Z" fill="#338FF7"/>
<path d="M46.6017 2.84863V3.00807H15.2969V2.84863H46.6017Z" fill="#338FF7"/>
<path d="M46.6017 2.95605V3.11243H15.2969V2.95605H46.6017Z" fill="#338FF7"/>
<path d="M46.6017 3.06055V3.21998H15.2969V3.06055H46.6017Z" fill="#338FF6"/>
<path d="M46.6017 3.16699V3.32336H15.2969V3.16699H46.6017Z" fill="#338FF6"/>
<path d="M46.6017 3.27148V3.43092H15.2969V3.27148H46.6017Z" fill="#338FF6"/>
<path d="M46.6017 3.37891V3.53528H15.2969V3.37891H46.6017Z" fill="#338EF6"/>
<path d="M46.6017 3.4834V3.64284H15.2969V3.4834H46.6017Z" fill="#338EF6"/>
<path d="M46.6017 3.59082V3.74719H15.2969V3.59082H46.6017Z" fill="#338EF6"/>
<path d="M46.6017 3.69434V3.85377H15.2969V3.69434H46.6017Z" fill="#338EF6"/>
<path d="M46.6017 3.80176V3.95813H15.2969V3.80176H46.6017Z" fill="#338EF6"/>
<path d="M46.6017 3.90625V4.06569H15.2969V3.90625H46.6017Z" fill="#328EF6"/>
<path d="M46.6017 4.01367V4.17311H15.2969V4.01367H46.6017Z" fill="#328DF6"/>
<path d="M46.6017 4.11816V4.2776H15.2969V4.11816H46.6017Z" fill="#328DF6"/>
<path d="M46.6017 4.22559V4.38502H15.2969V4.22559H46.6017Z" fill="#328DF6"/>
<path d="M46.6017 4.3291V4.48854H15.2969V4.3291H46.6017Z" fill="#328DF6"/>
<path d="M46.6017 4.43652V4.59596H15.2969V4.43652H46.6017Z" fill="#328DF6"/>
<path d="M46.6017 4.54102V4.70045H15.2969V4.54102H46.6017Z" fill="#328CF6"/>
<path d="M46.6017 4.64844V4.80787H15.2969V4.64844H46.6017Z" fill="#328CF6"/>
<path d="M46.6017 4.75293V4.91237H15.2969V4.75293H46.6017Z" fill="#328CF6"/>
<path d="M46.6017 4.86035V5.01979H15.2969V4.86035H46.6017Z" fill="#328CF6"/>
<path d="M46.6017 4.96387V5.1233H15.2969V4.96387H46.6017Z" fill="#328CF6"/>
<path d="M46.6017 5.07129V5.23073H15.2969V5.07129H46.6017Z" fill="#318BF6"/>
<path d="M46.6017 5.17578V5.33522H15.2969V5.17578H46.6017Z" fill="#318BF6"/>
<path d="M46.6017 5.2832V5.44264H15.2969V5.2832H46.6017Z" fill="#318BF6"/>
<path d="M46.6017 5.3877V5.54713H15.2969V5.3877H46.6017Z" fill="#318BF5"/>
<path d="M46.6017 5.49414V5.65358H15.2969V5.49414H46.6017Z" fill="#318AF5"/>
<path d="M46.6017 5.59863V5.75807H15.2969V5.59863H46.6017Z" fill="#318AF5"/>
<path d="M46.6017 5.70605V5.86549H15.2969V5.70605H46.6017Z" fill="#318AF5"/>
<path d="M46.6017 5.81055V5.96998H15.2969V5.81055H46.6017Z" fill="#318AF5"/>
<path d="M46.6017 5.91797V6.07741H15.2969V5.91797H46.6017Z" fill="#3189F5"/>
<path d="M46.6017 6.02148V6.18092H15.2969V6.02148H46.6017Z" fill="#3089F5"/>
<path d="M46.6017 6.12891V6.28834H15.2969V6.12891H46.6017Z" fill="#3089F5"/>
<path d="M46.6017 6.2334V6.39284H15.2969V6.2334H46.6017Z" fill="#3089F5"/>
<path d="M46.6017 6.34082V6.50026H15.2969V6.34082H46.6017Z" fill="#3088F5"/>
<path d="M46.6017 6.44824V6.60461H15.2969V6.44824H46.6017Z" fill="#3088F5"/>
<path d="M46.6017 6.55273V6.71217H15.2969V6.55273H46.6017Z" fill="#3088F5"/>
<path d="M46.6017 6.66016V6.81653H15.2969V6.66016H46.6017Z" fill="#3088F5"/>
<path d="M46.6017 6.76367V6.92311H15.2969V6.76367H46.6017Z" fill="#3087F5"/>
<path d="M46.6017 6.87109V7.02746H15.2969V6.87109H46.6017Z" fill="#2F87F5"/>
<path d="M46.6017 6.97559V7.13502H15.2969V6.97559H46.6017Z" fill="#2F87F5"/>
<path d="M46.6017 7.08301V7.23938H15.2969V7.08301H46.6017Z" fill="#2F87F5"/>
<path d="M46.6017 7.1875V7.34694H15.2969V7.1875H46.6017Z" fill="#2F86F4"/>
<path d="M46.6017 7.29395V7.45032H15.2969V7.29395H46.6017Z" fill="#2F86F4"/>
<path d="M46.6017 7.39844V7.55787H15.2969V7.39844H46.6017Z" fill="#2F86F4"/>
<path d="M46.6017 7.50586V7.66223H15.2969V7.50586H46.6017Z" fill="#2F85F4"/>
<path d="M46.6017 7.61035V7.76979H15.2969V7.61035H46.6017Z" fill="#2F85F4"/>
<path d="M46.6017 7.71777V7.87414H15.2969V7.71777H46.6017Z" fill="#2E85F4"/>
<path d="M46.6017 7.82129V7.98073H15.2969V7.82129H46.6017Z" fill="#2E84F4"/>
<path d="M46.6017 7.92871V8.08508H15.2969V7.92871H46.6017Z" fill="#2E84F4"/>
<path d="M46.6017 8.0332V8.19264H15.2969V8.0332H46.6017Z" fill="#2E84F4"/>
<path d="M46.6017 8.14062V8.297H15.2969V8.14062H46.6017Z" fill="#2E84F4"/>
<path d="M46.6017 8.24512V8.40455H15.2969V8.24512H46.6017Z" fill="#2E83F4"/>
<path d="M46.6017 8.35254V8.50891H15.2969V8.35254H46.6017Z" fill="#2E83F4"/>
<path d="M46.6017 8.45605V8.61549H15.2969V8.45605H46.6017Z" fill="#2D83F4"/>
<path d="M46.6017 8.56348V8.72291H15.2969V8.56348H46.6017Z" fill="#2D82F3"/>
<path d="M46.6017 8.66797V8.82741H15.2969V8.66797H46.6017Z" fill="#2D82F3"/>
<path d="M46.6017 8.77539V8.93483H15.2969V8.77539H46.6017Z" fill="#2D82F3"/>
<path d="M46.6017 8.87988V9.03932H15.2969V8.87988H46.6017Z" fill="#2D81F3"/>
<path d="M46.6017 8.9873V9.14674H15.2969V8.9873H46.6017Z" fill="#2D81F3"/>
<path d="M46.6017 9.09082V9.25026H15.2969V9.09082H46.6017Z" fill="#2C81F3"/>
<path d="M46.6017 9.19824V9.35768H15.2969V9.19824H46.6017Z" fill="#2C80F3"/>
<path d="M46.6017 9.30273V9.46217H15.2969V9.30273H46.6017Z" fill="#2C80F3"/>
<path d="M46.6017 9.41016V9.56959H15.2969V9.41016H46.6017Z" fill="#2C80F3"/>
<path d="M46.6017 9.51465V9.67408H15.2969V9.51465H46.6017Z" fill="#2C7FF3"/>
<path d="M46.6017 9.62109V9.78053H15.2969V9.62109H46.6017Z" fill="#2C7FF3"/>
<path d="M46.6017 9.72559V9.88502H15.2969V9.72559H46.6017Z" fill="#2C7FF3"/>
<path d="M46.6017 9.83301V9.99244H15.2969V9.83301H46.6017Z" fill="#2B7EF3"/>
<path d="M46.6017 9.9375V10.0969H15.2969V9.9375H46.6017Z" fill="#2B7EF2"/>
<path d="M46.6017 10.0449V10.2044H15.2969V10.0449H46.6017Z" fill="#2B7EF2"/>
<path d="M46.6017 10.1484V10.3079H15.2969V10.1484H46.6017Z" fill="#2B7DF2"/>
<path d="M46.6017 10.2559V10.4153H15.2969V10.2559H46.6017Z" fill="#2B7DF2"/>
<path d="M46.6017 10.3604V10.5198H15.2969V10.3604H46.6017Z" fill="#2B7DF2"/>
<path d="M46.6017 10.4678V10.6272H15.2969V10.4678H46.6017Z" fill="#2A7CF2"/>
<path d="M46.6017 10.5723V10.7317H15.2969V10.5723H46.6017Z" fill="#2A7CF2"/>
<path d="M46.6017 10.6797V10.8391H15.2969V10.6797H46.6017Z" fill="#2A7CF2"/>
<path d="M46.6017 10.7832V10.9426H15.2969V10.7832H46.6017Z" fill="#2A7BF2"/>
<path d="M46.6017 10.8906V11.0501H15.2969V10.8906H46.6017Z" fill="#2A7BF2"/>
<path d="M46.6017 10.9951V11.1546H15.2969V10.9951H46.6017Z" fill="#2A7AF2"/>
<path d="M46.6017 11.1025V11.262H15.2969V11.1025H46.6017Z" fill="#297AF2"/>
<path d="M46.6017 11.21V11.3663H15.2969V11.21H46.6017Z" fill="#297AF1"/>
<path d="M46.6017 11.3145V11.4739H15.2969V11.3145H46.6017Z" fill="#2979F1"/>
<path d="M46.6017 11.4209V11.5773H15.2969V11.4209H46.6017Z" fill="#2979F1"/>
<path d="M46.6017 11.5254V11.6848H15.2969V11.5254H46.6017Z" fill="#2979F1"/>
<path d="M46.6017 11.6328V11.7892H15.2969V11.6328H46.6017Z" fill="#2978F1"/>
<path d="M46.6017 11.7373V11.8967H15.2969V11.7373H46.6017Z" fill="#2878F1"/>
<path d="M46.6017 11.8447V12.0011H15.2969V11.8447H46.6017Z" fill="#2878F1"/>
<path d="M46.6017 11.9482V12.1077H15.2969V11.9482H46.6017Z" fill="#2877F1"/>
<path d="M46.6017 12.0557V12.212H15.2969V12.0557H46.6017Z" fill="#2877F1"/>
<path d="M46.6017 12.1602V12.3196H15.2969V12.1602H46.6017Z" fill="#2876F1"/>
<path d="M46.6017 12.2676V12.4239H15.2969V12.2676H46.6017Z" fill="#2876F1"/>
<path d="M46.6017 12.3721V12.5315H15.2969V12.3721H46.6017Z" fill="#2776F1"/>
<path d="M46.6017 12.4795V12.6359H15.2969V12.4795H46.6017Z" fill="#2775F0"/>
<path d="M46.6017 12.583V12.7424H15.2969V12.583H46.6017Z" fill="#2775F0"/>
<path d="M46.6017 12.6904V12.8468H15.2969V12.6904H46.6017Z" fill="#2775F0"/>
<path d="M46.6017 12.7949V12.9544H15.2969V12.7949H46.6017Z" fill="#2774F0"/>
<path d="M46.6017 12.9023V13.0587H15.2969V12.9023H46.6017Z" fill="#2774F0"/>
<path d="M46.6017 13.0068V13.1663H15.2969V13.0068H46.6017Z" fill="#2674F0"/>
<path d="M46.6017 13.1143V13.2706H15.2969V13.1143H46.6017Z" fill="#2673F0"/>
<path d="M46.6017 13.2178V13.3772H15.2969V13.2178H46.6017Z" fill="#2673F0"/>
<path d="M46.6017 13.3252V13.4846H15.2969V13.3252H46.6017Z" fill="#2672F0"/>
<path d="M46.6017 13.4297V13.5891H15.2969V13.4297H46.6017Z" fill="#2672F0"/>
<path d="M46.6017 13.5371V13.6965H15.2969V13.5371H46.6017Z" fill="#2672F0"/>
<path d="M46.6017 13.6416V13.801H15.2969V13.6416H46.6017Z" fill="#2571EF"/>
<path d="M46.6017 13.748V13.9075H15.2969V13.748H46.6017Z" fill="#2571EF"/>
<path d="M46.6017 13.8525V14.012H15.2969V13.8525H46.6017Z" fill="#2571EF"/>
<path d="M46.6017 13.96V14.1194H15.2969V13.96H46.6017Z" fill="#2570EF"/>
<path d="M46.6017 14.0645V14.2239H15.2969V14.0645H46.6017Z" fill="#2570EF"/>
<path d="M46.6017 14.1719V14.3313H15.2969V14.1719H46.6017Z" fill="#256FEF"/>
<path d="M46.6017 14.2754V14.4348H15.2969V14.2754H46.6017Z" fill="#246FEF"/>
<path d="M46.6017 14.3828V14.5422H15.2969V14.3828H46.6017Z" fill="#246FEF"/>
<path d="M46.6017 14.4873V14.6467H15.2969V14.4873H46.6017Z" fill="#246EEF"/>
<path d="M46.6017 14.5947V14.7542H15.2969V14.5947H46.6017Z" fill="#246EEF"/>
<path d="M46.6017 14.6992V14.8587H15.2969V14.6992H46.6017Z" fill="#246EEF"/>
<path d="M46.6017 14.8066V14.9661H15.2969V14.8066H46.6017Z" fill="#246DEE"/>
<path d="M46.6017 14.9102V15.0696H15.2969V14.9102H46.6017Z" fill="#236DEE"/>
<path d="M46.6017 15.0176V15.177H15.2969V15.0176H46.6017Z" fill="#236DEE"/>
<path d="M46.6017 15.1221V15.2815H15.2969V15.1221H46.6017Z" fill="#236CEE"/>
<path d="M46.6017 15.2295V15.3889H15.2969V15.2295H46.6017Z" fill="#236CEE"/>
<path d="M46.6017 15.3369V15.4933H15.2969V15.3369H46.6017Z" fill="#236BEE"/>
<path d="M46.6017 15.4414V15.6008H15.2969V15.4414H46.6017Z" fill="#236BEE"/>
<path d="M46.6017 15.5479V15.7042H15.2969V15.5479H46.6017Z" fill="#226BEE"/>
<path d="M46.6017 15.6523V15.8118H15.2969V15.6523H46.6017Z" fill="#226AEE"/>
<path d="M46.6017 15.7598V15.9161H15.2969V15.7598H46.6017Z" fill="#226AEE"/>
<path d="M46.6017 15.8643V16.0237H15.2969V15.8643H46.6017Z" fill="#226AEE"/>
<path d="M46.6017 15.9717V16.128H15.2969V15.9717H46.6017Z" fill="#2269EE"/>
<path d="M46.6017 16.0752V16.2346H15.2969V16.0752H46.6017Z" fill="#2269ED"/>
<path d="M46.6017 16.1826V16.339H15.2969V16.1826H46.6017Z" fill="#2169ED"/>
<path d="M46.6017 16.2871V16.4465H15.2969V16.2871H46.6017Z" fill="#2168ED"/>
<path d="M46.6017 16.3945V16.5509H15.2969V16.3945H46.6017Z" fill="#2168ED"/>
<path d="M46.6017 16.499V16.6585H15.2969V16.499H46.6017Z" fill="#2167ED"/>
<path d="M46.6017 16.6064V16.7628H15.2969V16.6064H46.6017Z" fill="#2167ED"/>
<path d="M46.6017 16.71V16.8694H15.2969V16.71H46.6017Z" fill="#2167ED"/>
<path d="M46.6017 16.8174V16.9738H15.2969V16.8174H46.6017Z" fill="#2066ED"/>
<path d="M46.6017 16.9219V17.0813H15.2969V16.9219H46.6017Z" fill="#2066ED"/>
<path d="M46.6017 17.0293V17.1857H15.2969V17.0293H46.6017Z" fill="#2066ED"/>
<path d="M46.6017 17.1338V17.2932H15.2969V17.1338H46.6017Z" fill="#2065ED"/>
<path d="M46.6017 17.2412V17.3976H15.2969V17.2412H46.6017Z" fill="#2065ED"/>
<path d="M46.6017 17.3447V17.5042H15.2969V17.3447H46.6017Z" fill="#2065EC"/>
<path d="M46.6017 17.4521V17.6085H15.2969V17.4521H46.6017Z" fill="#1F64EC"/>
<path d="M46.6017 17.5566V17.7161H15.2969V17.5566H46.6017Z" fill="#1F64EC"/>
<path d="M46.6017 17.6641V17.8235H15.2969V17.6641H46.6017Z" fill="#1F64EC"/>
<path d="M46.6017 17.7686V17.928H15.2969V17.7686H46.6017Z" fill="#1F63EC"/>
<path d="M46.6017 17.875V18.0344H15.2969V17.875H46.6017Z" fill="#1F63EC"/>
<path d="M46.6017 17.9795V18.1389H15.2969V17.9795H46.6017Z" fill="#1F63EC"/>
<path d="M46.6017 18.0869V18.2463H15.2969V18.0869H46.6017Z" fill="#1F62EC"/>
<path d="M46.6017 18.1914V18.3508H15.2969V18.1914H46.6017Z" fill="#1E62EC"/>
<path d="M46.6017 18.2988V18.4583H15.2969V18.2988H46.6017Z" fill="#1E62EC"/>
<path d="M46.6017 18.4023V18.5618H15.2969V18.4023H46.6017Z" fill="#1E61EC"/>
<path d="M46.6017 18.5098V18.6692H15.2969V18.5098H46.6017Z" fill="#1E61EC"/>
<path d="M46.6017 18.6143V18.7737H15.2969V18.6143H46.6017Z" fill="#1E61EC"/>
<path d="M46.6017 18.7217V18.8811H15.2969V18.7217H46.6017Z" fill="#1E60EB"/>
<path d="M46.6017 18.8262V18.9856H15.2969V18.8262H46.6017Z" fill="#1D60EB"/>
<path d="M46.6017 18.9336V19.093H15.2969V18.9336H46.6017Z" fill="#1D60EB"/>
<path d="M46.6017 19.0371V19.1965H15.2969V19.0371H46.6017Z" fill="#1D5FEB"/>
<path d="M46.6017 19.1445V19.304H15.2969V19.1445H46.6017Z" fill="#1D5FEB"/>
<path d="M46.6017 19.249V19.4085H15.2969V19.249H46.6017Z" fill="#1D5FEB"/>
<path d="M46.6017 19.3564V19.5159H15.2969V19.3564H46.6017Z" fill="#1D5FEB"/>
<path d="M46.6017 19.4609V19.6204H15.2969V19.4609H46.6017Z" fill="#1D5EEB"/>
<path d="M46.6017 19.5684V19.7278H15.2969V19.5684H46.6017Z" fill="#1C5EEB"/>
<path d="M46.6017 19.6719V19.8313H15.2969V19.6719H46.6017Z" fill="#1C5EEB"/>
<path d="M46.6017 19.7793V19.9387H15.2969V19.7793H46.6017Z" fill="#1C5DEB"/>
<path d="M46.6017 19.8838V20.0432H15.2969V19.8838H46.6017Z" fill="#1C5DEB"/>
<path d="M46.6017 19.9912V20.1506H15.2969V19.9912H46.6017Z" fill="#1C5DEB"/>
<path d="M46.6017 20.0986V20.255H15.2969V20.0986H46.6017Z" fill="#1C5CEA"/>
<path d="M46.6017 20.2021V20.3616H15.2969V20.2021H46.6017Z" fill="#1C5CEA"/>
<path d="M46.6017 20.3096V20.4659H15.2969V20.3096H46.6017Z" fill="#1C5CEA"/>
<path d="M46.6017 20.4141V20.5735H15.2969V20.4141H46.6017Z" fill="#1B5CEA"/>
<path d="M46.6017 20.5215V20.6779H15.2969V20.5215H46.6017Z" fill="#1B5BEA"/>
<path d="M46.6017 20.626V20.7854H15.2969V20.626H46.6017Z" fill="#1B5BEA"/>
<path d="M46.6017 20.7334V20.8898H15.2969V20.7334H46.6017Z" fill="#1B5BEA"/>
<path d="M46.6017 20.8369V20.9964H15.2969V20.8369H46.6017Z" fill="#1B5BEA"/>
<path d="M46.6017 20.9443V21.1007H15.2969V20.9443H46.6017Z" fill="#1B5AEA"/>
<path d="M46.6017 21.0488V21.2083H15.2969V21.0488H46.6017Z" fill="#1B5AEA"/>
<path d="M46.6017 21.1562V21.3126H15.2969V21.1562H46.6017Z" fill="#1B5AEA"/>
<path d="M46.6017 21.2607V21.4202H15.2969V21.2607H46.6017Z" fill="#1A5AEA"/>
<path d="M46.6017 21.3682V21.5245H15.2969V21.3682H46.6017Z" fill="#1A59EA"/>
<path d="M46.6017 21.4717V21.6311H15.2969V21.4717H46.6017Z" fill="#1A59EA"/>
<path d="M46.6017 21.5791V21.7355H15.2969V21.5791H46.6017Z" fill="#1A59EA"/>
<path d="M46.6017 21.6836V21.843H15.2969V21.6836H46.6017Z" fill="#1A59EA"/>
<path d="M46.6017 21.791V21.9474H15.2969V21.791H46.6017Z" fill="#1A58EA"/>
<path d="M46.6017 21.8955V22.0549H15.2969V21.8955H46.6017Z" fill="#1A58E9"/>
<path d="M46.6017 22.002V22.1583H15.2969V22.002H46.6017Z" fill="#1A58E9"/>
<path d="M46.6017 22.1064V22.2659H15.2969V22.1064H46.6017Z" fill="#1A58E9"/>
<path d="M46.6017 22.2139V22.3733H15.2969V22.2139H46.6017Z" fill="#1957E9"/>
<path d="M46.6017 22.3184V22.4778H15.2969V22.3184H46.6017Z" fill="#1957E9"/>
<path d="M46.6017 22.4258V22.5852H15.2969V22.4258H46.6017Z" fill="#1957E9"/>
<path d="M46.6017 22.5293V22.6887H15.2969V22.5293H46.6017Z" fill="#1957E9"/>
<path d="M46.6017 22.6367V22.7962H15.2969V22.6367H46.6017Z" fill="#1957E9"/>
<path d="M46.6017 22.7412V22.9006H15.2969V22.7412H46.6017Z" fill="#1956E9"/>
<path d="M46.6017 22.8486V23.0081H15.2969V22.8486H46.6017Z" fill="#1956E9"/>
<path d="M46.6017 22.9531V23.1126H15.2969V22.9531H46.6017Z" fill="#1956E9"/>
<path d="M46.6017 23.0605V23.22H15.2969V23.0605H46.6017Z" fill="#1956E9"/>
<path d="M46.6017 23.1641V23.3235H15.2969V23.1641H46.6017Z" fill="#1956E9"/>
<path d="M46.6017 23.2715V23.4309H15.2969V23.2715H46.6017Z" fill="#1955E9"/>
<path d="M46.6017 23.376V23.5354H15.2969V23.376H46.6017Z" fill="#1855E9"/>
<path d="M46.6017 23.4834V23.6428H15.2969V23.4834H46.6017Z" fill="#1855E9"/>
<path d="M46.6017 23.5879V23.7473H15.2969V23.5879H46.6017Z" fill="#1855E9"/>
<path d="M46.6017 23.6953V23.8548H15.2969V23.6953H46.6017Z" fill="#1855E9"/>
<path d="M46.6017 23.7988V23.9583H15.2969V23.7988H46.6017Z" fill="#1855E9"/>
<path d="M46.6017 23.9062V24.0657H15.2969V23.9062H46.6017Z" fill="#1854E9"/>
<path d="M46.6017 24.0107V24.1702H15.2969V24.0107H46.6017Z" fill="#1854E9"/>
<path d="M46.6017 24.1182V24.2776H15.2969V24.1182H46.6017Z" fill="#1854E9"/>
<path d="M46.6017 24.2227V24.3821H15.2969V24.2227H46.6017Z" fill="#1854E8"/>
<path d="M46.6017 24.3291V24.4885H15.2969V24.3291H46.6017Z" fill="#1854E8"/>
<path d="M46.6017 24.4365V24.5929H15.2969V24.4365H46.6017Z" fill="#1854E8"/>
<path d="M46.6017 24.541V24.7005H15.2969V24.541H46.6017Z" fill="#1854E8"/>
<path d="M46.6017 24.6484V24.8048H15.2969V24.6484H46.6017Z" fill="#1853E8"/>
<path d="M46.6017 24.7529V24.9124H15.2969V24.7529H46.6017Z" fill="#1853E8"/>
<path d="M46.6017 24.8604V25.0167H15.2969V24.8604H46.6017Z" fill="#1853E8"/>
<path d="M46.6017 24.9639V25.1233H15.2969V24.9639H46.6017Z" fill="#1853E8"/>
<path d="M46.6017 25.0713V25.2277H15.2969V25.0713H46.6017Z" fill="#1753E8"/>
<path d="M46.6017 25.1758V25.3352H15.2969V25.1758H46.6017Z" fill="#1753E8"/>
<path d="M46.6017 25.2832V25.4396H15.2969V25.2832H46.6017Z" fill="#1753E8"/>
<path d="M46.6017 25.3877V25.5471H15.2969V25.3877H46.6017Z" fill="#1753E8"/>
<path d="M46.6017 25.4951V25.6515H15.2969V25.4951H46.6017Z" fill="#1753E8"/>
<path d="M46.6017 25.5986V25.7581H15.2969V25.5986H46.6017Z" fill="#1753E8"/>
<path d="M46.6017 25.7061V25.8624H15.2969V25.7061H46.6017Z" fill="#1752E8"/>
<path d="M46.6017 25.8105V25.97H15.2969V25.8105H46.6017Z" fill="#1752E8"/>
<path d="M46.6017 25.918V26.0743H15.2969V25.918H46.6017Z" fill="#1752E8"/>
<path d="M46.6017 26.0225V26.1819H15.2969V26.0225H46.6017Z" fill="#1752E8"/>
<path d="M46.6017 26.1289V26.2853H15.2969V26.1289H46.6017Z" fill="#1752E8"/>
<path d="M46.6017 26.2334V26.3928H15.2969V26.2334H46.6017Z" fill="#1752E8"/>
<path d="M46.6017 26.3408V26.4972H15.2969V26.3408H46.6017Z" fill="#1752E8"/>
<path d="M46.6017 26.4453V26.6047H15.2969V26.4453H46.6017Z" fill="#1752E8"/>
<path d="M46.6017 26.5526V26.5342H15.2969V26.5526H46.6017Z" fill="#1752E8"/>
</g>
<mask id="mask1_330_94" style="mask-type:luminance" maskUnits="userSpaceOnUse" x="15" y="5" width="16" height="22">
<path d="M23.7685 26.5338H15.2969L25.6511 5.90818C26.1692 4.87797 27.4018 5.04354 27.7789 5.91738L30.9493 12.2458L23.7685 26.5338Z" fill="white"/>
</mask>
<g mask="url(#mask1_330_94)">
<path d="M15.2969 26.5337V26.4355H30.9493V26.5337H15.2969Z" fill="#3491F7"/>
<path d="M15.2969 26.4782V26.3525H30.9493V26.4782H15.2969Z" fill="#3491F7"/>
<path d="M15.2969 26.3952V26.2695H30.9493V26.3952H15.2969Z" fill="#3491F7"/>
<path d="M15.2969 26.3101V26.1875H30.9493V26.3101H15.2969Z" fill="#3491F7"/>
<path d="M15.2969 26.2271V26.1045H30.9493V26.2271H15.2969Z" fill="#3491F7"/>
<path d="M15.2969 26.1443V26.0186H30.9493V26.1443H15.2969Z" fill="#3491F7"/>
<path d="M15.2969 26.0613V25.9355H30.9493V26.0613H15.2969Z" fill="#3491F7"/>
<path d="M15.2969 25.9792V25.8535H30.9493V25.9792H15.2969Z" fill="#3491F7"/>
<path d="M15.2969 25.8962V25.7705H30.9493V25.8962H15.2969Z" fill="#3491F7"/>
<path d="M15.2969 25.8132V25.6875H30.9493V25.8132H15.2969Z" fill="#3491F7"/>
<path d="M15.2969 25.7271V25.6045H30.9493V25.7271H15.2969Z" fill="#3491F7"/>
<path d="M15.2969 25.6441V25.5215H30.9493V25.6441H15.2969Z" fill="#3490F7"/>
<path d="M15.2969 25.5622V25.4365H30.9493V25.5622H15.2969Z" fill="#3490F7"/>
<path d="M15.2969 25.4792V25.3535H30.9493V25.4792H15.2969Z" fill="#3490F7"/>
<path d="M15.2969 25.3962V25.2705H30.9493V25.3962H15.2969Z" fill="#3490F7"/>
<path d="M15.2969 25.3132V25.1875H30.9493V25.3132H15.2969Z" fill="#3490F7"/>
<path d="M15.2969 25.2271V25.1045H30.9493V25.2271H15.2969Z" fill="#3490F7"/>
<path d="M15.2969 25.1451V25.0225H30.9493V25.1451H15.2969Z" fill="#3390F7"/>
<path d="M15.2969 25.0622V24.9365H30.9493V25.0622H15.2969Z" fill="#3390F7"/>
<path d="M15.2969 24.9792V24.8535H30.9493V24.9792H15.2969Z" fill="#3390F7"/>
<path d="M15.2969 24.8962V24.7705H30.9493V24.8962H15.2969Z" fill="#3390F7"/>
<path d="M15.2969 24.8132V24.6875H30.9493V24.8132H15.2969Z" fill="#338FF7"/>
<path d="M15.2969 24.7312V24.6055H30.9493V24.7312H15.2969Z" fill="#338FF7"/>
<path d="M15.2969 24.6451V24.5225H30.9493V24.6451H15.2969Z" fill="#338FF7"/>
<path d="M15.2969 24.5621V24.4395H30.9493V24.5621H15.2969Z" fill="#338FF7"/>
<path d="M15.2969 24.4792V24.3535H30.9493V24.4792H15.2969Z" fill="#338FF6"/>
<path d="M15.2969 24.3962V24.2705H30.9493V24.3962H15.2969Z" fill="#338FF6"/>
<path d="M15.2969 24.3142V24.1885H30.9493V24.3142H15.2969Z" fill="#338FF6"/>
<path d="M15.2969 24.2312V24.1055H30.9493V24.2312H15.2969Z" fill="#338EF6"/>
<path d="M15.2969 24.1451V24.0225H30.9493V24.1451H15.2969Z" fill="#338EF6"/>
<path d="M15.2969 24.0621V23.9395H30.9493V24.0621H15.2969Z" fill="#338EF6"/>
<path d="M15.2969 23.9792V23.8535H30.9493V23.9792H15.2969Z" fill="#338EF6"/>
<path d="M15.2969 23.8972V23.7715H30.9493V23.8972H15.2969Z" fill="#338EF6"/>
<path d="M15.2969 23.8142V23.6885H30.9493V23.8142H15.2969Z" fill="#328EF6"/>
<path d="M15.2969 23.7312V23.6055H30.9493V23.7312H15.2969Z" fill="#328DF6"/>
<path d="M15.2969 23.6482V23.5225H30.9493V23.6482H15.2969Z" fill="#328DF6"/>
<path d="M15.2969 23.5631V23.4404H30.9493V23.5631H15.2969Z" fill="#328DF6"/>
<path d="M15.2969 23.4801V23.3574H30.9493V23.4801H15.2969Z" fill="#328DF6"/>
<path d="M15.2969 23.3972V23.2715H30.9493V23.3972H15.2969Z" fill="#328DF6"/>
<path d="M15.2969 23.3142V23.1885H30.9493V23.3142H15.2969Z" fill="#328CF6"/>
<path d="M15.2969 23.2312V23.1055H30.9493V23.2312H15.2969Z" fill="#328CF6"/>
<path d="M15.2969 23.1491V23.0234H30.9493V23.1491H15.2969Z" fill="#328CF6"/>
<path d="M15.2969 23.0631V22.9404H30.9493V23.0631H15.2969Z" fill="#328CF6"/>
<path d="M15.2969 22.9801V22.8574H30.9493V22.9801H15.2969Z" fill="#328CF6"/>
<path d="M15.2969 22.8972V22.7715H30.9493V22.8972H15.2969Z" fill="#318BF6"/>
<path d="M15.2969 22.8142V22.6885H30.9493V22.8142H15.2969Z" fill="#318BF6"/>
<path d="M15.2969 22.7322V22.6064H30.9493V22.7322H15.2969Z" fill="#318BF6"/>
<path d="M15.2969 22.6491V22.5234H30.9493V22.6491H15.2969Z" fill="#318BF5"/>
<path d="M15.2969 22.5661V22.4404H30.9493V22.5661H15.2969Z" fill="#318AF5"/>
<path d="M15.2969 22.4801V22.3574H30.9493V22.4801H15.2969Z" fill="#318AF5"/>
<path d="M15.2969 22.3971V22.2744H30.9493V22.3971H15.2969Z" fill="#318AF5"/>
<path d="M15.2969 22.3152V22.1895H30.9493V22.3152H15.2969Z" fill="#318AF5"/>
<path d="M15.2969 22.2322V22.1064H30.9493V22.2322H15.2969Z" fill="#3189F5"/>
<path d="M15.2969 22.1491V22.0234H30.9493V22.1491H15.2969Z" fill="#3089F5"/>
<path d="M15.2969 22.0661V21.9404H30.9493V22.0661H15.2969Z" fill="#3089F5"/>
<path d="M15.2969 21.9801V21.8574H30.9493V21.9801H15.2969Z" fill="#3089F5"/>
<path d="M15.2969 21.898V21.7754H30.9493V21.898H15.2969Z" fill="#3088F5"/>
<path d="M15.2969 21.8152V21.6895H30.9493V21.8152H15.2969Z" fill="#3088F5"/>
<path d="M15.2969 21.7322V21.6064H30.9493V21.7322H15.2969Z" fill="#3088F5"/>
<path d="M15.2969 21.6491V21.5234H30.9493V21.6491H15.2969Z" fill="#3088F5"/>
<path d="M15.2969 21.5671V21.4414H30.9493V21.5671H15.2969Z" fill="#3087F5"/>
<path d="M15.2969 21.4841V21.3584H30.9493V21.4841H15.2969Z" fill="#2F87F5"/>
<path d="M15.2969 21.398V21.2754H30.9493V21.398H15.2969Z" fill="#2F87F5"/>
<path d="M15.2969 21.315V21.1924H30.9493V21.315H15.2969Z" fill="#2F87F5"/>
<path d="M15.2969 21.2322V21.1064H30.9493V21.2322H15.2969Z" fill="#2F86F4"/>
<path d="M15.2969 21.1501V21.0244H30.9493V21.1501H15.2969Z" fill="#2F86F4"/>
<path d="M15.2969 21.0671V20.9414H30.9493V21.0671H15.2969Z" fill="#2F86F4"/>
<path d="M15.2969 20.9841V20.8584H30.9493V20.9841H15.2969Z" fill="#2F85F4"/>
<path d="M15.2969 20.9011V20.7754H30.9493V20.9011H15.2969Z" fill="#2F85F4"/>
<path d="M15.2969 20.815V20.6924H30.9493V20.815H15.2969Z" fill="#2E85F4"/>
<path d="M15.2969 20.7331V20.6074H30.9493V20.7331H15.2969Z" fill="#2E84F4"/>
<path d="M15.2969 20.6501V20.5244H30.9493V20.6501H15.2969Z" fill="#2E84F4"/>
<path d="M15.2969 20.5671V20.4414H30.9493V20.5671H15.2969Z" fill="#2E84F4"/>
<path d="M15.2969 20.4841V20.3584H30.9493V20.4841H15.2969Z" fill="#2E84F4"/>
<path d="M15.2969 20.4011V20.2754H30.9493V20.4011H15.2969Z" fill="#2E83F4"/>
<path d="M15.2969 20.316V20.1934H30.9493V20.316H15.2969Z" fill="#2E83F4"/>
<path d="M15.2969 20.233V20.1104H30.9493V20.233H15.2969Z" fill="#2D83F4"/>
<path d="M15.2969 20.1501V20.0244H30.9493V20.1501H15.2969Z" fill="#2D82F3"/>
<path d="M15.2969 20.0671V19.9414H30.9493V20.0671H15.2969Z" fill="#2D82F3"/>
<path d="M15.2969 19.9841V19.8584H30.9493V19.9841H15.2969Z" fill="#2D82F3"/>
<path d="M15.2969 19.9021V19.7764H30.9493V19.9021H15.2969Z" fill="#2D81F3"/>
<path d="M15.2969 19.8191V19.6934H30.9493V19.8191H15.2969Z" fill="#2D81F3"/>
<path d="M15.2969 19.733V19.6104H30.9493V19.733H15.2969Z" fill="#2C81F3"/>
<path d="M15.2969 19.6501V19.5244H30.9493V19.6501H15.2969Z" fill="#2C80F3"/>
<path d="M15.2969 19.5671V19.4414H30.9493V19.5671H15.2969Z" fill="#2C80F3"/>
<path d="M15.2969 19.4851V19.3594H30.9493V19.4851H15.2969Z" fill="#2C80F3"/>
<path d="M15.2969 19.4021V19.2764H30.9493V19.4021H15.2969Z" fill="#2C7FF3"/>
<path d="M15.2969 19.3191V19.1934H30.9493V19.3191H15.2969Z" fill="#2C7FF3"/>
<path d="M15.2969 19.233V19.1104H30.9493V19.233H15.2969Z" fill="#2C7FF3"/>
<path d="M15.2969 19.151V19.0283H30.9493V19.151H15.2969Z" fill="#2B7EF3"/>
<path d="M15.2969 19.0681V18.9424H30.9493V19.0681H15.2969Z" fill="#2B7EF2"/>
<path d="M15.2969 18.9851V18.8594H30.9493V18.9851H15.2969Z" fill="#2B7EF2"/>
<path d="M15.2969 18.9021V18.7764H30.9493V18.9021H15.2969Z" fill="#2B7DF2"/>
<path d="M15.2969 18.8191V18.6934H30.9493V18.8191H15.2969Z" fill="#2B7DF2"/>
<path d="M15.2969 18.737V18.6113H30.9493V18.737H15.2969Z" fill="#2B7DF2"/>
<path d="M15.2969 18.651V18.5283H30.9493V18.651H15.2969Z" fill="#2A7CF2"/>
<path d="M15.2969 18.5681V18.4424H30.9493V18.5681H15.2969Z" fill="#2A7CF2"/>
<path d="M15.2969 18.4851V18.3594H30.9493V18.4851H15.2969Z" fill="#2A7CF2"/>
<path d="M15.2969 18.4021V18.2764H30.9493V18.4021H15.2969Z" fill="#2A7BF2"/>
<path d="M15.2969 18.32V18.1943H30.9493V18.32H15.2969Z" fill="#2A7BF2"/>
<path d="M15.2969 18.237V18.1113H30.9493V18.237H15.2969Z" fill="#2A7AF2"/>
<path d="M15.2969 18.151V18.0283H30.9493V18.151H15.2969Z" fill="#297AF2"/>
<path d="M15.2969 18.068V17.9453H30.9493V18.068H15.2969Z" fill="#297AF1"/>
<path d="M15.2969 17.9851V17.8594H30.9493V17.9851H15.2969Z" fill="#2979F1"/>
<path d="M15.2969 17.9031V17.7773H30.9493V17.9031H15.2969Z" fill="#2979F1"/>
<path d="M15.2969 17.82V17.6943H30.9493V17.82H15.2969Z" fill="#2979F1"/>
<path d="M15.2969 17.737V17.6113H30.9493V17.737H15.2969Z" fill="#2978F1"/>
<path d="M15.2969 17.654V17.5283H30.9493V17.654H15.2969Z" fill="#2878F1"/>
<path d="M15.2969 17.568V17.4453H30.9493V17.568H15.2969Z" fill="#2878F1"/>
<path d="M15.2969 17.4861V17.3604H30.9493V17.4861H15.2969Z" fill="#2877F1"/>
<path d="M15.2969 17.4031V17.2773H30.9493V17.4031H15.2969Z" fill="#2877F1"/>
<path d="M15.2969 17.32V17.1943H30.9493V17.32H15.2969Z" fill="#2876F1"/>
<path d="M15.2969 17.237V17.1113H30.9493V17.237H15.2969Z" fill="#2876F1"/>
<path d="M15.2969 17.155V17.0293H30.9493V17.155H15.2969Z" fill="#2776F1"/>
<path d="M15.2969 17.0689V16.9463H30.9493V17.0689H15.2969Z" fill="#2775F0"/>
<path d="M15.2969 16.9859V16.8633H30.9493V16.9859H15.2969Z" fill="#2775F0"/>
<path d="M15.2969 16.9031V16.7773H30.9493V16.9031H15.2969Z" fill="#2775F0"/>
<path d="M15.2969 16.82V16.6943H30.9493V16.82H15.2969Z" fill="#2774F0"/>
<path d="M15.2969 16.738V16.6123H30.9493V16.738H15.2969Z" fill="#2774F0"/>
<path d="M15.2969 16.655V16.5293H30.9493V16.655H15.2969Z" fill="#2674F0"/>
<path d="M15.2969 16.572V16.4463H30.9493V16.572H15.2969Z" fill="#2673F0"/>
<path d="M15.2969 16.4859V16.3633H30.9493V16.4859H15.2969Z" fill="#2673F0"/>
<path d="M15.2969 16.4029V16.2803H30.9493V16.4029H15.2969Z" fill="#2672F0"/>
<path d="M15.2969 16.321V16.1953H30.9493V16.321H15.2969Z" fill="#2672F0"/>
<path d="M15.2969 16.238V16.1123H30.9493V16.238H15.2969Z" fill="#2672F0"/>
<path d="M15.2969 16.155V16.0293H30.9493V16.155H15.2969Z" fill="#2571EF"/>
<path d="M15.2969 16.072V15.9463H30.9493V16.072H15.2969Z" fill="#2571EF"/>
<path d="M15.2969 15.9859V15.8633H30.9493V15.9859H15.2969Z" fill="#2571EF"/>
<path d="M15.2969 15.9039V15.7812H30.9493V15.9039H15.2969Z" fill="#2570EF"/>
<path d="M15.2969 15.821V15.6953H30.9493V15.821H15.2969Z" fill="#2570EF"/>
<path d="M15.2969 15.738V15.6123H30.9493V15.738H15.2969Z" fill="#256FEF"/>
<path d="M15.2969 15.655V15.5293H30.9493V15.655H15.2969Z" fill="#246FEF"/>
<path d="M15.2969 15.572V15.4463H30.9493V15.572H15.2969Z" fill="#246FEF"/>
<path d="M15.2969 15.49V15.3643H30.9493V15.49H15.2969Z" fill="#246EEF"/>
<path d="M15.2969 15.4039V15.2812H30.9493V15.4039H15.2969Z" fill="#246EEF"/>
<path d="M15.2969 15.3209V15.1982H30.9493V15.3209H15.2969Z" fill="#246EEF"/>
<path d="M15.2969 15.238V15.1123H30.9493V15.238H15.2969Z" fill="#246DEE"/>
<path d="M15.2969 15.155V15.0293H30.9493V15.155H15.2969Z" fill="#236DEE"/>
<path d="M15.2969 15.073V14.9473H30.9493V15.073H15.2969Z" fill="#236DEE"/>
<path d="M15.2969 14.99V14.8643H30.9493V14.99H15.2969Z" fill="#236CEE"/>
<path d="M15.2969 14.9039V14.7812H30.9493V14.9039H15.2969Z" fill="#236CEE"/>
<path d="M15.2969 14.8209V14.6982H30.9493V14.8209H15.2969Z" fill="#236BEE"/>
<path d="M15.2969 14.738V14.6123H30.9493V14.738H15.2969Z" fill="#236BEE"/>
<path d="M15.2969 14.656V14.5303H30.9493V14.656H15.2969Z" fill="#226BEE"/>
<path d="M15.2969 14.573V14.4473H30.9493V14.573H15.2969Z" fill="#226AEE"/>
<path d="M15.2969 14.49V14.3643H30.9493V14.49H15.2969Z" fill="#226AEE"/>
<path d="M15.2969 14.407V14.2812H30.9493V14.407H15.2969Z" fill="#226AEE"/>
<path d="M15.2969 14.3219V14.1992H30.9493V14.3219H15.2969Z" fill="#2269EE"/>
<path d="M15.2969 14.2389V14.1162H30.9493V14.2389H15.2969Z" fill="#2269ED"/>
<path d="M15.2969 14.156V14.0303H30.9493V14.156H15.2969Z" fill="#2169ED"/>
<path d="M15.2969 14.073V13.9473H30.9493V14.073H15.2969Z" fill="#2168ED"/>
<path d="M15.2969 13.99V13.8643H30.9493V13.99H15.2969Z" fill="#2168ED"/>
<path d="M15.2969 13.9079V13.7822H30.9493V13.9079H15.2969Z" fill="#2167ED"/>
<path d="M15.2969 13.8219V13.6992H30.9493V13.8219H15.2969Z" fill="#2167ED"/>
<path d="M15.2969 13.7389V13.6162H30.9493V13.7389H15.2969Z" fill="#2167ED"/>
<path d="M15.2969 13.656V13.5303H30.9493V13.656H15.2969Z" fill="#2066ED"/>
<path d="M15.2969 13.573V13.4473H30.9493V13.573H15.2969Z" fill="#2066ED"/>
<path d="M15.2969 13.4909V13.3652H30.9493V13.4909H15.2969Z" fill="#2066ED"/>
<path d="M15.2969 13.4079V13.2822H30.9493V13.4079H15.2969Z" fill="#2065ED"/>
<path d="M15.2969 13.3249V13.1992H30.9493V13.3249H15.2969Z" fill="#2065ED"/>
<path d="M15.2969 13.2389V13.1162H30.9493V13.2389H15.2969Z" fill="#2065EC"/>
<path d="M15.2969 13.1558V13.0332H30.9493V13.1558H15.2969Z" fill="#1F64EC"/>
<path d="M15.2969 13.074V12.9482H30.9493V13.074H15.2969Z" fill="#1F64EC"/>
<path d="M15.2969 12.9909V12.8652H30.9493V12.9909H15.2969Z" fill="#1F64EC"/>
<path d="M15.2969 12.9079V12.7822H30.9493V12.9079H15.2969Z" fill="#1F63EC"/>
<path d="M15.2969 12.8249V12.6992H30.9493V12.8249H15.2969Z" fill="#1F63EC"/>
<path d="M15.2969 12.7419V12.6162H30.9493V12.7419H15.2969Z" fill="#1F63EC"/>
<path d="M15.2969 12.6568V12.5342H30.9493V12.6568H15.2969Z" fill="#1F62EC"/>
<path d="M15.2969 12.574V12.4482H30.9493V12.574H15.2969Z" fill="#1E62EC"/>
<path d="M15.2969 12.4909V12.3652H30.9493V12.4909H15.2969Z" fill="#1E62EC"/>
<path d="M15.2969 12.4079V12.2822H30.9493V12.4079H15.2969Z" fill="#1E61EC"/>
<path d="M15.2969 12.3259V12.2002H30.9493V12.3259H15.2969Z" fill="#1E61EC"/>
<path d="M15.2969 12.2429V12.1172H30.9493V12.2429H15.2969Z" fill="#1E61EC"/>
<path d="M15.2969 12.1568V12.0342H30.9493V12.1568H15.2969Z" fill="#1E60EB"/>
<path d="M15.2969 12.0738V11.9512H30.9493V12.0738H15.2969Z" fill="#1D60EB"/>
<path d="M15.2969 11.9909V11.8652H30.9493V11.9909H15.2969Z" fill="#1D60EB"/>
<path d="M15.2969 11.9089V11.7832H30.9493V11.9089H15.2969Z" fill="#1D5FEB"/>
<path d="M15.2969 11.8259V11.7002H30.9493V11.8259H15.2969Z" fill="#1D5FEB"/>
<path d="M15.2969 11.7429V11.6172H30.9493V11.7429H15.2969Z" fill="#1D5FEB"/>
<path d="M15.2969 11.6599V11.5342H30.9493V11.6599H15.2969Z" fill="#1D5FEB"/>
<path d="M15.2969 11.5738V11.4512H30.9493V11.5738H15.2969Z" fill="#1D5EEB"/>
<path d="M15.2969 11.4919V11.3662H30.9493V11.4919H15.2969Z" fill="#1C5EEB"/>
<path d="M15.2969 11.4089V11.2832H30.9493V11.4089H15.2969Z" fill="#1C5EEB"/>
<path d="M15.2969 11.3259V11.2002H30.9493V11.3259H15.2969Z" fill="#1C5DEB"/>
<path d="M15.2969 11.2429V11.1172H30.9493V11.2429H15.2969Z" fill="#1C5DEB"/>
<path d="M15.2969 11.1599V11.0342H30.9493V11.1599H15.2969Z" fill="#1C5DEB"/>
<path d="M15.2969 11.0748V10.9521H30.9493V11.0748H15.2969Z" fill="#1C5CEA"/>
<path d="M15.2969 10.9918V10.8691H30.9493V10.9918H15.2969Z" fill="#1C5CEA"/>
<path d="M15.2969 10.9089V10.7832H30.9493V10.9089H15.2969Z" fill="#1C5CEA"/>
<path d="M15.2969 10.8259V10.7002H30.9493V10.8259H15.2969Z" fill="#1B5CEA"/>
<path d="M15.2969 10.7429V10.6172H30.9493V10.7429H15.2969Z" fill="#1B5BEA"/>
<path d="M15.2969 10.6609V10.5352H30.9493V10.6609H15.2969Z" fill="#1B5BEA"/>
<path d="M15.2969 10.5779V10.4521H30.9493V10.5779H15.2969Z" fill="#1B5BEA"/>
<path d="M15.2969 10.4918V10.3691H30.9493V10.4918H15.2969Z" fill="#1B5BEA"/>
<path d="M15.2969 10.4089V10.2832H30.9493V10.4089H15.2969Z" fill="#1B5AEA"/>
<path d="M15.2969 10.3259V10.2002H30.9493V10.3259H15.2969Z" fill="#1B5AEA"/>
<path d="M15.2969 10.2439V10.1182H30.9493V10.2439H15.2969Z" fill="#1B5AEA"/>
<path d="M15.2969 10.1609V10.0352H30.9493V10.1609H15.2969Z" fill="#1A5AEA"/>
<path d="M15.2969 10.0779V9.95215H30.9493V10.0779H15.2969Z" fill="#1A59EA"/>
<path d="M15.2969 9.99178V9.86914H30.9493V9.99178H15.2969Z" fill="#1A59EA"/>
<path d="M15.2969 9.90975V9.78711H30.9493V9.90975H15.2969Z" fill="#1A59EA"/>
<path d="M15.2969 9.82688V9.70117H30.9493V9.82688H15.2969Z" fill="#1A59EA"/>
<path d="M15.2969 9.74387V9.61816H30.9493V9.74387H15.2969Z" fill="#1A58EA"/>
<path d="M15.2969 9.66087V9.53516H30.9493V9.66087H15.2969Z" fill="#1A58E9"/>
<path d="M15.2969 9.57786V9.45215H30.9493V9.57786H15.2969Z" fill="#1A58E9"/>
<path d="M15.2969 9.49276V9.37012H30.9493V9.49276H15.2969Z" fill="#1A58E9"/>
<path d="M15.2969 9.40975V9.28711H30.9493V9.40975H15.2969Z" fill="#1957E9"/>
<path d="M15.2969 9.32688V9.20117H30.9493V9.32688H15.2969Z" fill="#1957E9"/>
<path d="M15.2969 9.24387V9.11816H30.9493V9.24387H15.2969Z" fill="#1957E9"/>
<path d="M15.2969 9.16087V9.03516H30.9493V9.16087H15.2969Z" fill="#1957E9"/>
<path d="M15.2969 9.07883V8.95312H30.9493V9.07883H15.2969Z" fill="#1957E9"/>
<path d="M15.2969 8.99583V8.87012H30.9493V8.99583H15.2969Z" fill="#1956E9"/>
<path d="M15.2969 8.90975V8.78711H30.9493V8.90975H15.2969Z" fill="#1956E9"/>
<path d="M15.2969 8.82675V8.7041H30.9493V8.82675H15.2969Z" fill="#1956E9"/>
<path d="M15.2969 8.74387V8.61816H30.9493V8.74387H15.2969Z" fill="#1956E9"/>
<path d="M15.2969 8.66184V8.53613H30.9493V8.66184H15.2969Z" fill="#1956E9"/>
<path d="M15.2969 8.57883V8.45312H30.9493V8.57883H15.2969Z" fill="#1955E9"/>
<path d="M15.2969 8.49583V8.37012H30.9493V8.49583H15.2969Z" fill="#1855E9"/>
<path d="M15.2969 8.40975V8.28711H30.9493V8.40975H15.2969Z" fill="#1855E9"/>
<path d="M15.2969 8.32675V8.2041H30.9493V8.32675H15.2969Z" fill="#1855E9"/>
<path d="M15.2969 8.24471V8.12207H30.9493V8.24471H15.2969Z" fill="#1855E9"/>
<path d="M15.2969 8.16184V8.03613H30.9493V8.16184H15.2969Z" fill="#1855E9"/>
<path d="M15.2969 8.07883V7.95312H30.9493V8.07883H15.2969Z" fill="#1854E9"/>
<path d="M15.2969 7.99583V7.87012H30.9493V7.99583H15.2969Z" fill="#1854E9"/>
<path d="M15.2969 7.9138V7.78809H30.9493V7.9138H15.2969Z" fill="#1854E9"/>
<path d="M15.2969 7.82772V7.70508H30.9493V7.82772H15.2969Z" fill="#1854E8"/>
<path d="M15.2969 7.74471V7.62207H30.9493V7.74471H15.2969Z" fill="#1854E8"/>
<path d="M15.2969 7.66184V7.53613H30.9493V7.66184H15.2969Z" fill="#1854E8"/>
<path d="M15.2969 7.57883V7.45312H30.9493V7.57883H15.2969Z" fill="#1854E8"/>
<path d="M15.2969 7.4968V7.37109H30.9493V7.4968H15.2969Z" fill="#1853E8"/>
<path d="M15.2969 7.4138V7.28809H30.9493V7.4138H15.2969Z" fill="#1853E8"/>
<path d="M15.2969 7.33079V7.20508H30.9493V7.33079H15.2969Z" fill="#1853E8"/>
<path d="M15.2969 7.24471V7.12207H30.9493V7.24471H15.2969Z" fill="#1853E8"/>
<path d="M15.2969 7.16184V7.03613H30.9493V7.16184H15.2969Z" fill="#1753E8"/>
<path d="M15.2969 7.07981V6.9541H30.9493V7.07981H15.2969Z" fill="#1753E8"/>
<path d="M15.2969 6.9968V6.87109H30.9493V6.9968H15.2969Z" fill="#1753E8"/>
<path d="M15.2969 6.9138V6.78809H30.9493V6.9138H15.2969Z" fill="#1753E8"/>
<path d="M15.2969 6.83079V6.70508H30.9493V6.83079H15.2969Z" fill="#1753E8"/>
<path d="M15.2969 6.74471V6.62207H30.9493V6.74471H15.2969Z" fill="#1753E8"/>
<path d="M15.2969 6.66268V6.54004H30.9493V6.66268H15.2969Z" fill="#1752E8"/>
<path d="M15.2969 6.57981V6.4541H30.9493V6.57981H15.2969Z" fill="#1752E8"/>
<path d="M15.2969 6.4968V6.37109H30.9493V6.4968H15.2969Z" fill="#1752E8"/>
<path d="M15.2969 6.4138V6.28809H30.9493V6.4138H15.2969Z" fill="#1752E8"/>
<path d="M15.2969 6.33079V6.20508H30.9493V6.33079H15.2969Z" fill="#1752E8"/>
<path d="M15.2969 6.24876V6.12305H30.9493V6.24876H15.2969Z" fill="#1752E8"/>
<path d="M15.2969 6.16268V6.04004H30.9493V6.16268H15.2969Z" fill="#1752E8"/>
<path d="M15.2969 6.07981V5.9541H30.9493V6.07981H15.2969Z" fill="#1752E8"/>
<path d="M15.2969 5.9968V5.87109H30.9493V5.9968H15.2969Z" fill="#1752E8"/>
<path d="M15.2969 5.9138V5.78809H30.9493V5.9138H15.2969Z" fill="#1752E8"/>
<path d="M15.2969 5.83176V5.70605H30.9493V5.83176H15.2969Z" fill="#1752E8"/>
<path d="M15.2969 5.74876V5.62305H30.9493V5.74876H15.2969Z" fill="#1752E8"/>
<path d="M15.2969 5.66268V5.54004H30.9493V5.66268H15.2969Z" fill="#1752E8"/>
<path d="M15.2969 5.58006V4.87793H30.9493V5.58006H15.2969Z" fill="#1752E8"/>
</g>
<path d="M80.8275 24.1857C78.3623 24.1857 76.3571 22.1805 76.3571 19.7154C76.3571 17.2502 78.3623 15.245 80.8275 15.245C83.2926 15.245 85.2978 17.2502 85.2978 19.7154C85.2978 22.1805 83.2926 24.1857 80.8275 24.1857ZM129.566 18.0842H129.275H125.617H125.329C124.538 18.0842 123.897 17.4403 123.897 16.6523C123.897 15.8643 124.538 15.2205 125.329 15.2205H132.454V12.4365H125.326C123.002 12.4365 121.11 14.3282 121.11 16.6493C121.11 18.9734 123.002 20.8651 125.326 20.8651H125.614H129.272H129.563C130.351 20.8651 130.995 21.506 130.995 22.297C130.995 23.085 130.354 23.7289 129.563 23.7289H121.275V26.5129H129.563C131.887 26.5129 133.779 24.6211 133.779 22.297C133.782 19.976 131.89 18.0842 129.566 18.0842ZM97.0777 24.1857C94.6126 24.1857 92.6074 22.1805 92.6074 19.7154C92.6074 17.2502 94.6126 15.245 97.0777 15.245C99.5429 15.245 101.548 17.2502 101.548 19.7154C101.548 22.1805 99.5429 24.1857 97.0777 24.1857ZM101.548 14.0155C100.316 13.0466 98.7641 12.461 97.0777 12.461C93.0796 12.461 89.8234 15.7141 89.8234 19.7154C89.8234 23.7135 93.0765 26.9697 97.0777 26.9697C101.076 26.9697 104.329 23.7166 104.329 19.7154V7.41113H101.545C101.548 7.41113 101.548 14.0155 101.548 14.0155ZM66.2022 12.4334C64.6262 12.4334 63.2128 13.1202 62.2316 14.2056C61.2505 13.1202 59.8339 12.4334 58.261 12.4334C55.3053 12.4334 52.8984 14.8403 52.8984 17.796V26.5589H55.6824V17.796C55.6824 16.3733 56.8384 15.2174 58.261 15.2174C59.6837 15.2174 60.8396 16.3733 60.8396 17.796V26.5589H63.6236V17.796C63.6236 16.3733 64.7795 15.2174 66.2022 15.2174C67.6249 15.2174 68.7808 16.3733 68.7808 17.796V26.5589H71.5648V17.796C71.5617 14.8403 69.1579 12.4334 66.2022 12.4334ZM116.241 20.8222C116.241 22.6098 114.784 24.2194 112.997 24.2194C111.209 24.2194 109.753 22.7631 109.753 20.9755V12.6541H106.969V20.9755C106.969 24.2992 109.673 27.0035 112.997 27.0035C116.321 27.0035 119.025 24.2992 119.025 20.9755V12.6541H116.241V20.8222ZM80.8275 12.461C76.8293 12.461 73.5731 15.7141 73.5731 19.7154C73.5731 23.7135 76.8262 26.9697 80.8275 26.9697C84.8256 26.9697 88.0788 23.7166 88.0788 19.7154C88.0818 15.7141 84.8256 12.461 80.8275 12.461Z" fill="#1752E8"/>
<path fill-rule="evenodd" clip-rule="evenodd" d="M11.8964 19.7303L15.3151 26.5339H23.7929L15.3581 9.72254C15.0085 8.94988 14.4045 8.28454 13.5889 7.87982C13.0462 7.61 12.4667 7.48429 11.8964 7.48736C11.3261 7.48429 10.7467 7.61 10.204 7.87982C9.39144 8.28454 8.78435 8.94682 8.43482 9.72254L0 26.5339H8.47774L11.8964 19.7303Z" fill="url(#paint0_linear_330_94)"/>
<path fill-rule="evenodd" clip-rule="evenodd" d="M0.00390625 26.5338L6.59907 13.3926C7.11724 12.3623 8.34981 12.5279 8.72694 13.4018L11.8973 19.7302L8.47858 26.5338H0.00390625Z" fill="url(#paint1_linear_330_94)"/>
</g>
<defs>
<linearGradient id="paint0_linear_330_94" x1="11.8362" y1="26.2988" x2="11.8362" y2="8.19598" gradientUnits="userSpaceOnUse">
<stop stop-color="#723AA9"/>
<stop offset="1" stop-color="#1DE1D3"/>
</linearGradient>
<linearGradient id="paint1_linear_330_94" x1="5.89975" y1="12.4708" x2="5.90019" y2="26.2988" gradientUnits="userSpaceOnUse">
<stop stop-color="#723AA9"/>
<stop offset="1" stop-color="#1DE1D3"/>
</linearGradient>
<clipPath id="clip0_330_94">
<rect width="133.783" height="27" fill="white"/>
</clipPath>
</defs>
</svg>
