<svg width="62" height="63" viewBox="0 0 62 63" fill="none" xmlns="http://www.w3.org/2000/svg">
<path d="M42.9847 3.2045C45.0698 1.45479 47.6782 0.5 50.4141 0.5C56.8027 0.5 62 5.69745 62 12.0858C62 18.4743 56.8027 23.6718 50.4141 23.6718C46.4448 23.6718 42.7757 21.6439 40.6536 18.329C39.7321 18.6539 38.7738 18.8182 37.795 18.8182C35.5147 18.8182 33.3375 17.9179 31.7194 16.3261C30.8806 16.6877 29.9732 16.8767 29.0587 16.8767C27.2981 16.8767 25.6486 16.2032 24.4024 15.001C23.6565 15.5844 22.741 15.906 21.7784 15.906C21.2769 15.906 20.8702 15.4994 20.8702 14.9978C20.8702 14.4962 21.2769 14.0896 21.7784 14.0896C22.5367 14.0896 23.2472 13.7382 23.7277 13.1254C23.8999 12.9058 24.1635 12.7776 24.4424 12.7776H24.4469C24.7274 12.779 24.9915 12.91 25.1625 13.1325C26.1038 14.3577 27.524 15.0604 29.0587 15.0604C29.9015 15.0604 30.7364 14.84 31.4732 14.4232C31.8499 14.2101 32.3248 14.2924 32.6077 14.62C33.915 16.1337 35.8058 17.0018 37.795 17.0018C38.783 17.0018 39.7458 16.789 40.6567 16.3694C41.0904 16.1696 41.6049 16.3399 41.8338 16.7591C43.5498 19.9026 46.8376 21.8553 50.4141 21.8553C55.8011 21.8553 60.1836 17.4727 60.1836 12.0858C60.1836 6.69901 55.8011 2.3164 50.4141 2.3164C47.8793 2.3164 45.4736 3.28953 43.6403 5.05662C43.2959 5.38856 42.7532 5.39643 42.3992 5.07477C41.1309 3.92208 39.4956 3.28722 37.7949 3.28722C35.8057 3.28722 33.9149 4.15534 32.6076 5.66901C32.3247 5.99669 31.8497 6.07888 31.4731 5.86578C30.7363 5.44899 29.9014 5.22856 29.0586 5.22856C26.8346 5.22856 24.883 6.73183 24.3128 8.88414C24.2408 9.15589 24.0471 9.37892 23.7881 9.48831C23.5291 9.59763 23.234 9.58096 22.9893 9.44301C22.5986 9.223 22.1911 9.11143 21.7783 9.11143C20.4728 9.11143 19.3877 10.1391 19.3081 11.4509C19.289 11.7675 19.1059 12.0511 18.8255 12.1991C18.5449 12.347 18.2075 12.338 17.9353 12.1751C17.7672 12.0745 17.5905 12.0235 17.4104 12.0235C16.8406 12.0235 16.3771 12.4869 16.3771 13.0567C16.3771 13.5582 15.9704 13.9649 15.4689 13.9649C14.9673 13.9649 14.5607 13.5582 14.5605 13.0565C14.5605 11.4853 15.8389 10.207 17.4102 10.207C17.5113 10.207 17.6123 10.2127 17.7127 10.2238C18.289 8.51483 19.9023 7.29478 21.7784 7.29478C22.1575 7.29478 22.5307 7.34628 22.8952 7.44834C23.9516 5.02877 26.3586 3.41204 29.0587 3.41204C29.9732 3.41204 30.8806 3.60107 31.7194 3.96282C33.3375 2.37104 35.5146 1.4707 37.795 1.4707C39.6735 1.4707 41.4877 2.08125 42.9847 3.2045Z" fill="url(#paint0_linear_503_4687)"/>
<path d="M23.2343 50.9767C22.7328 50.9767 22.3261 51.3833 22.3261 51.8849V53.8263C22.3261 54.3278 22.7328 54.7345 23.2343 54.7345C23.7359 54.7345 24.1425 54.3278 24.1425 53.8263V51.8849C24.1425 51.3833 23.7359 50.9767 23.2343 50.9767Z" fill="url(#paint1_linear_503_4687)"/>
<path d="M26.2092 51.8849C26.2092 51.3833 26.6158 50.9767 27.1174 50.9767C27.6189 50.9767 28.0256 51.3833 28.0256 51.8849V53.8263C28.0256 54.3278 27.6189 54.7345 27.1174 54.7345C26.6158 54.7345 26.2092 54.3278 26.2092 53.8263V51.8849Z" fill="url(#paint2_linear_503_4687)"/>
<path d="M30.9999 50.9767C30.4984 50.9767 30.0917 51.3833 30.0917 51.8849V53.8263C30.0917 54.3278 30.4984 54.7345 30.9999 54.7345C31.5015 54.7345 31.9081 54.3278 31.9081 53.8263V51.8849C31.9081 51.3833 31.5015 50.9767 30.9999 50.9767Z" fill="url(#paint3_linear_503_4687)"/>
<path d="M33.9743 51.8849C33.9743 51.3833 34.3809 50.9767 34.8825 50.9767C35.3842 50.9767 35.7907 51.3833 35.7907 51.8849V53.8263C35.7907 54.3278 35.3841 54.7345 34.8825 54.7345C34.3809 54.7345 33.9743 54.3278 33.9743 53.8263V51.8849Z" fill="url(#paint4_linear_503_4687)"/>
<path d="M38.7655 50.9767C38.2639 50.9767 37.8573 51.3833 37.8573 51.8849V53.8263C37.8573 54.3278 38.2639 54.7345 38.7655 54.7345C39.2671 54.7345 39.6737 54.3278 39.6737 53.8263V51.8849C39.6737 51.3833 39.2671 50.9767 38.7655 50.9767Z" fill="url(#paint5_linear_503_4687)"/>
<path d="M41.7399 51.8849C41.7399 51.3833 42.1465 50.9767 42.6481 50.9767C43.1496 50.9767 43.5563 51.3833 43.5563 51.8849V53.8263C43.5563 54.3278 43.1496 54.7345 42.6481 54.7345C42.1465 54.7345 41.7399 54.3278 41.7399 53.8263V51.8849Z" fill="url(#paint6_linear_503_4687)"/>
<path d="M46.5311 50.9767C46.0295 50.9767 45.6229 51.3833 45.6229 51.8849V53.8263C45.6229 54.3278 46.0295 54.7345 46.5311 54.7345C47.0327 54.7345 47.4393 54.3278 47.4393 53.8263V51.8849C47.4393 51.3833 47.0327 50.9767 46.5311 50.9767Z" fill="url(#paint7_linear_503_4687)"/>
<path d="M49.5059 51.8849C49.5059 51.3833 49.9126 50.9767 50.4141 50.9767C50.9157 50.9767 51.3223 51.3833 51.3223 51.8849V53.8263C51.3223 54.3278 50.9157 54.7345 50.4141 54.7345C49.9126 54.7345 49.5059 54.3278 49.5059 53.8263V51.8849Z" fill="url(#paint8_linear_503_4687)"/>
<path fill-rule="evenodd" clip-rule="evenodd" d="M58.1171 60.6836H61.0917C61.5932 60.6836 61.9999 61.0902 61.9999 61.5918C61.9999 62.0934 61.5932 62.5 61.0917 62.5H0.908201C0.406632 62.5 0 62.0934 0 61.5918C0 61.0902 0.406632 60.6836 0.908201 60.6836H2.91206V52.0832C2.31761 51.5605 1.94137 50.7953 1.94137 49.9435C1.94137 48.3723 3.21963 47.0939 4.79094 47.0939H11.9706L12.6195 17.8901C12.6304 17.3965 13.0338 17.0021 13.5275 17.0021H19.3517C19.8454 17.0021 20.2488 17.3965 20.2597 17.8901L20.8223 43.211H23.3519L24.2694 28.5313C24.2993 28.0526 24.6963 27.6797 25.1758 27.6797H29.0586C29.5381 27.6797 29.935 28.0526 29.9649 28.5313L30.8825 43.211H33.0589L33.9764 28.5313C34.0063 28.0526 34.4033 27.6797 34.8828 27.6797H38.7655C39.2451 27.6797 39.642 28.0526 39.6719 28.5313L40.5894 43.211H42.7659L43.6834 28.5313C43.7133 28.0526 44.1102 27.6797 44.5898 27.6797H48.4726C48.9521 27.6797 49.3491 28.0526 49.379 28.5313L50.2965 43.211H56.2382C57.8094 43.211 59.0878 44.4893 59.0878 46.0605C59.0878 46.9124 58.7116 47.6776 58.1171 48.2003V60.6836ZM8.67417 50.9767H11.884L11.9299 48.9103H4.79094C4.22132 48.9103 3.75777 49.3737 3.75777 49.9435C3.75777 50.513 4.2212 50.9766 4.79094 50.9766C5.29251 50.9766 8.67417 50.9767 8.67417 50.9767V52.7931C8.67417 52.7931 4.74929 52.7919 4.72846 52.7914V60.6836H11.6683L11.8437 52.7931H8.67417V50.9767ZM47.6193 29.4961H45.4429L44.5858 43.211H48.4765L47.6193 29.4961ZM37.9123 29.4961H35.7359L34.8788 43.211H38.7695L37.9123 29.4961ZM28.2053 29.4961H26.0289L25.1717 43.211H29.0624L28.2053 29.4961ZM13.4853 60.6836H15.5313V48.2003C14.9368 47.6776 14.5605 46.9124 14.5605 46.0605C14.5605 44.4894 15.8389 43.211 17.4102 43.211H19.0054L18.4632 18.8184H14.4155L13.4853 60.6836ZM54.2969 47.0937H56.2382C56.8078 47.0937 57.2714 46.6303 57.2714 46.0605C57.2714 45.4908 56.8078 45.0274 56.2381 45.0274H17.4101C16.8403 45.0274 16.3768 45.491 16.3768 46.0605C16.3768 46.6302 16.8403 47.0937 17.4101 47.0937H54.2969V48.9101H17.4101C17.3891 48.9101 17.3684 48.9091 17.3476 48.9085V60.6836H56.3007V48.9085C56.2948 48.9086 56.2888 48.9088 56.2829 48.9091L56.2754 48.9093L56.2563 48.9098C56.2503 48.91 56.2443 48.9101 56.2382 48.9101H54.2969V47.0937Z" fill="url(#paint9_linear_503_4687)"/>
<defs>
<linearGradient id="paint0_linear_503_4687" x1="33.8651" y1="95.6905" x2="-20.4259" y2="63.7226" gradientUnits="userSpaceOnUse">
<stop stop-color="#723AA9"/>
<stop offset="1" stop-color="#1DE1D3"/>
</linearGradient>
<linearGradient id="paint1_linear_503_4687" x1="33.8651" y1="95.6905" x2="-20.4259" y2="63.7226" gradientUnits="userSpaceOnUse">
<stop stop-color="#723AA9"/>
<stop offset="1" stop-color="#1DE1D3"/>
</linearGradient>
<linearGradient id="paint2_linear_503_4687" x1="33.8651" y1="95.6905" x2="-20.4259" y2="63.7226" gradientUnits="userSpaceOnUse">
<stop stop-color="#723AA9"/>
<stop offset="1" stop-color="#1DE1D3"/>
</linearGradient>
<linearGradient id="paint3_linear_503_4687" x1="33.8651" y1="95.6905" x2="-20.4259" y2="63.7226" gradientUnits="userSpaceOnUse">
<stop stop-color="#723AA9"/>
<stop offset="1" stop-color="#1DE1D3"/>
</linearGradient>
<linearGradient id="paint4_linear_503_4687" x1="33.8651" y1="95.6905" x2="-20.4259" y2="63.7226" gradientUnits="userSpaceOnUse">
<stop stop-color="#723AA9"/>
<stop offset="1" stop-color="#1DE1D3"/>
</linearGradient>
<linearGradient id="paint5_linear_503_4687" x1="33.8651" y1="95.6905" x2="-20.4259" y2="63.7226" gradientUnits="userSpaceOnUse">
<stop stop-color="#723AA9"/>
<stop offset="1" stop-color="#1DE1D3"/>
</linearGradient>
<linearGradient id="paint6_linear_503_4687" x1="33.8651" y1="95.6905" x2="-20.4259" y2="63.7226" gradientUnits="userSpaceOnUse">
<stop stop-color="#723AA9"/>
<stop offset="1" stop-color="#1DE1D3"/>
</linearGradient>
<linearGradient id="paint7_linear_503_4687" x1="33.8651" y1="95.6905" x2="-20.4259" y2="63.7226" gradientUnits="userSpaceOnUse">
<stop stop-color="#723AA9"/>
<stop offset="1" stop-color="#1DE1D3"/>
</linearGradient>
<linearGradient id="paint8_linear_503_4687" x1="33.8651" y1="95.6905" x2="-20.4259" y2="63.7226" gradientUnits="userSpaceOnUse">
<stop stop-color="#723AA9"/>
<stop offset="1" stop-color="#1DE1D3"/>
</linearGradient>
<linearGradient id="paint9_linear_503_4687" x1="33.8651" y1="95.6905" x2="-20.4259" y2="63.7226" gradientUnits="userSpaceOnUse">
<stop stop-color="#723AA9"/>
<stop offset="1" stop-color="#1DE1D3"/>
</linearGradient>
</defs>
</svg>
