<svg width="62" height="63" viewBox="0 0 62 63" fill="none" xmlns="http://www.w3.org/2000/svg">
<path d="M61.8071 18.3935L58.0985 12.8257V9.243C58.0985 8.98619 57.9964 8.7399 57.8149 8.55831C57.6333 8.37671 57.387 8.2747 57.1302 8.2747H48.3089C48.1159 7.32768 47.6439 6.4601 46.9536 5.78363C46.2633 5.10716 45.3864 4.65276 44.4356 4.47893C44.2335 3.36264 43.6458 2.35278 42.7751 1.62557C41.9044 0.898364 40.806 0.5 39.6716 0.5C38.5371 0.5 37.4387 0.898364 36.568 1.62557C35.6973 2.35278 35.1096 3.36264 34.9075 4.47893C33.9693 4.66348 33.1067 5.12171 32.4286 5.79583C31.8083 4.51731 30.8433 3.43743 29.6423 2.67782C28.4413 1.91822 27.0521 1.5091 25.6311 1.49654C24.4981 1.49573 23.3792 1.74855 22.3567 2.23645C21.3341 2.72434 20.4336 3.43495 19.7214 4.31615C19.0092 5.19735 18.5033 6.22679 18.2408 7.32897C17.9782 8.43116 17.9657 9.57814 18.2042 10.6858L22.2711 29.684V43.6276C21.148 43.1614 19.9156 43.0237 18.7174 43.2306C18.2746 43.3094 17.8424 43.4394 17.4295 43.6179V37.0528C17.429 33.8859 16.5399 30.7827 14.8635 28.096C13.3748 25.7189 12.5861 22.9703 12.588 20.1655V15.0529C12.8448 15.0529 13.0911 14.9508 13.2727 14.7692C13.4543 14.5876 13.5563 14.3414 13.5563 14.0845V11.1796C13.5563 10.666 13.3523 10.1734 12.9891 9.81023C12.6259 9.44704 12.1333 9.243 11.6197 9.243H5.80985C5.29622 9.243 4.80364 9.44704 4.44045 9.81023C4.07727 10.1734 3.87323 10.666 3.87323 11.1796V14.0845C3.87323 14.3414 3.97525 14.5876 4.15684 14.7692C4.33843 14.9508 4.58473 15.0529 4.84154 15.0529V20.1655C4.84345 22.9703 4.05479 25.7189 2.56602 28.096C0.889602 30.7827 0.000577775 33.8859 0 37.0528V59.595C0 60.3654 0.306054 61.1043 0.850832 61.6491C1.39561 62.1939 2.13449 62.4999 2.90492 62.4999H14.5246C15.0107 62.4991 15.4887 62.3764 15.9151 62.1429C16.3414 61.9095 16.7023 61.5728 16.9648 61.1637C18.1366 62.0157 19.5442 62.4827 20.9929 62.4999C21.3566 62.5017 21.7197 62.4693 22.0774 62.4031C22.2668 62.3714 22.4543 62.3294 22.639 62.2772C22.8081 62.4174 23.0198 62.4959 23.2394 62.4999H61.0034C61.2602 62.4999 61.5065 62.3979 61.6881 62.2163C61.8697 62.0347 61.9717 61.7884 61.9717 61.5316V18.9261C61.9702 18.7363 61.913 18.5511 61.8071 18.3935ZM56.1618 10.2113V12.1479H45.5105V10.2113H56.1618ZM35.8274 6.33808C36.0842 6.33808 36.3305 6.23606 36.5121 6.05447C36.6937 5.87288 36.7957 5.62658 36.7957 5.36977C36.7957 4.59934 37.1017 3.86046 37.6465 3.31568C38.1913 2.7709 38.9302 2.46485 39.7006 2.46485C40.4711 2.46485 41.2099 2.7709 41.7547 3.31568C42.2995 3.86046 42.6055 4.59934 42.6055 5.36977C42.6055 5.62658 42.7076 5.87288 42.8891 6.05447C43.0707 6.23606 43.317 6.33808 43.5738 6.33808C44.1732 6.33976 44.7573 6.52678 45.2462 6.8735C45.735 7.22021 46.1047 7.70964 46.3045 8.2747H44.5422C44.2853 8.2747 44.0391 8.37671 43.8575 8.55831C43.6759 8.7399 43.5738 8.98619 43.5738 9.243V12.8257L39.9524 18.2483C39.2385 18.0576 38.5029 17.96 37.764 17.9578C36.955 17.9604 36.1502 18.0745 35.3723 18.2967L33.1839 8.1004C33.4058 7.58168 33.7739 7.13879 34.2434 6.82583C34.7128 6.51288 35.2632 6.34339 35.8274 6.33808ZM44.5422 26.0625L42.1214 28.2606L39.6328 25.956C39.4538 25.7899 39.2186 25.6977 38.9744 25.6977C38.7302 25.6977 38.495 25.7899 38.3159 25.956L35.8274 28.2606L33.3388 25.956C33.1598 25.7899 32.9246 25.6977 32.6804 25.6977C32.4362 25.6977 32.201 25.7899 32.0219 25.956L31.0536 26.9243C31.0252 26.8421 31.0026 26.7579 30.9858 26.6725C30.905 24.8749 31.5415 23.1187 32.7554 21.7903C33.9694 20.462 35.6613 19.6703 37.459 19.5894C39.2567 19.5085 41.0128 20.145 42.3412 21.359C43.6696 22.5729 44.4613 24.2648 44.5422 26.0625ZM20.0924 10.2791C19.9366 9.55237 19.9255 8.80209 20.0597 8.07108C20.1939 7.34007 20.4707 6.64264 20.8745 6.01863C21.6898 4.75837 22.9724 3.87363 24.4401 3.55904C25.9078 3.24444 27.4403 3.52577 28.7006 4.34112C29.9608 5.15647 30.8455 6.43906 31.1601 7.90674L33.5519 19.052C32.1892 19.8043 31.0529 20.9079 30.261 22.2481C29.4692 23.5882 29.0508 25.116 29.0492 26.6725C29.0493 27.0808 29.0785 27.4885 29.1364 27.8926L27.0448 25.956C26.8658 25.7899 26.6306 25.6977 26.3864 25.6977C26.1422 25.6977 25.907 25.7899 25.7279 25.956L23.7913 27.7183L20.0924 10.2791ZM5.80985 11.1796H11.6197V13.1162H5.80985V11.1796ZM1.93662 37.0528C1.93471 34.248 2.72337 31.4994 4.21214 29.1224C5.88855 26.4356 6.77758 23.3324 6.77815 20.1655V15.0529H10.6514V20.1655C10.652 23.3324 11.541 26.4356 13.2174 29.1224C14.7062 31.4994 15.4948 34.248 15.4929 37.0528V37.3239H1.93662V37.0528ZM1.93662 39.2605H15.4929V44.8574C13.8465 46.4533 12.8379 48.5945 12.6558 50.8802H1.93662V39.2605ZM14.5246 60.5633H2.90492C2.64811 60.5633 2.40182 60.4613 2.22023 60.2797C2.03863 60.0981 1.93662 59.8518 1.93662 59.595V52.8169H12.588C12.6082 53.2713 12.6567 53.7241 12.7332 54.1725C13.107 56.2753 14.0631 58.2312 15.4929 59.8177C15.4418 60.0344 15.3176 60.2268 15.1413 60.3626C14.9649 60.4984 14.7471 60.5693 14.5246 60.5633ZM28.4005 59.595C27.8823 59.9839 27.2914 60.2648 26.6626 60.4212C26.0339 60.5775 25.3802 60.6061 24.7403 60.5052C24.3621 60.4363 23.9944 60.3192 23.6461 60.1566C23.5186 60.0976 23.3798 60.0671 23.2394 60.0671C23.0989 60.0671 22.9602 60.0976 22.8327 60.1566C22.4844 60.3192 22.1166 60.4363 21.7385 60.5052C21.0985 60.6061 20.4448 60.5775 19.8161 60.4212C19.1874 60.2648 18.5965 59.9839 18.0783 59.595C16.2343 58.1982 15.0135 56.1323 14.6795 53.8433C13.9436 49.6118 15.8996 45.7095 19.0563 45.1285C19.3021 45.0819 19.5518 45.0592 19.8019 45.0607C20.6739 45.0769 21.5259 45.3242 22.2711 45.7773V47.007C22.2711 47.2638 22.3731 47.5101 22.5547 47.6917C22.7363 47.8733 22.9826 47.9753 23.2394 47.9753C23.4962 47.9753 23.7425 47.8733 23.9241 47.6917C24.1057 47.5101 24.2077 47.2638 24.2077 47.007V45.7966C25.1646 45.1961 26.3065 44.9622 27.4225 45.1382C30.5792 45.6998 32.5351 49.6021 31.7992 53.8529C31.4628 56.1385 30.2423 58.2005 28.4005 59.595ZM47.4471 60.5633H30.279C32.1057 58.8775 33.3129 56.6268 33.7068 54.1725C34.6267 48.8855 31.9638 43.9762 27.7614 43.2306C26.6395 43.0318 25.4846 43.1423 24.4207 43.5502C24.6745 42.7786 25.1645 42.1063 25.8214 41.6284C26.4782 41.1506 27.2687 40.8913 28.0809 40.8873C28.3377 40.8873 28.584 40.7853 28.7656 40.6037C28.9472 40.4221 29.0492 40.1758 29.0492 39.919C29.0492 39.6622 28.9472 39.4159 28.7656 39.2343C28.584 39.0527 28.3377 38.9507 28.0809 38.9507C26.6491 38.9475 25.2677 39.4793 24.2077 40.4419V30.0035L26.3864 27.9894L28.8749 30.294C29.054 30.4601 29.2892 30.5523 29.5334 30.5523C29.7776 30.5523 30.0128 30.4601 30.1918 30.294L32.6804 27.9894L35.1689 30.294C35.348 30.4601 35.5832 30.5523 35.8274 30.5523C36.0716 30.5523 36.3068 30.4601 36.4858 30.294L38.9744 27.9894L41.4629 30.294C41.642 30.4601 41.8772 30.5523 42.1214 30.5523C42.3656 30.5523 42.6008 30.4601 42.7798 30.294L45.2684 27.9894L47.4471 30.0035V60.5633ZM47.4471 27.3697L46.4788 26.4595C46.4456 24.9012 45.9951 23.3803 45.1742 22.0553C44.3533 20.7302 43.1921 19.6497 41.8115 18.9261L44.5422 14.8592L47.4471 19.2166V27.3697ZM46.3529 14.0845H56.6073L59.1927 17.9578H48.9383L46.3529 14.0845ZM49.3837 30.0035L51.5624 27.9894L53.7411 30.0035V55.2957L49.3837 59.3239V30.0035ZM50.8943 60.5633L54.7094 57.0387L58.5245 60.5633H50.8943ZM60.0351 59.3239L55.6777 55.2957V30.0035L57.8564 27.9894L60.0351 30.0035V59.3239ZM60.0351 27.3697L58.5148 25.9657C58.3358 25.7996 58.1006 25.7073 57.8564 25.7073C57.6122 25.7073 57.377 25.7996 57.1979 25.9657L54.7094 28.2606L52.2208 25.9657C52.0418 25.7996 51.8066 25.7073 51.5624 25.7073C51.3182 25.7073 51.083 25.7996 50.9039 25.9657L49.3837 27.3697V19.8944H60.0351V27.3697Z" fill="url(#paint0_linear_503_4693)"/>
<path d="M24.8952 15.7404L28.7684 11.8671C28.8587 11.7769 28.9303 11.6697 28.9792 11.5517C29.028 11.4337 29.0532 11.3073 29.0532 11.1796C29.0532 11.052 29.028 10.9255 28.9792 10.8076C28.9303 10.6896 28.8587 10.5824 28.7684 10.4921C28.6781 10.4019 28.571 10.3302 28.453 10.2814C28.335 10.2325 28.2086 10.2074 28.0809 10.2074C27.9532 10.2074 27.8268 10.2325 27.7089 10.2814C27.5909 10.3302 27.4837 10.4019 27.3934 10.4921L23.5202 14.3654C23.3379 14.5477 23.2354 14.795 23.2354 15.0529C23.2354 15.3107 23.3379 15.558 23.5202 15.7404C23.7025 15.9227 23.9498 16.0251 24.2077 16.0251C24.4656 16.0251 24.7129 15.9227 24.8952 15.7404Z" fill="url(#paint1_linear_503_4693)"/>
<path d="M25.4568 22.5185C25.5468 22.6093 25.6539 22.6813 25.7719 22.7305C25.8899 22.7796 26.0165 22.8049 26.1443 22.8049C26.2721 22.8049 26.3987 22.7796 26.5167 22.7305C26.6347 22.6813 26.7418 22.6093 26.8318 22.5185L30.705 18.6453C30.8874 18.463 30.9898 18.2157 30.9898 17.9578C30.9898 17.6999 30.8874 17.4526 30.705 17.2703C30.5227 17.088 30.2754 16.9855 30.0175 16.9855C29.7597 16.9855 29.5124 17.088 29.33 17.2703L25.4568 21.1435C25.3661 21.2335 25.294 21.3406 25.2449 21.4586C25.1957 21.5766 25.1704 21.7032 25.1704 21.831C25.1704 21.9589 25.1957 22.0854 25.2449 22.2034C25.294 22.3214 25.3661 22.4285 25.4568 22.5185Z" fill="url(#paint2_linear_503_4693)"/>
<defs>
<linearGradient id="paint0_linear_503_4693" x1="33.8497" y1="95.6905" x2="-20.4293" y2="63.7443" gradientUnits="userSpaceOnUse">
<stop stop-color="#723AA9"/>
<stop offset="1" stop-color="#1DE1D3"/>
</linearGradient>
<linearGradient id="paint1_linear_503_4693" x1="33.8497" y1="95.6905" x2="-20.4293" y2="63.7443" gradientUnits="userSpaceOnUse">
<stop stop-color="#723AA9"/>
<stop offset="1" stop-color="#1DE1D3"/>
</linearGradient>
<linearGradient id="paint2_linear_503_4693" x1="33.8497" y1="95.6905" x2="-20.4293" y2="63.7443" gradientUnits="userSpaceOnUse">
<stop stop-color="#723AA9"/>
<stop offset="1" stop-color="#1DE1D3"/>
</linearGradient>
</defs>
</svg>
