<svg width="62" height="63" viewBox="0 0 62 63" fill="none" xmlns="http://www.w3.org/2000/svg">
<path d="M26.8677 9.80006C26.8677 9.22937 27.3303 8.76673 27.901 8.76673C28.4717 8.76673 28.9343 9.22937 28.9343 9.80006C28.9343 10.3708 28.4717 10.8334 27.901 10.8334C27.3303 10.8334 26.8677 10.3708 26.8677 9.80006Z" fill="url(#paint0_linear_503_4697)"/>
<path d="M31.0011 9.80006C31.0011 9.22937 31.4638 8.76673 32.0345 8.76673H42.3678C42.9385 8.76673 43.4011 9.22937 43.4011 9.80006C43.4011 10.3708 42.9385 10.8334 42.3678 10.8334H32.0345C31.4638 10.8334 31.0011 10.3708 31.0011 9.80006Z" fill="url(#paint1_linear_503_4697)"/>
<path fill-rule="evenodd" clip-rule="evenodd" d="M50.2667 1.77116C49.7976 1.30203 49.563 1.06746 49.2893 0.899714C49.0466 0.750991 48.782 0.641394 48.5052 0.574947C48.193 0.5 47.8613 0.5 47.1979 0.5H18.8077C17.2885 0.5 16.529 0.5 15.9487 0.795645C15.4383 1.0557 15.0234 1.47066 14.7633 1.98105C14.4677 2.56129 14.4677 3.32086 14.4677 4.84V9.8C14.4677 10.3707 14.9303 10.8333 15.501 10.8333C16.0717 10.8333 16.5343 10.3707 16.5343 9.8V4.73667C16.5343 3.9771 16.5343 3.59731 16.6822 3.30719C16.8122 3.052 17.0197 2.84452 17.2749 2.71449C17.565 2.56667 17.9448 2.56667 18.7043 2.56667H45.3643C46.1239 2.56667 46.5037 2.56667 46.7938 2.71449C47.049 2.84452 47.2565 3.052 47.3865 3.30719C47.5343 3.59731 47.5343 3.9771 47.5343 4.73667V12.7967C47.5343 13.5562 47.5343 13.936 47.6822 14.2261C47.8122 14.4813 48.0197 14.6888 48.2749 14.8188C48.565 14.9667 48.9448 14.9667 49.7043 14.9667H57.7643C58.5239 14.9667 58.9037 14.9667 59.1938 15.1145C59.449 15.2445 59.6565 15.452 59.7865 15.7072C59.9343 15.9973 59.9343 16.3771 59.9343 17.1367V58.2633C59.9343 59.0229 59.9343 59.4027 59.7865 59.6928C59.6565 59.948 59.449 60.1555 59.1938 60.2855C58.9037 60.4333 58.5239 60.4333 57.7643 60.4333H27.901C27.3303 60.4333 26.8677 60.896 26.8677 61.4667C26.8677 62.0374 27.3303 62.5 27.901 62.5H57.661C59.1802 62.5 59.9397 62.5 60.52 62.2044C61.0303 61.9443 61.4453 61.5293 61.7054 61.0189C62.001 60.4387 62.001 59.6791 62.001 58.16V15.3032C62.001 14.6397 62.001 14.308 61.9261 13.9958C61.8596 13.719 61.75 13.4544 61.6013 13.2117C61.4335 12.938 61.199 12.7034 60.7299 12.2343L50.2667 1.77116ZM49.601 4.02786L58.4731 12.9H49.601V4.02786Z" fill="url(#paint2_linear_503_4697)"/>
<path fill-rule="evenodd" clip-rule="evenodd" d="M11.0115 18.2281C10.5299 18.2281 10.1396 18.6185 10.1396 19.1V23.1972H9.78437C9.30285 23.1972 8.9125 23.5876 8.9125 24.0691C8.9125 24.5506 9.30285 24.941 9.78437 24.941H10.1396V25.6818H9.78437C9.30285 25.6818 8.9125 26.0722 8.9125 26.5537C8.9125 27.0352 9.30285 27.4255 9.78437 27.4255H10.1396V29.6594C10.1396 30.1409 10.5299 30.5312 11.0115 30.5312C11.493 30.5312 11.8833 30.1409 11.8833 29.6594V27.4255H14.0792C14.5607 27.4255 14.951 27.0352 14.951 26.5537C14.951 26.0722 14.5607 25.6818 14.0792 25.6818H11.8833V24.941H14.6927C16.5397 24.941 18.0187 23.4281 18.0187 21.5846C18.0187 19.741 16.5397 18.2281 14.6927 18.2281H11.0115ZM11.8833 23.1972V19.9719H14.6927C15.5565 19.9719 16.275 20.6838 16.275 21.5846C16.275 22.4854 15.5565 23.1972 14.6927 23.1972H11.8833Z" fill="url(#paint3_linear_503_4697)"/>
<path fill-rule="evenodd" clip-rule="evenodd" d="M24.5736 48.1534C24.723 47.7871 24.8002 47.3956 24.8012 47V44.9333C24.7987 44.1684 24.5111 43.4318 23.9954 42.8667C24.5111 42.3016 24.7987 41.5649 24.8012 40.8V38.7333C24.8012 37.0214 23.4132 35.6333 21.7012 35.6333H17.3413C22.731 33.2922 25.7371 27.4903 24.5418 21.7368C23.346 15.9839 18.2773 11.8601 12.4012 11.8601C6.52512 11.8601 1.45633 15.9839 0.260533 21.7368C-0.934763 27.4903 2.07139 33.2922 7.46107 35.6333H3.10119C1.38923 35.6333 0.00119072 37.0214 0.00119072 38.7333V40.8C0.0037135 41.5649 0.291311 42.3016 0.806969 42.8667C0.291311 43.4318 0.0037135 44.1684 0.00119072 44.9333V47C0.00724541 48.3966 0.946226 49.6171 2.29541 49.9799C2.14606 50.3462 2.06887 50.7378 2.06786 51.1333V53.2C2.06887 53.5956 2.14606 53.9871 2.29541 54.3534C0.946226 54.7162 0.00724541 55.9367 0.00119072 57.3333V59.4C0.00119072 61.112 1.38923 62.5 3.10119 62.5H21.7012C23.4132 62.5 24.8012 61.112 24.8012 59.4V57.3333C24.8002 56.9378 24.723 56.5462 24.5736 56.1799C25.9228 55.8171 26.8618 54.5966 26.8679 53.2V51.1333C26.8618 49.7367 25.9228 48.5162 24.5736 48.1534ZM2.06786 24.2667C2.06786 18.5596 6.69414 13.9333 12.4012 13.9333C18.1082 13.9333 22.7345 18.5596 22.7345 24.2667C22.7345 29.9737 18.1082 34.6 12.4012 34.6C6.69667 34.5939 2.07391 29.9712 2.06786 24.2667ZM2.06786 38.7333C2.06786 38.1627 2.53054 37.7 3.10119 37.7H21.7012C22.2718 37.7 22.7345 38.1627 22.7345 38.7333V40.8C22.7345 41.3707 22.2718 41.8333 21.7012 41.8333V39.7667H19.6345V41.8333H17.5679V39.7667H15.5012V41.8333H13.4345V39.7667H11.3679V41.8333H9.30119V39.7667H7.23452V41.8333H5.16786V39.7667H3.10119V41.8333C2.53054 41.8333 2.06786 41.3707 2.06786 40.8V38.7333ZM2.06786 47V44.9333C2.06786 44.3627 2.53054 43.9 3.10119 43.9H21.7012C22.2718 43.9 22.7345 44.3627 22.7345 44.9333V47C22.7345 47.5707 22.2718 48.0333 21.7012 48.0333V45.9667H19.6345V48.0333H17.5679V45.9667H15.5012V48.0333H13.4345V45.9667H11.3679V48.0333H9.30119V45.9667H7.23452V48.0333H5.16786V45.9667H3.10119V48.0333C2.53054 48.0333 2.06786 47.5707 2.06786 47ZM22.7345 59.4C22.7345 59.9707 22.2718 60.4333 21.7012 60.4333V58.3667H19.6345V60.4333H17.5679V58.3667H15.5012V60.4333H13.4345V58.3667H11.3679V60.4333H9.30119V58.3667H7.23452V60.4333H5.16786V58.3667H3.10119V60.4333C2.53054 60.4333 2.06786 59.9707 2.06786 59.4V57.3333C2.06786 56.7627 2.53054 56.3 3.10119 56.3H21.7012C22.2718 56.3 22.7345 56.7627 22.7345 57.3333V59.4ZM24.8012 53.2C24.8012 53.7707 24.3385 54.2333 23.7679 54.2333V52.1667H21.7012V54.2333H19.6345V52.1667H17.5679V54.2333H15.5012V52.1667H13.4345V54.2333H11.3679V52.1667H9.30119V54.2333H7.23452V52.1667H5.16786V54.2333C4.5972 54.2333 4.13452 53.7707 4.13452 53.2V51.1333C4.13452 50.5627 4.5972 50.1 5.16786 50.1H23.7679C24.3385 50.1 24.8012 50.5627 24.8012 51.1333V53.2Z" fill="url(#paint4_linear_503_4697)"/>
<path fill-rule="evenodd" clip-rule="evenodd" d="M52.9077 34.6C53.5587 34.6 53.8843 34.6 54.1329 34.7267C54.3517 34.8382 54.5295 35.016 54.641 35.2347C54.7677 35.4834 54.7677 35.8089 54.7677 36.46V52.1667H55.801C56.3717 52.1667 56.8343 52.6293 56.8343 53.2C56.8343 53.7707 56.3717 54.2333 55.801 54.2333H31.001C30.4303 54.2333 29.9677 53.7707 29.9677 53.2C29.9677 52.6293 30.4303 52.1667 31.001 52.1667H32.0343V44.7267C32.0343 44.0756 32.0343 43.7501 32.161 43.5014C32.2725 43.2827 32.4503 43.1048 32.6691 42.9934C32.9178 42.8667 33.2433 42.8667 33.8943 42.8667H36.3743C37.0254 42.8667 37.3509 42.8667 37.5996 42.9934C37.8183 43.1048 37.9962 43.2827 38.1076 43.5014C38.2343 43.7501 38.2343 44.0756 38.2343 44.7267V52.1667H40.301V40.5933C40.301 39.9423 40.301 39.6167 40.4277 39.3681C40.5392 39.1493 40.717 38.9715 40.9357 38.86C41.1844 38.7333 41.5099 38.7333 42.161 38.7333H44.641C45.2921 38.7333 45.6176 38.7333 45.8663 38.86C46.085 38.9715 46.2629 39.1493 46.3743 39.3681C46.501 39.6167 46.501 39.9423 46.501 40.5933V52.1667H48.5677V36.46C48.5677 35.8089 48.5677 35.4834 48.6944 35.2347C48.8058 35.016 48.9837 34.8382 49.2024 34.7267C49.4511 34.6 49.7766 34.6 50.4277 34.6H52.9077ZM34.721 44.9333C34.504 44.9333 34.3955 44.9333 34.3126 44.9756C34.2397 45.0127 34.1804 45.072 34.1432 45.1449C34.101 45.2278 34.101 45.3363 34.101 45.5533V52.1667H36.1677V45.5533C36.1677 45.3363 36.1677 45.2278 36.1254 45.1449C36.0883 45.072 36.029 45.0127 35.9561 44.9756C35.8732 44.9333 35.7647 44.9333 35.5477 44.9333H34.721ZM52.701 37.2867C52.701 37.0696 52.701 36.9611 52.6588 36.8782C52.6216 36.8053 52.5623 36.7461 52.4894 36.7089C52.4065 36.6667 52.298 36.6667 52.081 36.6667H51.2543C51.0373 36.6667 50.9288 36.6667 50.8459 36.7089C50.773 36.7461 50.7137 36.8053 50.6766 36.8782C50.6343 36.9611 50.6343 37.0696 50.6343 37.2867V52.1667H52.701V37.2867ZM44.4343 41.42C44.4343 41.203 44.4343 41.0945 44.3921 41.0116C44.355 40.9387 44.2957 40.8794 44.2228 40.8422C44.1399 40.8 44.0314 40.8 43.8143 40.8H42.9877C42.7707 40.8 42.6621 40.8 42.5793 40.8422C42.5063 40.8794 42.4471 40.9387 42.4099 41.0116C42.3677 41.0945 42.3677 41.203 42.3677 41.42V52.1667H44.4343V41.42Z" fill="url(#paint5_linear_503_4697)"/>
<path d="M47.5346 24.2667C46.9639 24.2667 46.5013 24.7294 46.5013 25.3001C46.5013 25.8708 46.9639 26.3334 47.5346 26.3334H50.2067L45.5306 31.0095C45.147 31.3932 44.9551 31.585 44.734 31.6568C44.5394 31.7201 44.3298 31.7201 44.1352 31.6568C43.914 31.585 43.7222 31.3932 43.3386 31.0095L41.3973 29.0682C41.0136 28.6846 40.8218 28.4928 40.6006 28.4209C40.4061 28.3577 40.1965 28.3577 40.0019 28.4209C39.7807 28.4928 39.5889 28.6846 39.2052 29.0682L33.0679 35.2055C32.6644 35.609 32.6644 36.2632 33.0679 36.6667C33.4714 37.0702 34.1256 37.0702 34.5291 36.6667L39.2052 31.9906C39.5889 31.607 39.7807 31.4151 40.0019 31.3433C40.1965 31.2801 40.4061 31.2801 40.6006 31.3433C40.8218 31.4151 41.0136 31.607 41.3973 31.9906L43.3386 33.9319C43.7222 34.3156 43.914 34.5074 44.1352 34.5792C44.3298 34.6425 44.5394 34.6425 44.734 34.5792C44.9551 34.5074 45.147 34.3156 45.5306 33.9319L51.6679 27.7946V30.4667C51.6679 31.0374 52.1306 31.5001 52.7013 31.5001C53.272 31.5001 53.7346 31.0374 53.7346 30.4667V25.8167C53.7346 25.2742 53.7346 25.0029 53.629 24.7957C53.5361 24.6134 53.3879 24.4652 53.2056 24.3723C52.9984 24.2667 52.7271 24.2667 52.1846 24.2667H47.5346Z" fill="url(#paint6_linear_503_4697)"/>
<path d="M28.9343 13.9333C28.9343 13.3626 28.4717 12.9 27.901 12.9C27.3303 12.9 26.8677 13.3626 26.8677 13.9333C26.8677 14.504 27.3303 14.9667 27.901 14.9667C28.4717 14.9667 28.9343 14.504 28.9343 13.9333Z" fill="url(#paint7_linear_503_4697)"/>
<path d="M31.0011 13.9333C31.0011 13.3626 31.4638 12.9 32.0345 12.9H42.3678C42.9385 12.9 43.4011 13.3626 43.4011 13.9333C43.4011 14.504 42.9385 14.9667 42.3678 14.9667H32.0345C31.4638 14.9667 31.0011 14.504 31.0011 13.9333Z" fill="url(#paint8_linear_503_4697)"/>
<path d="M28.9343 18.0666C28.9343 17.4959 28.4717 17.0333 27.901 17.0333C27.3303 17.0333 26.8677 17.4959 26.8677 18.0666C26.8677 18.6373 27.3303 19.0999 27.901 19.0999C28.4717 19.0999 28.9343 18.6373 28.9343 18.0666Z" fill="url(#paint9_linear_503_4697)"/>
<path d="M31.0011 18.0666C31.0011 17.4959 31.4638 17.0333 32.0345 17.0333H42.3678C42.9385 17.0333 43.4011 17.4959 43.4011 18.0666C43.4011 18.6373 42.9385 19.0999 42.3678 19.0999H32.0345C31.4638 19.0999 31.0011 18.6373 31.0011 18.0666Z" fill="url(#paint10_linear_503_4697)"/>
<defs>
<linearGradient id="paint0_linear_503_4697" x1="33.8657" y1="95.6905" x2="-20.4258" y2="63.7219" gradientUnits="userSpaceOnUse">
<stop stop-color="#723AA9"/>
<stop offset="1" stop-color="#1DE1D3"/>
</linearGradient>
<linearGradient id="paint1_linear_503_4697" x1="33.8657" y1="95.6905" x2="-20.4258" y2="63.7219" gradientUnits="userSpaceOnUse">
<stop stop-color="#723AA9"/>
<stop offset="1" stop-color="#1DE1D3"/>
</linearGradient>
<linearGradient id="paint2_linear_503_4697" x1="33.8657" y1="95.6905" x2="-20.4258" y2="63.7219" gradientUnits="userSpaceOnUse">
<stop stop-color="#723AA9"/>
<stop offset="1" stop-color="#1DE1D3"/>
</linearGradient>
<linearGradient id="paint3_linear_503_4697" x1="33.8657" y1="95.6905" x2="-20.4258" y2="63.7219" gradientUnits="userSpaceOnUse">
<stop stop-color="#723AA9"/>
<stop offset="1" stop-color="#1DE1D3"/>
</linearGradient>
<linearGradient id="paint4_linear_503_4697" x1="33.8657" y1="95.6905" x2="-20.4258" y2="63.7219" gradientUnits="userSpaceOnUse">
<stop stop-color="#723AA9"/>
<stop offset="1" stop-color="#1DE1D3"/>
</linearGradient>
<linearGradient id="paint5_linear_503_4697" x1="33.8657" y1="95.6905" x2="-20.4258" y2="63.7219" gradientUnits="userSpaceOnUse">
<stop stop-color="#723AA9"/>
<stop offset="1" stop-color="#1DE1D3"/>
</linearGradient>
<linearGradient id="paint6_linear_503_4697" x1="33.8657" y1="95.6905" x2="-20.4258" y2="63.7219" gradientUnits="userSpaceOnUse">
<stop stop-color="#723AA9"/>
<stop offset="1" stop-color="#1DE1D3"/>
</linearGradient>
<linearGradient id="paint7_linear_503_4697" x1="33.8657" y1="95.6905" x2="-20.4258" y2="63.7219" gradientUnits="userSpaceOnUse">
<stop stop-color="#723AA9"/>
<stop offset="1" stop-color="#1DE1D3"/>
</linearGradient>
<linearGradient id="paint8_linear_503_4697" x1="33.8657" y1="95.6905" x2="-20.4258" y2="63.7219" gradientUnits="userSpaceOnUse">
<stop stop-color="#723AA9"/>
<stop offset="1" stop-color="#1DE1D3"/>
</linearGradient>
<linearGradient id="paint9_linear_503_4697" x1="33.8657" y1="95.6905" x2="-20.4258" y2="63.7219" gradientUnits="userSpaceOnUse">
<stop stop-color="#723AA9"/>
<stop offset="1" stop-color="#1DE1D3"/>
</linearGradient>
<linearGradient id="paint10_linear_503_4697" x1="33.8657" y1="95.6905" x2="-20.4258" y2="63.7219" gradientUnits="userSpaceOnUse">
<stop stop-color="#723AA9"/>
<stop offset="1" stop-color="#1DE1D3"/>
</linearGradient>
</defs>
</svg>
