<svg width="63" height="65" viewBox="0 0 63 65" fill="none" xmlns="http://www.w3.org/2000/svg">
<path d="M24.4725 50.4119L24.0389 50.5413C16.5737 52.7303 17.1995 59.5978 21.1017 61.5174C23.9514 62.9196 26.6194 62.5595 24.4061 59.4789C23.2941 57.9368 21.8956 55.2513 26.032 54.0274L31.3155 52.4611M33.3853 33.355V10.0285M33.3853 47.7964V39.74M29.2418 53.0764V61.4264C29.2418 62.5664 30.1755 63.5 31.3154 63.5C32.4552 63.5 33.3853 62.5664 33.3853 61.4264V53.0764M29.2418 39.74V47.7964M29.2418 10.0285V33.355M31.3154 34.2641L39.0848 30.8582C42.3086 29.4456 44.8332 27.1622 40.4799 25.6936C39.2981 25.2951 38.5428 24.5642 38.1232 23.8055C37.4379 22.5536 37.0078 20.2353 37.8645 19.2423C38.5884 18.4066 40.0884 18.5149 41.5359 19.0744C43.2913 19.7562 44.9662 21.099 46.0466 22.6306C48.2075 25.6832 49.4208 30.9841 43.1479 33.7046L36.5568 36.5649M26.2173 36.6279C23.8955 37.6453 22.1158 38.7748 20.85 39.9462C19.5842 41.1176 18.5144 42.1993 18.5143 43.8205C18.5143 45.4417 20.4584 49.2405 25.2313 50.6566L36.5988 54.0274C40.7317 55.2512 39.3331 57.9368 38.2211 59.4788C36.0078 62.5594 38.6757 62.9195 41.5255 61.5175C45.4277 59.5977 46.0536 52.7302 38.5884 50.5412L27.3258 47.2334C22.927 45.9431 20.8045 43.3975 27.2487 40.6036L31.3154 38.8378M29.2418 14.1895C24.4411 13.6965 22.2417 10.3641 21.8955 9.88855C17.1925 3.35671 11.2903 7.00735 2.58713 3.61194C1.42285 3.15736 1.03476 3.07702 1.0032 4.31827C0.873832 9.15079 4.67817 11.1893 11.2237 11.3118M4.7935 10.2032C3.97889 15.4832 7.5104 17.6722 14.0002 17.7911M24.6473 23.8474C26.053 23.6585 27.5915 23.3998 29.2418 23.0501M8.02092 16.7281C7.29002 21.4346 11.9407 23.9104 15.2204 24.2041M51.4034 11.3118C57.9489 11.1893 61.7534 9.15087 61.6239 4.31823C61.5926 3.07698 61.208 3.15744 60.0436 3.6119C57.9281 4.43711 55.9804 4.84629 54.1727 5.08406L49.9069 5.47926C46.3018 5.77641 43.3331 6.27653 40.7317 9.88863C40.389 10.364 38.1862 13.6965 33.3853 14.1895M57.8336 10.2032C58.6519 15.4832 55.1169 17.6722 48.6271 17.7911M37.9519 23.8439C36.5532 23.655 35.0287 23.3963 33.3854 23.0502M54.6063 16.7281C55.337 21.4347 50.6865 23.8859 47.4068 24.2042M31.3154 10.5319C33.8015 10.5319 35.8295 8.50389 35.8295 6.01416C35.8295 3.52804 33.8015 1.5 31.3154 1.5C28.8258 1.5 26.7977 3.52804 26.7977 6.01416C26.7977 8.50389 28.8258 10.5319 31.3154 10.5319ZM16.5806 22.6307C14.4197 25.6831 13.2063 30.9842 19.4828 33.7046L35.3784 40.6037C41.8227 43.3974 39.7002 45.9432 35.3016 47.2335L31.3155 48.4047L38.1548 50.4119C46.3368 47.5971 46.2949 40.8309 36.1755 36.397L23.5424 30.8583C20.322 29.4457 17.7974 27.1623 22.1472 25.6936C23.3325 25.295 24.0844 24.5643 24.5039 23.8055C25.1893 22.5537 25.6193 20.2354 24.7627 19.2424C24.0424 18.4065 22.5389 18.5149 21.0948 19.0744C19.336 19.7563 17.661 21.099 16.5806 22.6307Z" stroke="url(#paint0_linear_503_4700)" stroke-width="1.87123" stroke-miterlimit="10" stroke-linecap="round" stroke-linejoin="round"/>
<defs>
<linearGradient id="paint0_linear_503_4700" x1="34.1153" y1="96.6905" x2="-19.579" y2="65.7741" gradientUnits="userSpaceOnUse">
<stop stop-color="#723AA9"/>
<stop offset="1" stop-color="#1DE1D3"/>
</linearGradient>
</defs>
</svg>
