<svg width="84" height="83" viewBox="0 0 84 83" fill="none" xmlns="http://www.w3.org/2000/svg">
<path d="M9.74194 58.0645V52.9677M2 58.0645V52.9677M2 58.0645H82M2 58.0645V65.7097H82V58.0645M82 58.0645V9.64516H70.3871M2 35.129V9.64516H7.16129M9.74194 35.129V2H57.4839M57.4839 2L74.2581 18.5645M57.4839 2V18.5645H74.2581M74.2581 18.5645V23.6613M70.3871 52.9677H67.8064M65.2258 52.9677H57.4839M70.3871 47.871H60.0645M40.7097 23.6613H76.8387C78.2076 23.6613 79.5204 24.1983 80.4883 25.1541C81.4562 26.1099 82 27.4063 82 28.7581C82 30.1098 81.4562 31.4062 80.4883 32.362C79.5204 33.3179 78.2076 33.8548 76.8387 33.8548H40.7097M40.7097 23.6613L45.871 28.7581M40.7097 23.6613L30.3871 28.7581L40.7097 33.8548M40.7097 33.8548L45.871 28.7581M45.871 28.7581H67.8064M36.8387 32.5806V24.9355M72.9677 33.8548V23.6613M67.8064 33.8548V23.6613M22.6452 38.9516V42.7742M27.8065 38.9516V44.0484M32.9677 38.9516V42.7742M38.129 38.9516V44.0484M17.4839 38.9516V44.0484M12.3226 38.9516V42.7742M7.16129 38.9516V44.0484M74.2581 37.6774V58.0645M35.5484 19.8387C35.5484 18.3266 35.0943 16.8485 34.2436 15.5913C33.3929 14.334 32.1838 13.3541 30.7692 12.7755C29.3545 12.1969 27.7979 12.0455 26.2961 12.3405C24.7943 12.6354 23.4148 13.3636 22.3321 14.4328C21.2493 15.502 20.512 16.8642 20.2133 18.3472C19.9146 19.8302 20.0679 21.3674 20.6538 22.7644C21.2398 24.1614 22.2321 25.3554 23.5053 26.1954C24.7784 27.0355 26.2752 27.4839 27.8065 27.4839M54.9032 75.9032H29.0968L31.6774 65.7097H52.3226L54.9032 75.9032ZM25.2258 75.9032H58.7742C59.4868 75.9032 60.0645 76.4737 60.0645 77.1774V79.7258C60.0645 80.4295 59.4868 81 58.7742 81H25.2258C24.5132 81 23.9355 80.4295 23.9355 79.7258V77.1774C23.9355 76.4737 24.5132 75.9032 25.2258 75.9032ZM43.2903 38.9516V49.1452H2V38.9516H43.2903ZM14.9032 7.09677H27.8065V19.8387H14.9032V7.09677Z" stroke="url(#paint0_linear_43_38220)" stroke-width="3" stroke-linejoin="round"/>
<defs>
<linearGradient id="paint0_linear_43_38220" x1="45.697" y1="123.291" x2="-23.8995" y2="81.7923" gradientUnits="userSpaceOnUse">
<stop stop-color="#723AA9"/>
<stop offset="1" stop-color="#1DE1D3"/>
</linearGradient>
</defs>
</svg>
