<svg width="92" height="80" viewBox="0 0 92 80" fill="none" xmlns="http://www.w3.org/2000/svg">
<path d="M8.90453 36.5129H6.99953C6.13955 36.5129 5.44442 35.8707 5.44442 35.0761C5.44442 34.2816 6.13955 33.6394 6.99953 33.6394H8.90453C9.7645 33.6394 10.4596 34.2816 10.4596 35.0761C10.4596 35.8707 9.7645 36.5129 8.90453 36.5129Z" fill="url(#paint0_linear_43_38230)"/>
<path d="M16.5245 36.5129H14.6195C13.7596 36.5129 13.0644 35.8707 13.0644 35.0761C13.0644 34.2816 13.7596 33.6394 14.6195 33.6394H16.5245C17.3845 33.6394 18.0796 34.2816 18.0796 35.0761C18.0796 35.8707 17.3845 36.5129 16.5245 36.5129Z" fill="url(#paint1_linear_43_38230)"/>
<path d="M24.143 36.5129H22.238C21.378 36.5129 20.6829 35.8707 20.6829 35.0761C20.6829 34.2816 21.378 33.6394 22.238 33.6394H24.143C25.003 33.6394 25.6981 34.2816 25.6981 35.0761C25.6981 35.8707 25.003 36.5129 24.143 36.5129Z" fill="url(#paint2_linear_43_38230)"/>
<path d="M63.5089 36.5129H48.9049C48.045 36.5129 47.3498 35.8707 47.3498 35.0761C47.3498 34.2816 48.045 33.6394 48.9049 33.6394H63.5089C64.3689 33.6394 65.064 34.2816 65.064 35.0761C65.064 35.8707 64.3689 36.5129 63.5089 36.5129Z" fill="url(#paint3_linear_43_38230)"/>
<path d="M19.3657 21.3261H17.4607C16.6007 21.3261 15.9056 20.6839 15.9056 19.8894C15.9056 19.0948 16.6007 18.4526 17.4607 18.4526H19.3657C20.2257 18.4526 20.9208 19.0948 20.9208 19.8894C20.9208 20.6839 20.2257 21.3261 19.3657 21.3261Z" fill="url(#paint4_linear_43_38230)"/>
<path d="M26.9857 21.3261H25.0792C24.2192 21.3261 23.5241 20.6839 23.5241 19.8894C23.5241 19.0948 24.2192 18.4526 25.0792 18.4526H26.9857C27.8457 18.4526 28.5408 19.0948 28.5408 19.8894C28.5408 20.6839 27.8457 21.3261 26.9857 21.3261Z" fill="url(#paint5_linear_43_38230)"/>
<path d="M34.6057 21.3261H32.6992C31.8392 21.3261 31.1441 20.6839 31.1441 19.8894C31.1441 19.0948 31.8392 18.4526 32.6992 18.4526H34.6057C35.4657 18.4526 36.1609 19.0948 36.1609 19.8894C36.1609 20.6839 35.4657 21.3261 34.6057 21.3261Z" fill="url(#paint6_linear_43_38230)"/>
<path d="M73.9701 21.3261H59.3661C58.5062 21.3261 57.811 20.6839 57.811 19.8894C57.811 19.0948 58.5062 18.4526 59.3661 18.4526H73.9701C74.8301 18.4526 75.5252 19.0948 75.5252 19.8894C75.5252 20.6839 74.8301 21.3261 73.9701 21.3261Z" fill="url(#paint7_linear_43_38230)"/>
<path d="M85.9506 0H26.5612C23.2333 0 20.5274 2.51437 20.5274 5.57471V14.6121H16.4997C13.1717 14.6121 10.4659 17.1121 10.4659 20.1868V29.7988H6.04936C2.72143 29.7988 0 32.2989 0 35.3879V74.4253C0 77.4856 2.72143 80 6.04936 80H65.4388C68.7667 80 71.4726 77.4856 71.4726 74.4253V64.7988H75.8891C79.217 64.7988 81.9229 62.2989 81.9229 59.2241V50.2011H85.9506C89.2786 50.2011 92 47.7011 92 44.6121V5.57471C92 2.51437 89.2786 0 85.9506 0ZM23.6376 5.57471C23.6376 4.09483 24.9594 2.87356 26.5612 2.87356H85.9506C87.5679 2.87356 88.8898 4.09483 88.8898 5.57471V8.00287H23.6376V5.57471ZM68.3624 74.4253C68.3624 75.9052 67.0406 77.1264 65.4388 77.1264H6.04936C4.43205 77.1264 3.11021 75.9052 3.11021 74.4253V40.6753H68.3624V74.4253ZM68.3624 37.8017H3.11021V35.3879C3.11021 33.8937 4.43205 32.6724 6.04936 32.6724H65.4388C67.0406 32.6724 68.3624 33.8937 68.3624 35.3879V37.8017ZM78.8127 59.2241C78.8127 60.7184 77.5064 61.9253 75.8891 61.9253H71.4726V35.3879C71.4726 32.2989 68.7667 29.7988 65.4388 29.7988H13.5761V25.4885H78.8127V59.2241ZM78.8127 22.6149H13.5761V20.1868C13.5761 18.7069 14.8979 17.4856 16.4997 17.4856H75.8891C77.5064 17.4856 78.8127 18.7069 78.8127 20.1868V22.6149ZM88.8898 44.6121C88.8898 46.1063 87.5679 47.3276 85.9506 47.3276H81.9229V20.1868C81.9229 17.1121 79.217 14.6121 75.8891 14.6121H23.6376V10.8764H88.8898V44.6121Z" fill="url(#paint8_linear_43_38230)"/>
<path d="M29.4304 6.71552H27.5238C26.6638 6.71552 25.9687 6.07328 25.9687 5.27873C25.9687 4.48419 26.6638 3.84195 27.5238 3.84195H29.4304C30.2903 3.84195 30.9855 4.48419 30.9855 5.27873C30.9855 6.07328 30.2903 6.71552 29.4304 6.71552Z" fill="url(#paint9_linear_43_38230)"/>
<path d="M37.0488 6.71552H35.1423C34.2823 6.71552 33.5872 6.07328 33.5872 5.27873C33.5872 4.48419 34.2823 3.84195 35.1423 3.84195H37.0488C37.9088 3.84195 38.6039 4.48419 38.6039 5.27873C38.6039 6.07328 37.9088 6.71552 37.0488 6.71552Z" fill="url(#paint10_linear_43_38230)"/>
<path d="M44.6688 6.71552H42.7623C41.9023 6.71552 41.2072 6.07328 41.2072 5.27873C41.2072 4.48419 41.9023 3.84195 42.7623 3.84195H44.6688C45.5288 3.84195 46.2239 4.48419 46.2239 5.27873C46.2239 6.07328 45.5288 6.71552 44.6688 6.71552Z" fill="url(#paint11_linear_43_38230)"/>
<path d="M84.0332 6.71552H69.4292C68.5692 6.71552 67.8741 6.07328 67.8741 5.27873C67.8741 4.48419 68.5692 3.84195 69.4292 3.84195H84.0332C84.8932 3.84195 85.5883 4.48419 85.5883 5.27873C85.5883 6.07328 84.8932 6.71552 84.0332 6.71552Z" fill="url(#paint12_linear_43_38230)"/>
<path d="M62.1886 49.2672C61.3333 49.2672 60.6335 49.9138 60.6335 50.704V69.9282H57.1657V51.1207L62.9973 47.8305C63.7437 47.4138 63.9615 46.523 63.526 45.8477C63.0751 45.1724 62.1109 44.9569 61.38 45.3736L35.8918 59.7701L23.3421 54.8276C22.7201 54.5833 22.0047 54.727 21.5693 55.2012L9.87491 67.4138V47.0546C9.87491 46.2644 9.17512 45.6178 8.31981 45.6178C7.44895 45.6178 6.7647 46.2644 6.7647 47.0546V71.3649C6.7647 72.1552 7.44895 72.8017 8.31981 72.8017H62.1886C63.0595 72.8017 63.7437 72.1552 63.7437 71.3649V50.704C63.7437 49.9138 63.0595 49.2672 62.1886 49.2672ZM14.6024 69.9282H11.6322L14.6024 66.8247V69.9282ZM21.1805 69.9282H17.7126V64.0661C17.7126 63.9224 17.6815 63.7787 17.6349 63.6494L21.1805 59.9425V69.9282ZM27.7586 69.9282H24.2907V58.319L27.7586 59.6839V69.9282ZM34.3367 69.9282H30.8688V60.9052L34.3367 62.2701V69.9282ZM40.8993 69.9282H37.4469V62.2558L40.8993 60.3017V69.9282ZM47.4774 69.9282H44.0095V58.5489L47.4774 56.5948V69.9282ZM50.5876 54.842L54.0554 52.8736V69.9282H50.5876V54.842Z" fill="url(#paint13_linear_43_38230)"/>
<defs>
<linearGradient id="paint0_linear_43_38230" x1="50.2515" y1="122.826" x2="-24.1333" y2="72.4569" gradientUnits="userSpaceOnUse">
<stop stop-color="#723AA9"/>
<stop offset="1" stop-color="#1DE1D3"/>
</linearGradient>
<linearGradient id="paint1_linear_43_38230" x1="50.2515" y1="122.826" x2="-24.1333" y2="72.4569" gradientUnits="userSpaceOnUse">
<stop stop-color="#723AA9"/>
<stop offset="1" stop-color="#1DE1D3"/>
</linearGradient>
<linearGradient id="paint2_linear_43_38230" x1="50.2515" y1="122.826" x2="-24.1333" y2="72.4569" gradientUnits="userSpaceOnUse">
<stop stop-color="#723AA9"/>
<stop offset="1" stop-color="#1DE1D3"/>
</linearGradient>
<linearGradient id="paint3_linear_43_38230" x1="50.2515" y1="122.826" x2="-24.1333" y2="72.4569" gradientUnits="userSpaceOnUse">
<stop stop-color="#723AA9"/>
<stop offset="1" stop-color="#1DE1D3"/>
</linearGradient>
<linearGradient id="paint4_linear_43_38230" x1="50.2515" y1="122.826" x2="-24.1333" y2="72.4569" gradientUnits="userSpaceOnUse">
<stop stop-color="#723AA9"/>
<stop offset="1" stop-color="#1DE1D3"/>
</linearGradient>
<linearGradient id="paint5_linear_43_38230" x1="50.2515" y1="122.826" x2="-24.1333" y2="72.4569" gradientUnits="userSpaceOnUse">
<stop stop-color="#723AA9"/>
<stop offset="1" stop-color="#1DE1D3"/>
</linearGradient>
<linearGradient id="paint6_linear_43_38230" x1="50.2515" y1="122.826" x2="-24.1333" y2="72.4569" gradientUnits="userSpaceOnUse">
<stop stop-color="#723AA9"/>
<stop offset="1" stop-color="#1DE1D3"/>
</linearGradient>
<linearGradient id="paint7_linear_43_38230" x1="50.2515" y1="122.826" x2="-24.1333" y2="72.4569" gradientUnits="userSpaceOnUse">
<stop stop-color="#723AA9"/>
<stop offset="1" stop-color="#1DE1D3"/>
</linearGradient>
<linearGradient id="paint8_linear_43_38230" x1="50.2515" y1="122.826" x2="-24.1333" y2="72.4569" gradientUnits="userSpaceOnUse">
<stop stop-color="#723AA9"/>
<stop offset="1" stop-color="#1DE1D3"/>
</linearGradient>
<linearGradient id="paint9_linear_43_38230" x1="50.2515" y1="122.826" x2="-24.1333" y2="72.4569" gradientUnits="userSpaceOnUse">
<stop stop-color="#723AA9"/>
<stop offset="1" stop-color="#1DE1D3"/>
</linearGradient>
<linearGradient id="paint10_linear_43_38230" x1="50.2515" y1="122.826" x2="-24.1333" y2="72.4569" gradientUnits="userSpaceOnUse">
<stop stop-color="#723AA9"/>
<stop offset="1" stop-color="#1DE1D3"/>
</linearGradient>
<linearGradient id="paint11_linear_43_38230" x1="50.2515" y1="122.826" x2="-24.1333" y2="72.4569" gradientUnits="userSpaceOnUse">
<stop stop-color="#723AA9"/>
<stop offset="1" stop-color="#1DE1D3"/>
</linearGradient>
<linearGradient id="paint12_linear_43_38230" x1="50.2515" y1="122.826" x2="-24.1333" y2="72.4569" gradientUnits="userSpaceOnUse">
<stop stop-color="#723AA9"/>
<stop offset="1" stop-color="#1DE1D3"/>
</linearGradient>
<linearGradient id="paint13_linear_43_38230" x1="50.2515" y1="122.826" x2="-24.1333" y2="72.4569" gradientUnits="userSpaceOnUse">
<stop stop-color="#723AA9"/>
<stop offset="1" stop-color="#1DE1D3"/>
</linearGradient>
</defs>
</svg>
