<svg width="84" height="84" viewBox="0 0 84 84" fill="none" xmlns="http://www.w3.org/2000/svg">
<path d="M65.6409 43.697L66.4622 42.892C66.0205 42.4414 65.2983 42.4308 64.8436 42.8682L65.6409 43.697ZM65.8247 43.8845L66.646 43.0795L66.6459 43.0794L65.8247 43.8845ZM82 52.2022H83.15C83.15 51.6354 82.737 51.1531 82.177 51.0659L82 52.2022ZM65.4993 82L64.9228 82.9951C65.2794 83.2016 65.7192 83.2016 66.0757 82.9951L65.4993 82ZM48.8648 52.2021L48.6878 51.0658C48.1278 51.1531 47.7148 51.6354 47.7148 52.2021H48.8648ZM49.3277 52.1301L49.1507 50.9938H49.1507L49.3277 52.1301ZM64.9006 44.4091L64.1034 43.5803L64.1033 43.5804L64.9006 44.4091ZM25.728 50.5264C25.1728 50.8348 24.9728 51.535 25.2813 52.0902C25.5897 52.6454 26.2898 52.8454 26.845 52.5369L25.728 50.5264ZM39.9029 45.2826C40.4581 44.9741 40.6581 44.274 40.3497 43.7188C40.0412 43.1636 39.3411 42.9636 38.7859 43.272L39.9029 45.2826ZM43.1059 26.2865C43.1059 25.6514 42.5911 25.1365 41.9559 25.1365C41.3208 25.1365 40.8059 25.6514 40.8059 26.2865H43.1059ZM73.8858 41.9571C73.8865 42.5922 74.4018 43.1066 75.037 43.1059C75.6721 43.1053 76.1865 42.5899 76.1858 41.9548L73.8858 41.9571ZM47.2367 75.7808C47.8643 75.6833 48.294 75.0955 48.1966 74.4679C48.0991 73.8403 47.5113 73.4106 46.8837 73.508L47.2367 75.7808ZM80.7134 45.2399C80.6605 45.8728 81.1307 46.4287 81.7636 46.4816C82.3965 46.5345 82.9525 46.0643 83.0054 45.4314L80.7134 45.2399ZM82 41.9559L83.15 41.9566V41.9547L82 41.9559ZM52.7112 81.7315C53.3244 81.5662 53.6875 80.935 53.5222 80.3218C53.3569 79.7086 52.7258 79.3455 52.1125 79.5108L52.7112 81.7315ZM63.129 55.7097V54.5597C62.4939 54.5597 61.979 55.0745 61.979 55.7097H63.129ZM61.1936 62.3016C60.5584 62.3016 60.0436 62.8165 60.0436 63.4516C60.0436 64.0867 60.5584 64.6016 61.1936 64.6016V62.3016ZM67.9678 68.4726C68.6029 68.4726 69.1178 67.9577 69.1178 67.3226C69.1178 66.6875 68.6029 66.1726 67.9678 66.1726V68.4726ZM61.1936 66.1726C60.5584 66.1726 60.0436 66.6875 60.0436 67.3226C60.0436 67.9577 60.5584 68.4726 61.1936 68.4726V66.1726ZM64.279 56.1935C64.279 55.5584 63.7642 55.0435 63.129 55.0435C62.4939 55.0435 61.979 55.5584 61.979 56.1935H64.279ZM61.979 72.1613C61.979 72.7964 62.4939 73.3113 63.129 73.3113C63.7642 73.3113 64.279 72.7964 64.279 72.1613H61.979ZM64.8197 44.502L65.0034 44.6895L66.6459 43.0794L66.4622 42.892L64.8197 44.502ZM65.0034 44.6894C69.5316 49.3094 75.431 52.343 81.823 53.3385L82.177 51.0659C76.2747 50.1467 70.8273 47.3455 66.646 43.0795L65.0034 44.6894ZM80.85 52.2022V55.8131H83.15V52.2022H80.85ZM80.85 55.8131C80.85 67.5813 74.5373 75.4354 64.9228 81.0049L66.0757 82.9951C76.1737 77.1455 83.15 68.6336 83.15 55.8131H80.85ZM66.0757 81.0049C56.454 75.4312 50.0148 67.4906 50.0148 55.8131H47.7148C47.7148 68.5559 54.832 77.1497 64.9228 82.9951L66.0757 81.0049ZM50.0148 55.8131V52.2021H47.7148V55.8131H50.0148ZM49.0418 53.3384L49.5047 53.2664L49.1507 50.9938L48.6878 51.0658L49.0418 53.3384ZM49.5047 53.2664C55.599 52.3172 61.2531 49.514 65.6979 45.2379L64.1033 43.5804C59.999 47.5289 54.7781 50.1173 49.1507 50.9938L49.5047 53.2664ZM65.6979 45.2379L66.4382 44.5257L64.8436 42.8682L64.1034 43.5803L65.6979 45.2379ZM26.845 52.5369L39.9029 45.2826L38.7859 43.272L25.728 50.5264L26.845 52.5369ZM44.288 41.9559C44.288 43.2439 43.2439 44.288 41.9559 44.288V46.588C44.5142 46.588 46.588 44.5142 46.588 41.9559H44.288ZM41.9559 44.288C40.668 44.288 39.6239 43.2439 39.6239 41.9559H37.3239C37.3239 44.5142 39.3977 46.588 41.9559 46.588V44.288ZM39.6239 41.9559C39.6239 40.6679 40.668 39.6238 41.9559 39.6238V37.3238C39.3977 37.3238 37.3239 39.3977 37.3239 41.9559H39.6239ZM41.9559 39.6238C43.2439 39.6238 44.288 40.6679 44.288 41.9559H46.588C46.588 39.3977 44.5142 37.3238 41.9559 37.3238V39.6238ZM40.8059 26.2865V38.4738H43.1059V26.2865H40.8059ZM29.4891 19.3391C29.4891 19.6655 29.2245 19.9301 28.8981 19.9301V22.2301C30.4948 22.2301 31.7892 20.9358 31.7892 19.3391H29.4891ZM28.8981 19.9301C28.5717 19.9301 28.3071 19.6655 28.3071 19.3391H26.0071C26.0071 20.9358 27.3014 22.2301 28.8981 22.2301V19.9301ZM28.3071 19.3391C28.3071 19.0127 28.5717 18.748 28.8981 18.748V16.448C27.3014 16.448 26.0071 17.7424 26.0071 19.3391H28.3071ZM28.8981 18.748C29.2245 18.748 29.4891 19.0127 29.4891 19.3391H31.7892C31.7892 17.7424 30.4948 16.448 28.8981 16.448V18.748ZM19.9301 28.8981C19.9301 29.2245 19.6655 29.4891 19.3391 29.4891V31.7891C20.9358 31.7891 22.2301 30.4948 22.2301 28.8981H19.9301ZM19.3391 29.4891C19.0127 29.4891 18.7481 29.2245 18.7481 28.8981H16.4481C16.4481 30.4948 17.7424 31.7891 19.3391 31.7891V29.4891ZM18.7481 28.8981C18.7481 28.5717 19.0127 28.307 19.3391 28.307V26.007C17.7424 26.007 16.4481 27.3014 16.4481 28.8981H18.7481ZM19.3391 28.307C19.6655 28.307 19.9301 28.5717 19.9301 28.8981H22.2301C22.2301 27.3014 20.9358 26.007 19.3391 26.007V28.307ZM16.4313 41.9559C16.4313 42.2823 16.1667 42.547 15.8403 42.547V44.847C17.4369 44.847 18.7313 43.5526 18.7313 41.9559H16.4313ZM15.8403 42.547C15.5138 42.547 15.2492 42.2823 15.2492 41.9559H12.9492C12.9492 43.5526 14.2436 44.847 15.8403 44.847V42.547ZM15.2492 41.9559C15.2492 41.6295 15.5138 41.3649 15.8403 41.3649V39.0649C14.2436 39.0649 12.9492 40.3592 12.9492 41.9559H15.2492ZM15.8403 41.3649C16.1667 41.3649 16.4313 41.6295 16.4313 41.9559H18.7313C18.7313 40.3592 17.4369 39.0649 15.8403 39.0649V41.3649ZM19.9301 55.0138C19.9301 55.3402 19.6655 55.6048 19.3391 55.6048V57.9048C20.9358 57.9048 22.2301 56.6104 22.2301 55.0138H19.9301ZM19.3391 55.6048C19.0127 55.6048 18.7481 55.3402 18.7481 55.0138H16.4481C16.4481 56.6104 17.7424 57.9048 19.3391 57.9048V55.6048ZM18.7481 55.0138C18.7481 54.6873 19.0127 54.4227 19.3391 54.4227V52.1227C17.7424 52.1227 16.4481 53.4171 16.4481 55.0138H18.7481ZM19.3391 54.4227C19.6655 54.4227 19.9301 54.6873 19.9301 55.0138H22.2301C22.2301 53.4171 20.9358 52.1227 19.3391 52.1227V54.4227ZM65.1639 28.8981C65.1639 29.2245 64.8992 29.4891 64.5728 29.4891V31.7891C66.1695 31.7891 67.4639 30.4948 67.4639 28.8981H65.1639ZM64.5728 29.4891C64.2464 29.4891 63.9818 29.2245 63.9818 28.8981H61.6818C61.6818 30.4948 62.9761 31.7891 64.5728 31.7891V29.4891ZM63.9818 28.8981C63.9818 28.5717 64.2464 28.307 64.5728 28.307V26.007C62.9761 26.007 61.6818 27.3014 61.6818 28.8981H63.9818ZM64.5728 28.307C64.8992 28.307 65.1639 28.5717 65.1639 28.8981H67.4639C67.4639 27.3014 66.1695 26.007 64.5728 26.007V28.307ZM29.4891 64.5728C29.4891 64.8992 29.2245 65.1638 28.8981 65.1638V67.4638C30.4948 67.4638 31.7892 66.1694 31.7892 64.5728H29.4891ZM28.8981 65.1638C28.5717 65.1638 28.3071 64.8992 28.3071 64.5728H26.0071C26.0071 66.1694 27.3014 67.4638 28.8981 67.4638V65.1638ZM28.3071 64.5728C28.3071 64.2463 28.5717 63.9817 28.8981 63.9817V61.6817C27.3014 61.6817 26.0071 62.9761 26.0071 64.5728H28.3071ZM28.8981 63.9817C29.2245 63.9817 29.4891 64.2463 29.4891 64.5728H31.7892C31.7892 62.9761 30.4948 61.6817 28.8981 61.6817V63.9817ZM55.6048 19.3391C55.6048 19.6655 55.3402 19.9301 55.0138 19.9301V22.2301C56.6105 22.2301 57.9048 20.9358 57.9048 19.3391H55.6048ZM55.0138 19.9301C54.6874 19.9301 54.4227 19.6655 54.4227 19.3391H52.1227C52.1227 20.9358 53.4171 22.2301 55.0138 22.2301V19.9301ZM54.4227 19.3391C54.4227 19.0127 54.6874 18.748 55.0138 18.748V16.448C53.4171 16.448 52.1227 17.7424 52.1227 19.3391H54.4227ZM55.0138 18.748C55.3402 18.748 55.6048 19.0127 55.6048 19.3391H57.9048C57.9048 17.7424 56.6105 16.448 55.0138 16.448V18.748ZM42.547 15.8402C42.547 16.1667 42.2824 16.4313 41.9559 16.4313V18.7313C43.5526 18.7313 44.847 17.4369 44.847 15.8402H42.547ZM41.9559 16.4313C41.6295 16.4313 41.3649 16.1667 41.3649 15.8402H39.0649C39.0649 17.4369 40.3593 18.7313 41.9559 18.7313V16.4313ZM41.3649 15.8402C41.3649 15.5138 41.6295 15.2492 41.9559 15.2492V12.9492C40.3593 12.9492 39.0649 14.2436 39.0649 15.8402H41.3649ZM41.9559 15.2492C42.2824 15.2492 42.547 15.5138 42.547 15.8402H44.847C44.847 14.2436 43.5526 12.9492 41.9559 12.9492V15.2492ZM76.1858 41.9548C76.1788 34.9682 74.0321 28.1515 70.0344 22.4217L68.1481 23.7378C71.8769 29.0822 73.8793 35.4404 73.8858 41.9571L76.1858 41.9548ZM70.0344 22.4217C66.0367 16.6919 60.3799 12.3241 53.8252 9.90594L53.0292 12.0638C59.143 14.3193 64.4193 18.3934 68.1481 23.7378L70.0344 22.4217ZM53.8252 9.90594C47.2705 7.48776 40.1324 7.13527 33.3714 8.8959L33.951 11.1217C40.2573 9.47946 46.9153 9.80824 53.0292 12.0638L53.8252 9.90594ZM33.3714 8.8959C26.6103 10.6565 20.5507 14.4458 16.008 19.7538L17.7554 21.2493C21.9926 16.2983 27.6446 12.7639 33.951 11.1217L33.3714 8.8959ZM16.008 19.7538C11.4652 25.0618 8.65732 31.6339 7.96202 38.5858L10.2506 38.8147C10.8991 32.3304 13.5182 26.2003 17.7554 21.2493L16.008 19.7538ZM7.96202 38.5858C7.26672 45.5376 8.71742 52.5357 12.1189 58.6382L14.1279 57.5184C10.9552 51.8263 9.60207 45.299 10.2506 38.8147L7.96202 38.5858ZM12.1189 58.6382C15.5204 64.7408 20.7095 69.6551 26.9879 72.7199L27.9969 70.653C22.1407 67.7943 17.3006 63.2106 14.1279 57.5184L12.1189 58.6382ZM26.9879 72.7199C33.2664 75.7847 40.3329 76.8529 47.2367 75.7808L46.8837 73.508C40.4443 74.508 33.853 73.5117 27.9969 70.653L26.9879 72.7199ZM83.0054 45.4314C83.1012 44.2849 83.1494 43.1266 83.15 41.9566L80.85 41.9553C80.8494 43.063 80.8038 44.1579 80.7134 45.2399L83.0054 45.4314ZM83.15 41.9547C83.1405 33.3559 80.4376 24.9761 75.4209 17.9924L73.5529 19.3343C78.2892 25.9276 80.841 33.839 80.85 41.9572L83.15 41.9547ZM75.4209 17.9924C70.4043 11.0087 63.3259 5.77201 55.1801 3.01787L54.4435 5.1967C62.1339 7.7969 68.8167 12.7409 73.5529 19.3343L75.4209 17.9924ZM55.1801 3.01787C47.0344 0.263725 38.2305 0.130538 30.0051 2.63701L30.6755 4.83713C38.4412 2.47075 46.753 2.59649 54.4435 5.1967L55.1801 3.01787ZM30.0051 2.63701C21.7797 5.14349 14.5462 10.1637 9.32059 16.9924L11.1471 18.3902C16.0807 11.9431 22.9099 7.20351 30.6755 4.83713L30.0051 2.63701ZM9.32059 16.9924C4.09497 23.8212 1.13981 32.1154 0.870236 40.7099L3.16911 40.782C3.42361 32.6679 6.2136 24.8373 11.1471 18.3902L9.32059 16.9924ZM0.870236 40.7099C0.600659 49.3045 3.0302 57.7675 7.81759 64.9104L9.72815 63.6298C5.20835 56.8862 2.9146 48.8962 3.16911 40.782L0.870236 40.7099ZM7.81759 64.9104C12.605 72.0532 19.5097 77.5168 27.5618 80.5339L28.3688 78.3801C20.7667 75.5317 14.248 70.3734 9.72815 63.6298L7.81759 64.9104ZM27.5618 80.5339C35.6139 83.5509 44.4088 83.9697 52.7112 81.7315L52.1125 79.5108C44.2742 81.6239 35.9708 81.2285 28.3688 78.3801L27.5618 80.5339ZM63.129 56.8597H68.9355V54.5597H63.129V56.8597ZM68.9355 62.3016H63.129V64.6016H68.9355V62.3016ZM71.6565 59.5806C71.6565 61.0834 70.4382 62.3016 68.9355 62.3016V64.6016C71.7085 64.6016 73.9565 62.3536 73.9565 59.5806H71.6565ZM68.9355 56.8597C70.4382 56.8597 71.6565 58.0779 71.6565 59.5806H73.9565C73.9565 56.8076 71.7085 54.5597 68.9355 54.5597V56.8597ZM63.129 62.3016H61.1936V64.6016H63.129V62.3016ZM67.9678 66.1726H61.1936V68.4726H67.9678V66.1726ZM61.979 56.1935V72.1613H64.279V56.1935H61.979ZM64.279 63.4516V55.7097H61.979V63.4516H64.279Z" fill="url(#paint0_linear_43_38245)"/>
<defs>
<linearGradient id="paint0_linear_43_38245" x1="45.697" y1="124.826" x2="-24.356" y2="83.5776" gradientUnits="userSpaceOnUse">
<stop stop-color="#723AA9"/>
<stop offset="1" stop-color="#1DE1D3"/>
</linearGradient>
</defs>
</svg>
