<svg width="62" height="63" viewBox="0 0 62 63" fill="none" xmlns="http://www.w3.org/2000/svg">
<path d="M46.5 27.3667C45.593 27.366 44.7018 27.6042 43.9161 28.0575C43.1304 28.5107 42.4781 29.163 42.0246 29.9485C41.5712 30.7341 41.3328 31.6253 41.3333 32.5323C41.3338 33.4393 41.5733 34.3302 42.0276 35.1152C41.5733 35.9006 41.3339 36.7918 41.3333 37.6991C41.3328 38.6063 41.5712 39.4978 42.0245 40.2837C42.4778 41.0696 43.1301 41.7223 43.9158 42.1761C44.7014 42.6299 45.5927 42.8688 46.5 42.8688C47.4073 42.8688 48.2986 42.6299 49.0842 42.1761C49.8699 41.7223 50.5222 41.0696 50.9755 40.2837C51.4288 39.4978 51.6672 38.6063 51.6667 37.6991C51.6661 36.7918 51.4267 35.9006 50.9724 35.1152C51.4267 34.3302 51.6662 33.4393 51.6667 32.5323C51.6672 31.6253 51.4288 30.7341 50.9754 29.9485C50.5219 29.163 49.8696 28.5107 49.0839 28.0575C48.2982 27.6042 47.407 27.366 46.5 27.3667ZM46.5 29.4333C47.1131 29.4333 47.7125 29.6151 48.2223 29.9558C48.7321 30.2964 49.1294 30.7806 49.364 31.347C49.5987 31.9135 49.66 32.5368 49.5404 33.1381C49.4208 33.7395 49.1256 34.2918 48.692 34.7254C48.2585 35.1589 47.7061 35.4542 47.1048 35.5738C46.5034 35.6934 45.8801 35.632 45.3137 35.3974C44.7472 35.1627 44.2631 34.7654 43.9224 34.2556C43.5818 33.7458 43.4 33.1465 43.4 32.5333C43.401 31.7115 43.7279 30.9235 44.309 30.3424C44.8902 29.7612 45.6781 29.4343 46.5 29.4333ZM46.5 40.8C46.013 40.8001 45.5328 40.6855 45.0983 40.4654C44.6639 40.2452 44.2875 39.9258 43.9995 39.533C43.7116 39.1402 43.5203 38.6851 43.4412 38.2045C43.3621 37.724 43.3973 37.2315 43.544 36.7672C44.4102 37.3743 45.4423 37.7 46.5 37.7C47.5577 37.7 48.5898 37.3743 49.456 36.7672C49.6027 37.2315 49.6379 37.724 49.5588 38.2045C49.4796 38.6851 49.2884 39.1402 49.0004 39.533C48.7125 39.9258 48.3361 40.2452 47.9017 40.4654C47.4672 40.6855 46.987 40.8001 46.5 40.8Z" fill="url(#paint0_linear_503_4690)"/>
<path d="M35.1333 29.4333H37.2V35.6333H35.1333V29.4333Z" fill="url(#paint1_linear_503_4690)"/>
<path d="M35.1333 37.7H37.2V41.8333H35.1333V37.7Z" fill="url(#paint2_linear_503_4690)"/>
<path d="M35.1333 45.9667H37.2V52.1667H35.1333V45.9667Z" fill="url(#paint3_linear_503_4690)"/>
<path d="M35.1333 54.2333H37.2V58.3667H35.1333V54.2333Z" fill="url(#paint4_linear_503_4690)"/>
<path d="M50.6333 50.1H46.5C46.2259 50.1 45.9631 50.2089 45.7693 50.4027C45.5755 50.5964 45.4667 50.8593 45.4667 51.1333V57.3333C45.4667 57.6074 45.5755 57.8702 45.7693 58.064C45.9631 58.2578 46.2259 58.3667 46.5 58.3667H50.6333C50.9074 58.3667 51.1702 58.2578 51.364 58.064C51.5578 57.8702 51.6667 57.6074 51.6667 57.3333V51.1333C51.6667 50.8593 51.5578 50.5964 51.364 50.4027C51.1702 50.2089 50.9074 50.1 50.6333 50.1ZM49.6 56.3H47.5333V52.1667H49.6V56.3Z" fill="url(#paint5_linear_503_4690)"/>
<path d="M56.8333 0.5H5.16667C3.79685 0.501538 2.48359 1.04638 1.51498 2.01498C0.546376 2.98359 0.00153844 4.29685 0 5.66667V40.8C0.00153844 42.1698 0.546376 43.4831 1.51498 44.4517C2.48359 45.4203 3.79685 45.9651 5.16667 45.9667H22.7333V52.1667H17.5667C17.2926 52.1667 17.0298 52.2755 16.836 52.4693C16.6422 52.6631 16.5333 52.9259 16.5333 53.2V57.3333C16.5333 57.6074 16.6422 57.8702 16.836 58.064C17.0298 58.2578 17.2926 58.3667 17.5667 58.3667H29.0373C29.277 59.5328 29.9115 60.5807 30.8337 61.3336C31.7559 62.0865 32.9095 62.4984 34.1 62.5H52.7C54.0698 62.4985 55.3831 61.9536 56.3517 60.985C57.3203 60.0164 57.8651 58.7031 57.8667 57.3333V45.8633C59.0329 45.6236 60.0809 44.9891 60.8338 44.0667C61.5867 43.1444 61.9986 41.9906 62 40.8V5.66667C61.9985 4.29685 61.4536 2.98359 60.485 2.01498C59.5164 1.04638 58.2031 0.501538 56.8333 0.5ZM5.16667 2.56667H56.8333C57.6552 2.56762 58.4431 2.89454 59.0243 3.47569C59.6055 4.05685 59.9324 4.84479 59.9333 5.66667V8.76667H2.06667V5.66667C2.06762 4.84479 2.39454 4.05685 2.97569 3.47569C3.55685 2.89454 4.34479 2.56762 5.16667 2.56667ZM2.06667 40.8V39.7667H28.9333V43.9H5.16667C4.34479 43.899 3.55685 43.5721 2.97569 42.991C2.39454 42.4098 2.06762 41.6219 2.06667 40.8ZM24.8 45.9667H28.9333V52.1667H24.8V45.9667ZM18.6 54.2333H28.9333V56.3H18.6V54.2333ZM55.8 57.3333C55.7991 58.1552 55.4722 58.9432 54.891 59.5243C54.3098 60.1055 53.5219 60.4324 52.7 60.4333H34.1C33.2781 60.4324 32.4902 60.1055 31.909 59.5243C31.3278 58.9432 31.0009 58.1552 31 57.3333V28.4C31.0009 27.5781 31.3278 26.7901 31.909 26.209C32.4902 25.6278 33.2781 25.3009 34.1 25.3H52.7C53.5219 25.3009 54.3098 25.6278 54.891 26.209C55.4722 26.7901 55.7991 27.5781 55.8 28.4V57.3333ZM52.7 23.2333H34.1C32.7302 23.2349 31.4169 23.7797 30.4483 24.7483C29.4797 25.7169 28.9349 27.0302 28.9333 28.4V37.7H2.06667V10.8333H59.9333V37.7H57.8667V28.4C57.8651 27.0302 57.3203 25.7169 56.3517 24.7483C55.3831 23.7797 54.0698 23.2349 52.7 23.2333ZM57.8667 43.7223V39.7667H59.9333V40.8C59.9325 41.4408 59.7334 42.0657 59.3634 42.5889C58.9934 43.1121 58.4706 43.508 57.8667 43.7223Z" fill="url(#paint6_linear_503_4690)"/>
<path d="M19.3307 15.2693C19.2347 15.1734 19.1208 15.0972 18.9954 15.0453C18.8701 14.9934 18.7357 14.9667 18.6 14.9667H12.4C12.2643 14.9667 12.1299 14.9934 12.0046 15.0453C11.8792 15.0972 11.7653 15.1734 11.6693 15.2693L7.83861 19.1H4.13333V21.1667H5.32464L7.24741 32.7032C7.28762 32.9445 7.41212 33.1637 7.59875 33.3218C7.78539 33.4799 8.02206 33.5667 8.26667 33.5667H22.7333C22.9779 33.5667 23.2146 33.4799 23.4012 33.3218C23.5879 33.1637 23.7124 32.9445 23.7526 32.7032L25.6754 21.1667H26.8667V19.1H23.1614L19.3307 15.2693ZM12.8281 17.0333H18.1719L20.2386 19.1H10.7614L12.8281 17.0333ZM21.858 31.5H9.14203L7.41985 21.1667H23.5801L21.858 31.5Z" fill="url(#paint7_linear_503_4690)"/>
<path d="M14.4667 23.2333H16.5333V29.4333H14.4667V23.2333Z" fill="url(#paint8_linear_503_4690)"/>
<path d="M10.3333 23.2333H12.4V29.4333H10.3333V23.2333Z" fill="url(#paint9_linear_503_4690)"/>
<path d="M18.6 23.2333H20.6667V29.4333H18.6V23.2333Z" fill="url(#paint10_linear_503_4690)"/>
<path d="M6.2 4.63333H8.26667V6.7H6.2V4.63333Z" fill="url(#paint11_linear_503_4690)"/>
<path d="M10.3333 4.63333H12.4V6.7H10.3333V4.63333Z" fill="url(#paint12_linear_503_4690)"/>
<path d="M14.4667 4.63333H16.5333V6.7H14.4667V4.63333Z" fill="url(#paint13_linear_503_4690)"/>
<defs>
<linearGradient id="paint0_linear_503_4690" x1="33.8651" y1="95.6905" x2="-20.4259" y2="63.7226" gradientUnits="userSpaceOnUse">
<stop stop-color="#723AA9"/>
<stop offset="1" stop-color="#1DE1D3"/>
</linearGradient>
<linearGradient id="paint1_linear_503_4690" x1="33.8651" y1="95.6905" x2="-20.4259" y2="63.7226" gradientUnits="userSpaceOnUse">
<stop stop-color="#723AA9"/>
<stop offset="1" stop-color="#1DE1D3"/>
</linearGradient>
<linearGradient id="paint2_linear_503_4690" x1="33.8651" y1="95.6905" x2="-20.4259" y2="63.7226" gradientUnits="userSpaceOnUse">
<stop stop-color="#723AA9"/>
<stop offset="1" stop-color="#1DE1D3"/>
</linearGradient>
<linearGradient id="paint3_linear_503_4690" x1="33.8651" y1="95.6905" x2="-20.4259" y2="63.7226" gradientUnits="userSpaceOnUse">
<stop stop-color="#723AA9"/>
<stop offset="1" stop-color="#1DE1D3"/>
</linearGradient>
<linearGradient id="paint4_linear_503_4690" x1="33.8651" y1="95.6905" x2="-20.4259" y2="63.7226" gradientUnits="userSpaceOnUse">
<stop stop-color="#723AA9"/>
<stop offset="1" stop-color="#1DE1D3"/>
</linearGradient>
<linearGradient id="paint5_linear_503_4690" x1="33.8651" y1="95.6905" x2="-20.4259" y2="63.7226" gradientUnits="userSpaceOnUse">
<stop stop-color="#723AA9"/>
<stop offset="1" stop-color="#1DE1D3"/>
</linearGradient>
<linearGradient id="paint6_linear_503_4690" x1="33.8651" y1="95.6905" x2="-20.4259" y2="63.7226" gradientUnits="userSpaceOnUse">
<stop stop-color="#723AA9"/>
<stop offset="1" stop-color="#1DE1D3"/>
</linearGradient>
<linearGradient id="paint7_linear_503_4690" x1="33.8651" y1="95.6905" x2="-20.4259" y2="63.7226" gradientUnits="userSpaceOnUse">
<stop stop-color="#723AA9"/>
<stop offset="1" stop-color="#1DE1D3"/>
</linearGradient>
<linearGradient id="paint8_linear_503_4690" x1="33.8651" y1="95.6905" x2="-20.4259" y2="63.7226" gradientUnits="userSpaceOnUse">
<stop stop-color="#723AA9"/>
<stop offset="1" stop-color="#1DE1D3"/>
</linearGradient>
<linearGradient id="paint9_linear_503_4690" x1="33.8651" y1="95.6905" x2="-20.4259" y2="63.7226" gradientUnits="userSpaceOnUse">
<stop stop-color="#723AA9"/>
<stop offset="1" stop-color="#1DE1D3"/>
</linearGradient>
<linearGradient id="paint10_linear_503_4690" x1="33.8651" y1="95.6905" x2="-20.4259" y2="63.7226" gradientUnits="userSpaceOnUse">
<stop stop-color="#723AA9"/>
<stop offset="1" stop-color="#1DE1D3"/>
</linearGradient>
<linearGradient id="paint11_linear_503_4690" x1="33.8651" y1="95.6905" x2="-20.4259" y2="63.7226" gradientUnits="userSpaceOnUse">
<stop stop-color="#723AA9"/>
<stop offset="1" stop-color="#1DE1D3"/>
</linearGradient>
<linearGradient id="paint12_linear_503_4690" x1="33.8651" y1="95.6905" x2="-20.4259" y2="63.7226" gradientUnits="userSpaceOnUse">
<stop stop-color="#723AA9"/>
<stop offset="1" stop-color="#1DE1D3"/>
</linearGradient>
<linearGradient id="paint13_linear_503_4690" x1="33.8651" y1="95.6905" x2="-20.4259" y2="63.7226" gradientUnits="userSpaceOnUse">
<stop stop-color="#723AA9"/>
<stop offset="1" stop-color="#1DE1D3"/>
</linearGradient>
</defs>
</svg>
