<svg xmlns="http://www.w3.org/2000/svg">
  <symbol id="arrowDropDown1" width="10" height="5" viewBox="0 0 10 5" fill="none" xmlns="http://www.w3.org/2000/svg">
    <path d="M1 0.5L5 4.5L9 0.5" stroke="currentColor" stroke-linecap="round" stroke-linejoin="round" />
  </symbol>

  <symbol id="search" width="16" height="16" viewBox="0 0 16 16" fill="none" xmlns="http://www.w3.org/2000/svg">
    <path d="M14 14L11.1 11.1M12.6667 7.33333C12.6667 10.2789 10.2789 12.6667 7.33333 12.6667C4.38781 12.6667 2 10.2789 2 7.33333C2 4.38781 4.38781 2 7.33333 2C10.2789 2 12.6667 4.38781 12.6667 7.33333Z" stroke="currentColor" stroke-width="1.5" stroke-linecap="round" stroke-linejoin="round" />
  </symbol>

  <symbol id="phone" width="16" height="16" viewBox="0 0 16 16" fill="none" xmlns="http://www.w3.org/2000/svg">
    <path d="M5.58685 5.90223C6.05085 6.86865 6.68337 7.77441 7.48443 8.57546C8.28548 9.37651 9.19124 10.009 10.1577 10.473C10.2408 10.5129 10.2823 10.5329 10.3349 10.5482C10.5218 10.6027 10.7513 10.5636 10.9096 10.4502C10.9542 10.4183 10.9923 10.3802 11.0685 10.304C11.3016 10.071 11.4181 9.95443 11.5353 9.87824C11.9772 9.59091 12.5469 9.59091 12.9889 9.87824C13.106 9.95443 13.2226 10.071 13.4556 10.304L13.5856 10.4339C13.9398 10.7882 14.117 10.9654 14.2132 11.1556C14.4046 11.534 14.4046 11.9809 14.2132 12.3592C14.117 12.5495 13.9399 12.7266 13.5856 13.0809L13.4805 13.186C13.1274 13.5391 12.9508 13.7156 12.7108 13.8505C12.4445 14.0001 12.0308 14.1077 11.7253 14.1068C11.45 14.1059 11.2619 14.0525 10.8856 13.9457C8.86333 13.3718 6.95509 12.2888 5.36311 10.6968C3.77112 9.10479 2.68814 7.19655 2.11416 5.17429C2.00735 4.79799 1.95395 4.60984 1.95313 4.33455C1.95222 4.02906 2.0598 3.6154 2.20941 3.34907C2.34424 3.10904 2.52078 2.9325 2.87386 2.57942L2.97895 2.47433C3.33325 2.12004 3.5104 1.94289 3.70065 1.84666C4.07903 1.65528 4.52587 1.65528 4.90424 1.84666C5.0945 1.94289 5.27164 2.12004 5.62594 2.47433L5.75585 2.60424C5.98892 2.83732 6.10546 2.95385 6.18165 3.07104C6.46898 3.51296 6.46898 4.08268 6.18165 4.52461C6.10546 4.6418 5.98892 4.75833 5.75585 4.9914C5.67964 5.06761 5.64154 5.10571 5.60965 5.15026C5.4963 5.30854 5.45717 5.53805 5.51165 5.72495C5.52698 5.77754 5.54694 5.81911 5.58685 5.90223Z" stroke="currentColor" stroke-width="1.5" stroke-linecap="round" stroke-linejoin="round" />
  </symbol>

  <symbol id="demo" width="18" height="18" viewBox="0 0 18 18" fill="none" xmlns="http://www.w3.org/2000/svg">
    <path d="M5.66602 8.72739L8.99935 12.0607M8.99935 12.0607L12.3327 8.72739M8.99935 12.0607V4.39405C8.99935 3.23513 8.99935 2.65567 8.54058 2.00688C8.23577 1.57582 7.35817 1.04379 6.835 0.972904C6.04759 0.866222 5.74857 1.0222 5.15054 1.33417C2.48546 2.72441 0.666016 5.51342 0.666016 8.72739C0.666016 13.3298 4.39698 17.0607 8.99935 17.0607C13.6017 17.0607 17.3327 13.3298 17.3327 8.72739C17.3327 5.64288 15.6569 2.94978 13.166 1.50891" stroke="currentColor" stroke-linecap="round" stroke-linejoin="round" />
  </symbol>

  <symbol id="arrowBtn1" width="24" height="24" viewBox="0 0 24 24" fill="none" xmlns="http://www.w3.org/2000/svg">
    <path d="M6.77476 17.2621L16.2618 7.77505M16.2618 7.77505H6.77476M16.2618 7.77505V17.2621" stroke="currentColor" stroke-width="1.5" stroke-linecap="round" stroke-linejoin="round" />
  </symbol>

  <symbol id="arrowDropDown2" width="18" height="18" viewBox="0 0 18 18" fill="none" xmlns="http://www.w3.org/2000/svg">
    <path d="M4.5 6.75L9 11.25L13.5 6.75" stroke="#3491F7" stroke-width="1.5" stroke-linecap="round" stroke-linejoin="round" />
  </symbol>

  <symbol id="arrowBtnSwiper1" width="16" height="16" viewBox="0 0 16 16" fill="none" xmlns="http://www.w3.org/2000/svg">
    <path d="M12.668 7.99935L3.33464 7.99935M3.33464 7.99935L8.0013 12.666M3.33464 7.99935L8.0013 3.33268" stroke="currentColor" stroke-linecap="round" stroke-linejoin="round" />
  </symbol>

  <symbol id="arrowBtnSwiper2" width="16" height="16" viewBox="0 0 16 16" fill="none" xmlns="http://www.w3.org/2000/svg">
    <path d="M3.33203 8.00065H12.6654M12.6654 8.00065L7.9987 3.33398M12.6654 8.00065L7.9987 12.6673" stroke="currentColor" stroke-linecap="round" stroke-linejoin="round" />
  </symbol>

  <symbol id="arrowBtn2" width="7" height="11" viewBox="0 0 7 11" fill="none" xmlns="http://www.w3.org/2000/svg">
    <path d="M0.820312 10L5.32031 5.5L0.820312 1" stroke="currentColor" stroke-width="1.5" stroke-linecap="round" stroke-linejoin="round" />
  </symbol>

  <symbol id="arrowBtn22" width="19" height="19" viewBox="0 0 19 19" fill="none" xmlns="http://www.w3.org/2000/svg">
    <path d="M6.82031 16L11.3203 11.5L6.82031 7" stroke="#1DE1D3" stroke-width="1.5" stroke-linecap="round" stroke-linejoin="round" />
  </symbol>

  <symbol id="orderDemo" width="19" height="19" viewBox="0 0 19 19" fill="none" xmlns="http://www.w3.org/2000/svg">
    <path d="M16.3203 11.75V12.65C16.3203 13.9101 16.3203 14.5402 16.0751 15.0215C15.8594 15.4448 15.5152 15.789 15.0918 16.0048C14.6105 16.25 13.9804 16.25 12.7203 16.25H6.42031C5.16019 16.25 4.53014 16.25 4.04883 16.0048C3.62547 15.789 3.28126 15.4448 3.06555 15.0215C2.82031 14.5402 2.82031 13.9101 2.82031 12.65V11.75M13.3203 8L9.57031 11.75M9.57031 11.75L5.82031 8M9.57031 11.75V2.75" stroke="currentColor" stroke-width="1.5" stroke-linecap="round" stroke-linejoin="round" />
  </symbol>

  <symbol id="ring" width="15" height="16" viewBox="0 0 15 16" fill="none" xmlns="http://www.w3.org/2000/svg">
    <circle cx="7.33398" cy="8" r="5.66667" fill="white" stroke="url(#paint0_linear_466_504)" stroke-width="3.33333" />
    <defs>
      <linearGradient id="paint0_linear_466_504" x1="11.334" y1="8" x2="3.33398" y2="8" gradientUnits="userSpaceOnUse">
        <stop stop-color="#723AA9" />
        <stop offset="1" stop-color="#1DE1D3" />
      </linearGradient>
    </defs>
  </symbol>

  <symbol id="arrowColor" width="25" height="24" viewBox="0 0 25 24" fill="none" xmlns="http://www.w3.org/2000/svg">
    <path d="M5 10L13 18L21 10" stroke="url(#paint0_linear_466_506)" stroke-width="3" stroke-linecap="round" stroke-linejoin="round" />
    <defs>
      <linearGradient id="paint0_linear_466_506" x1="5" y1="14.001" x2="27" y2="14" gradientUnits="userSpaceOnUse">
        <stop stop-color="#723AA9" />
        <stop offset="1" stop-color="#1DE1D3" />
      </linearGradient>
    </defs>
  </symbol>

  <symbol id="news" width="22" height="18" viewBox="0 0 22 18" fill="none" xmlns="http://www.w3.org/2000/svg">
    <path d="M17.6923 2H3.30769C2.96087 2 2.62825 2.13743 2.38301 2.38204C2.13777 2.62666 2 2.95844 2 3.30438V16.3482C2.00006 16.4593 2.0286 16.5686 2.08292 16.6657C2.13723 16.7627 2.21551 16.8443 2.31034 16.9027C2.40516 16.9611 2.51337 16.9944 2.6247 16.9994C2.73603 17.0043 2.84678 16.9808 2.94644 16.9311L5.26923 15.7726L7.59202 16.9311C7.68286 16.9764 7.78304 17 7.88462 17C7.98619 17 8.08637 16.9764 8.17721 16.9311L10.5 15.7726L12.8228 16.9311C12.9136 16.9764 13.0138 17 13.1154 17C13.217 17 13.3171 16.9764 13.408 16.9311L15.7308 15.7726L18.0536 16.9311C18.1532 16.9808 18.264 17.0043 18.3753 16.9994C18.4866 16.9944 18.5948 16.9611 18.6897 16.9027C18.7845 16.8443 18.8628 16.7627 18.9171 16.6657C18.9714 16.5686 18.9999 16.4593 19 16.3482V3.30438C19 2.95844 18.8622 2.62666 18.617 2.38204C18.3717 2.13743 18.0391 2 17.6923 2ZM17.6923 15.2932L16.0234 14.4601C15.9325 14.4147 15.8323 14.3911 15.7308 14.3911C15.6292 14.3911 15.529 14.4147 15.4382 14.4601L13.1154 15.6193L10.7926 14.4601C10.7018 14.4147 10.6016 14.3911 10.5 14.3911C10.3984 14.3911 10.2982 14.4147 10.2074 14.4601L7.88462 15.6193L5.56183 14.4601C5.47099 14.4147 5.37081 14.3911 5.26923 14.3911C5.16765 14.3911 5.06747 14.4147 4.97663 14.4601L3.30769 15.2932V3.30438H17.6923V15.2932ZM11.1538 7.8697C11.1538 7.69673 11.2227 7.53084 11.3454 7.40853C11.468 7.28623 11.6343 7.21751 11.8077 7.21751H15.7308C15.9042 7.21751 16.0705 7.28623 16.1931 7.40853C16.3157 7.53084 16.3846 7.69673 16.3846 7.8697C16.3846 8.04267 16.3157 8.20856 16.1931 8.33087C16.0705 8.45318 15.9042 8.52189 15.7308 8.52189H11.8077C11.6343 8.52189 11.468 8.45318 11.3454 8.33087C11.2227 8.20856 11.1538 8.04267 11.1538 7.8697ZM11.1538 10.4785C11.1538 10.3055 11.2227 10.1396 11.3454 10.0173C11.468 9.89498 11.6343 9.82627 11.8077 9.82627H15.7308C15.9042 9.82627 16.0705 9.89498 16.1931 10.0173C16.3157 10.1396 16.3846 10.3055 16.3846 10.4785C16.3846 10.6514 16.3157 10.8173 16.1931 10.9396C16.0705 11.0619 15.9042 11.1306 15.7308 11.1306H11.8077C11.6343 11.1306 11.468 11.0619 11.3454 10.9396C11.2227 10.8173 11.1538 10.6514 11.1538 10.4785ZM5.26923 12.435H9.19231C9.36572 12.435 9.53203 12.3663 9.65465 12.244C9.77727 12.1217 9.84615 11.9558 9.84615 11.7828V6.56532C9.84615 6.39235 9.77727 6.22647 9.65465 6.10416C9.53203 5.98185 9.36572 5.91313 9.19231 5.91313H5.26923C5.09582 5.91313 4.92951 5.98185 4.80689 6.10416C4.68427 6.22647 4.61538 6.39235 4.61538 6.56532V11.7828C4.61538 11.9558 4.68427 12.1217 4.80689 12.244C4.92951 12.3663 5.09582 12.435 5.26923 12.435ZM5.92308 7.21751H8.53846V11.1306H5.92308V7.21751Z" fill="#1DE1D3" />
  </symbol>

  <symbol id="newsFoll" width="19" height="18" viewBox="0 0 19 18" fill="none" xmlns="http://www.w3.org/2000/svg">
    <path d="M15.821 8.625V6.6C15.821 5.33988 15.821 4.70982 15.5758 4.22852C15.3601 3.80516 15.0159 3.46095 14.5925 3.24524C14.1112 3 13.4812 3 12.221 3H5.92105C4.66093 3 4.03087 3 3.54957 3.24524C3.1262 3.46095 2.782 3.80516 2.56628 4.22852C2.32104 4.70982 2.32104 5.33988 2.32104 6.6V12.9C2.32104 14.1601 2.32104 14.7902 2.56628 15.2715C2.782 15.6948 3.1262 16.039 3.54957 16.2548C4.03087 16.5 4.66093 16.5 5.92104 16.5H9.44604M15.821 7.5H2.32104M12.071 1.5V4.5M6.07104 1.5V4.5M13.571 15.75V11.25M11.321 13.5H15.821" stroke="#1DE1D3" stroke-width="1.5" stroke-linecap="round" stroke-linejoin="round" />
  </symbol>

  <symbol id="arrowDropDown2" width="12" height="6" viewBox="0 0 12 6" fill="none" xmlns="http://www.w3.org/2000/svg">
    <path d="M1.5 0.75L6 5.25L10.5 0.75" stroke="currentColor" stroke-width="1.5" stroke-linecap="round" stroke-linejoin="round" />
  </symbol>

  <symbol id="arrowSubmit" width="24" height="23" viewBox="0 0 24 23" fill="none" xmlns="http://www.w3.org/2000/svg">
    <path d="M6.82627 17.2435L16.3133 7.75649M16.3133 7.75649H6.82627M16.3133 7.75649V17.2435" stroke="#1DE1D3" stroke-width="1.5" stroke-linecap="round" stroke-linejoin="round" />
  </symbol>

  <symbol id="tg" width="25" height="26" viewBox="0 0 25 26" fill="none" xmlns="http://www.w3.org/2000/svg">
    <path d="M22.3522 3.05744C22.2311 2.95291 22.0839 2.8834 21.9263 2.85638C21.7686 2.82937 21.6066 2.84587 21.4577 2.90412L1.66664 10.6492C1.38616 10.7583 1.1487 10.9555 0.990008 11.2112C0.831317 11.4669 0.759987 11.7673 0.786756 12.067C0.813525 12.3668 0.936945 12.6497 1.13843 12.8733C1.33992 13.0968 1.60858 13.2488 1.90395 13.3065L7.03188 14.3133V20.0311C7.03087 20.3425 7.12342 20.6471 7.29754 20.9053C7.47167 21.1635 7.71933 21.3635 8.00844 21.4793C8.29711 21.5972 8.61456 21.6255 8.91952 21.5605C9.22448 21.4956 9.50284 21.3403 9.7184 21.1151L12.1911 18.5506L16.1139 21.9842C16.3969 22.2352 16.762 22.3742 17.1403 22.3748C17.3061 22.3747 17.4708 22.3487 17.6286 22.2977C17.8863 22.2159 18.1182 22.068 18.301 21.8687C18.4838 21.6695 18.6112 21.4258 18.6706 21.1619L22.6344 3.91779C22.6699 3.76227 22.6623 3.60004 22.6126 3.44847C22.5629 3.29691 22.4729 3.16174 22.3522 3.05744ZM16.3815 6.57306L7.63247 12.8387L2.78871 11.8885L16.3815 6.57306ZM8.59438 20.0311V15.3944L11.0153 17.5174L8.59438 20.0311ZM17.1422 20.8123L9.06801 13.7322L20.6891 5.40314L17.1422 20.8123Z" fill="#1DE1D3" />
  </symbol>

  <symbol id="arrowDetailed" width="19" height="18" viewBox="0 0 19 18" fill="none" xmlns="http://www.w3.org/2000/svg">
    <path d="M7.32129 13.5L11.8213 9L7.32129 4.5" stroke="#1DE1D3" stroke-width="1.5" stroke-linecap="round" stroke-linejoin="round" />
  </symbol>
</svg>