<svg width="50" height="50" viewBox="0 0 50 50" fill="none" xmlns="http://www.w3.org/2000/svg">
<path fill-rule="evenodd" clip-rule="evenodd" d="M27.5497 13.9512C29.8985 11.6026 33.7006 11.6027 36.0493 13.9512C38.3982 16.3 38.3977 20.1023 36.0493 22.4507C33.7061 24.7938 29.8935 24.7928 27.5501 22.4509C25.2071 20.1065 25.2072 16.2938 27.5497 13.9512ZM29.2499 20.751C30.6561 22.1563 32.944 22.1563 34.3494 20.7507C35.7587 19.3415 35.7585 17.0601 34.3494 15.6511C32.9401 14.2418 30.6588 14.242 29.2497 15.6511C27.8441 17.0566 27.8442 19.3444 29.2499 20.751Z" fill="url(#paint0_linear_19_27516)"/>
<path d="M19.051 29.2498C19.5209 28.7798 20.2818 28.7798 20.7518 29.2498C21.2206 29.7186 21.2206 30.4794 20.7518 30.9494C20.2818 31.4182 19.5209 31.4182 19.051 30.9494C18.5822 30.4794 18.5822 29.7186 19.051 29.2498Z" fill="url(#paint1_linear_19_27516)"/>
<path d="M24.1509 24.1495C24.6206 23.6802 25.3813 23.6802 25.8509 24.1495C26.3203 24.619 26.3203 25.3801 25.8509 25.8495L24.1512 27.5491C23.6818 28.0184 22.9208 28.0184 22.4513 27.5491C21.982 27.0796 21.982 26.3185 22.4513 25.8491L24.1509 24.1495Z" fill="url(#paint2_linear_19_27516)"/>
<path fill-rule="evenodd" clip-rule="evenodd" d="M49.648 0.352073C49.412 0.116124 49.0898 -0.011767 48.755 0.000853074C48.4831 0.010589 42.0123 0.270698 34.3202 2.98945C28.1565 5.16575 23.0189 8.28164 19.05 12.2506C18.1608 13.1399 17.2953 14.083 16.4673 15.0627C12.543 12.7528 9.39842 13.4771 7.41043 14.5409C2.83314 16.9906 0 23.6418 0 28.3993C0.000321959 28.8853 0.293305 29.3237 0.742331 29.5096C0.891076 29.5713 1.04733 29.6012 1.20209 29.6012C1.51493 29.6012 1.82229 29.479 2.05228 29.2492C4.46622 26.8352 7.44359 26.9862 8.41623 27.1141L8.83714 27.535C8.00874 29.5063 7.34142 31.4665 6.85205 33.3729C6.67529 34.0629 6.73496 34.7929 6.99757 35.4608C5.84034 35.9941 4.72379 36.7772 3.75158 37.7493C0.657656 40.8435 0.0292983 48.3839 0.00407815 48.7034C-0.0236104 49.054 0.103564 49.3993 0.352331 49.6479C0.578668 49.8742 0.884744 50 1.20209 50L1.23203 49.9996L1.25983 49.9986C1.27217 49.998 1.28451 49.9973 1.29685 49.9963C1.61634 49.9712 9.15706 49.3429 12.2511 46.2489C13.2229 45.2771 14.0059 44.1607 14.5391 43.0037C15.2462 43.2817 15.9738 43.3159 16.6282 43.1483C18.5338 42.6589 20.4938 41.9918 22.4653 41.1633L22.8862 41.5842C23.014 42.557 23.1649 45.5344 20.7511 47.9481C20.4074 48.2919 20.3046 48.8088 20.4907 49.2579C20.6766 49.7071 21.1148 49.9999 21.601 49.9999C26.3585 49.9999 33.0096 47.1667 35.4592 42.5895C36.5231 40.6017 37.2474 37.4571 34.9374 33.5328C35.9167 32.7051 36.8599 31.8397 37.7496 30.95C41.7185 26.981 44.8343 21.8434 47.0106 15.6802C49.7295 7.98776 49.9895 1.51679 49.9992 1.24514C50.0112 0.911595 49.884 0.58814 49.648 0.352073ZM2.68739 25.8139C3.43402 22.2004 5.60274 18.2352 8.54523 16.6604C10.5115 15.6082 12.6608 15.7113 14.946 16.9622C12.9992 19.5227 11.3067 22.2812 9.89585 25.1942C9.89585 25.1942 9.89252 25.1915 9.88952 25.1885L9.87868 25.1775C9.81837 25.1151 9.6092 24.8993 9.25966 24.8205C9.09439 24.7831 5.91407 24.0991 2.68739 25.8139ZM10.5513 44.5489C8.89853 46.2016 5.02149 47.0733 2.57106 47.4292C2.92704 44.9786 3.79891 41.1018 5.45142 39.4492C6.37694 38.5236 7.45014 37.8219 8.52881 37.4267L12.5737 41.4716C12.1784 42.5503 11.4769 43.6234 10.5513 44.5489ZM16.031 40.8195C15.6832 40.9086 15.2803 40.7778 14.9808 40.4788L9.52227 35.0204C9.22253 34.72 9.09181 34.3172 9.18056 33.9699C9.56563 32.4706 10.0691 30.9323 10.6814 29.3792L20.6212 39.319C19.0678 39.9314 17.5298 40.4348 16.031 40.8195ZM33.3401 41.4551C31.7652 44.3975 27.8001 46.5663 24.1867 47.3129C25.3388 45.1449 25.5928 42.385 25.1719 40.7115C25.0888 40.3811 24.8931 40.1903 24.8276 40.1264C24.816 40.1151 24.8085 40.1078 24.8063 40.1044C27.7191 38.6936 30.4775 37.0011 33.0382 35.0542C34.2891 37.3397 34.3921 39.4892 33.3401 41.4551ZM36.05 29.2501C34.9669 30.3331 33.8006 31.3794 32.5835 32.3599C29.6576 34.7158 26.4373 36.7113 23.0015 38.2998L11.7005 26.9991C13.2891 23.5631 15.2846 20.3428 17.6403 17.4173C18.6216 16.1993 19.6677 15.0329 20.7504 13.9504C24.3113 10.3894 28.9069 7.55541 34.4134 5.51541L44.485 15.587C42.4453 21.0934 39.6112 25.689 36.05 29.2501ZM45.3498 13.0519L36.9485 4.65058C41.5258 3.22889 45.5078 2.69653 47.4953 2.50517C47.3039 4.49313 46.7715 8.47515 45.3498 13.0519Z" fill="url(#paint3_linear_19_27516)"/>
<defs>
<linearGradient id="paint0_linear_19_27516" x1="27.3106" y1="76.7666" x2="-16.4725" y2="50.986" gradientUnits="userSpaceOnUse">
<stop stop-color="#723AA9"/>
<stop offset="1" stop-color="#1DE1D3"/>
</linearGradient>
<linearGradient id="paint1_linear_19_27516" x1="27.3106" y1="76.7666" x2="-16.4725" y2="50.986" gradientUnits="userSpaceOnUse">
<stop stop-color="#723AA9"/>
<stop offset="1" stop-color="#1DE1D3"/>
</linearGradient>
<linearGradient id="paint2_linear_19_27516" x1="27.3106" y1="76.7666" x2="-16.4725" y2="50.986" gradientUnits="userSpaceOnUse">
<stop stop-color="#723AA9"/>
<stop offset="1" stop-color="#1DE1D3"/>
</linearGradient>
<linearGradient id="paint3_linear_19_27516" x1="27.3106" y1="76.7666" x2="-16.4725" y2="50.986" gradientUnits="userSpaceOnUse">
<stop stop-color="#723AA9"/>
<stop offset="1" stop-color="#1DE1D3"/>
</linearGradient>
</defs>
</svg>
